<svg xmlns="http://www.w3.org/2000/svg" xmlns:xlink="http://www.w3.org/1999/xlink" xmlns:lucid="lucid" width="1462" height="1142"><g transform="translate(259.0347863037571 507.52948337177975)" lucid:page-tab-id="0_0"><path d="M-258.04-500.53a6 6 0 0 1 6-6h1448a6 6 0 0 1 6 6v1128a6 6 0 0 1-6 6h-1448a6 6 0 0 1-6-6z" stroke="#282c33" stroke-width="2" fill="#f2f3f5"/><path d="M660-180h120v120H660v-120z" stroke="#000" stroke-opacity="0" fill="url(#a)"/><path d="M744.4-104.04l11.18 10c2.36 2.18 2.52 5.9.4 8.3-1.2 1.3-2.76 1.94-4.34 1.94-1.4 0-2.83-.48-3.93-1.53l-10.93-9.84c-3.23 2.1-7 3.3-11.18 3.3-11.35 0-20.56-9.27-20.56-20.64 0-11.38 9.2-20.57 20.55-20.57 11.4 0 20.6 9.2 20.6 20.56 0 3.06-.62 5.88-1.8 8.46zM695.6-135c1.1 0 1.9.88 1.9 1.93v52.5c0 1.04-.8 1.85-1.9 1.85h-13.07c-1.02 0-1.9-.8-1.9-1.86v-52.5c0-1.04.88-1.93 1.9-1.93zm13.14 22.5c0 9.35 7.56 16.93 16.85 16.93 9.36 0 16.9-7.58 16.9-16.94 0-9.28-7.54-16.86-16.9-16.86-9.3 0-16.86 7.58-16.86 16.85zm16.85-13.07c7.23 0 13.13 5.88 13.13 13.06 0 7.25-5.9 13.14-13.14 13.14-7.17 0-13.08-5.9-13.08-13.15 0-7.2 5.9-13.07 13.07-13.07zM684.4-82.5h9.37v-48.72h-9.38zm74.94-65.57v48.7h-3.78v-46.85h-9.37v15h-3.7v-16.85c0-1.05.8-1.94 1.9-1.94h13.07c1.02 0 1.9.88 1.9 1.93zm-33.77 45c5.18 0 9.36-4.2 9.36-9.44 0-5.17-4.18-9.36-9.37-9.36-5.13 0-9.38 4.2-9.38 9.35 0 5.23 4.25 9.43 9.37 9.43zm0-35.65h-3.7v-18.78c0-1.05.78-1.86 1.88-1.86h13.07c1.02 0 1.88.8 1.88 1.86v20.64h-3.77v-18.7h-9.37zm-11.2 48.7h3.7v9.44c0 1.05-.78 1.86-1.88 1.86h-13.07c-1.02 0-1.88-.8-1.88-1.86v-18.78h3.77v16.85h9.37zm-9.36-37.5h-3.77v-16.84c0-1.05.86-1.86 1.88-1.86h13.07c1.1 0 1.9.8 1.9 1.86v7.5h-3.7v-5.65h-9.38zm29.92 41.3h3.77v5.64c0 1.05-.86 1.86-1.88 1.86h-13.07c-1.1 0-1.9-.8-1.9-1.86v-7.5h3.7v5.57h9.38zm18.26-2.02c.8-.88.7-2.25-.16-2.98l-10.55-9.52c-.77 1.2-1.72 2.26-2.74 3.23l10.4 9.43c.93.72 2.27.72 3.06-.17z" stroke="#000" stroke-opacity="0" fill="#fff"/><use xlink:href="#b" transform="matrix(1,0,0,1,630,-51) translate(39.525 14.4)"/><path d="M360 20h120v120H360V20z" stroke="#000" stroke-opacity="0" fill="url(#c)"/><path d="M390.2 96.83h-3.97V93.1h2.3c-.32-1.24-.65-2.48-.8-3.8h-3.64l1.8 2.7-3.13 2.13-3.72-5.63c-.4-.66-.4-1.46 0-2.05l3.7-5.62 3.15 2.04-1.8 2.7h3.37c.08-1.23.17-2.55.4-3.72h-1.64v-3.73h2.8c3.23-8.33 11.32-14.18 20.73-14.18 6.28 0 11.9 2.56 15.94 6.66h20.55v3.72h-17.58c2.06 3.3 3.3 7.17 3.38 11.26h14.2v3.72H431.9c-1.58 10.82-10.9 19.15-22.14 19.15-8.42 0-15.77-4.68-19.56-11.62zm63-33.18c.4.37.57.8.57 1.32v50.57c0 1.1-.83 1.9-1.9 1.9h-43.5c-1.08 0-1.9-.8-1.9-1.9v-3.73h3.7v1.9h39.88V66.88h-9.4c-1.08 0-1.9-.88-1.9-1.9V55.6h-28.16v5.64h-3.73V53.7c0-1 .83-1.8 1.9-1.8h31.87c.5 0 1 .13 1.32.5zM416.3 89.3v-3.72h6.18c-.33-6.73-5.87-12.06-12.72-12.06-6.77 0-12.3 5.33-12.63 12.06h5.94v3.72h-5.6c1.4 5.56 6.35 9.58 12.3 9.58 2.55 0 4.95-.73 7-2.05h-4.28V93.1h8c.74-1.16 1.23-2.4 1.56-3.8zm44.98-31.86v56.27h-3.7V58.25L447.3 48.1H414.4V50h-3.8v-3.74c0-1.1.9-1.9 1.9-1.9h35.65c.5 0 1 .22 1.32.6l11.23 11.17c.42.36.58.87.58 1.3zm-66.7 39.4c3.38 4.74 8.9 7.88 15.18 7.88 10.24 0 18.58-8.33 18.58-18.48 0-10.24-8.34-18.57-18.58-18.57-7.26 0-13.62 4.24-16.6 10.45h2.32c2.8-4.97 8.17-8.33 14.28-8.33 9.08 0 16.5 7.37 16.5 16.44 0 9.06-7.42 16.44-16.5 16.44-5.03 0-9.5-2.27-12.55-5.85zm19.56-18.35c1.07 0 1.9.86 1.9 1.9v2.9h-3.72v-1h-.66v3.5h1.07v3.72h-5.86V85.8h1.08v-3.5h-.66v1h-3.73v-2.9c0-1.04.83-1.9 1.82-1.9zm20.9 3.35v-3.73h11.2v3.73zm0 14.98V93.1h11.2v3.73zm-42.45-3.73h2.22c-.9-2.1-1.5-4.45-1.5-6.86 0-1.54.18-3 .6-4.4h-2.16c-.33 1.4-.5 2.86-.5 4.4 0 2.4.42 4.75 1.33 6.86zm49.94-30.03h4.8l-4.8-4.83z" stroke="#000" stroke-opacity="0" fill="#fff"/><use xlink:href="#d" transform="matrix(1,0,0,1,330,149) translate(58.55 14.4)"/><path d="M257.17-155.76c.83.84 1.07 2.04.6 3-.36 1.08-1.42 1.68-2.48 1.68h-12.05v18.12h6.14c1.4 0 2.7 1.2 2.7 2.64v67.56c0 1.56-1.3 2.76-2.7 2.76h-9.1v-5.4h6.25v-62.16h-14.98v-5.4h6.13v-20.76c0-1.56 1.18-2.76 2.72-2.76h8.14l-17-16.92-16.98 16.92h8.14c1.53 0 2.7 1.2 2.7 2.76v32.52h12.05c1.18 0 2.12.6 2.6 1.68.35.96.1 2.16-.6 2.88l-23.7 23.52c-.6.6-1.3.84-2.02.84-.7 0-1.3-.24-1.9-.84l-23.7-23.52c-.7-.72-.95-1.92-.6-2.88.48-1.08 1.42-1.68 2.6-1.68h12.04v-17.88h5.4v20.52c0 1.56-1.17 2.76-2.7 2.76h-8.14l17 16.92 17.1-16.92h-8.14c-1.54 0-2.83-1.2-2.83-2.76v-32.52h-12.05c-1.06 0-2.12-.6-2.48-1.68-.47-.96-.23-2.16.6-3l23.6-23.4c1.17-1.08 2.82-1.08 3.9 0zM156.77-65.4h6.7v5.4h-14.86c-4.7 0-8.6-3.84-8.6-8.64v-82.2c0-1.56 1.18-2.76 2.7-2.76h32.82c.82 0 1.65.48 2.24 1.08l6.02 7.8h12.27v5.4h-13.7c-.8 0-1.64-.36-2.1-1.08l-6.03-7.68h-28.67v79.44c0 1.8 1.4 3.24 3.06 3.24 1.78 0 3.2-1.44 3.2-3.24v-61.68c0-1.44 1.3-2.64 2.83-2.64h41.42v5.4h-38.7v58.92c0 1.2-.24 2.16-.6 3.24zm78.57-17.76c1.3 1.44 1.9 3.24 1.9 5.64 0 2.4-.6 4.2-1.9 5.64-1.3 1.32-3.06 2.04-5.2 2.04h-2.94v9h-4.84V-85.2h7.8c2.12 0 3.9.72 5.18 2.04zm-53.2 10.56c.7.6 1.17 1.32 1.52 2.16.35.84.6 1.8.6 2.88 0 2.28-.84 4.08-2.25 5.4-1.4 1.2-3.4 1.92-6 1.92-1.07 0-2.25-.12-3.3-.36-1.2-.24-2.14-.6-2.85-1.08v-3.72c.83.36 1.9.6 2.95.84 1.07.24 2 .36 2.84.36 1.18 0 2-.24 2.6-.84.58-.48.94-1.2.94-2.28 0-.72-.24-1.32-.7-1.8-.37-.48-1.07-.96-2.02-1.56l-2-.96c-1.66-.96-2.95-2.04-3.78-3.12-.7-1.08-1.06-2.4-1.06-3.84s.35-2.76.94-3.84c.7-1.08 1.65-1.8 2.72-2.4 1.18-.6 2.47-.84 4-.84 1.9 0 3.78.36 5.55 1.2v3.72c-1.88-.72-3.54-1.08-5.07-1.08-.94 0-1.77.36-2.36.84-.6.48-.83 1.08-.83 2.04 0 .72.24 1.32.6 1.8.35.48 1.06.96 2.12 1.56l1.88.96c1.18.72 2.24 1.32 2.95 2.04zm5.77 11.76V-85.2h12.75v3.72h-7.8v6.6H199v3.84h-6.14v10.2zm14.88-20.4v-3.96h16.75v3.96h-5.9v20.4h-4.95v-20.4zm29.6 3.72c0-1.32-.22-2.28-.8-3-.48-.72-1.2-.96-2.14-.96h-2.24v7.92h2.24c.95 0 1.66-.24 2.13-.96.6-.72.82-1.68.82-3z" stroke="#000" stroke-opacity="0" fill="#067f68"/><path d="M142.94-153.56h33c2 .13 5.2 5.88 7.8 8.76h12.37l9.44-10.55 24.05-23.62c1.4-1.32 2.8-1.2 4.23-.12l23.46 23.63c1.28 1.9.8 3.35-1.55 4.43h-12.5l-.1 17.98h6.6c1.05.48 2.23.84 2.47 2.76l-.12 66.78c-.12 1.3.12 2.63-2.36 3.35l-101.85.12c-3.3-.96-6.5-1.92-7.8-7.55v-83.2c.37-1.92 1.3-2.75 2.84-2.75z" stroke="#000" stroke-opacity="0" fill-opacity="0"/><use xlink:href="#e" transform="matrix(1,0,0,1,110,-51) translate(20.150000000000006 14.4)"/><use xlink:href="#f" transform="matrix(1,0,0,1,110,-51) translate(70.70000000000002 14.4)"/><use xlink:href="#g" transform="matrix(1,0,0,1,110,-51) translate(112.65 14.4)"/><path d="M257.17 44.24c.83.84 1.07 2.04.6 3-.36 1.08-1.42 1.68-2.48 1.68h-12.05v18.12h6.14c1.4 0 2.7 1.2 2.7 2.64v67.56c0 1.56-1.3 2.76-2.7 2.76h-9.1v-5.4h6.25V72.44h-14.98v-5.4h6.13V46.28c0-1.56 1.18-2.76 2.72-2.76h8.14l-17-16.92-16.98 16.92h8.14c1.53 0 2.7 1.2 2.7 2.76V78.8h12.05c1.18 0 2.12.6 2.6 1.68.35.96.1 2.16-.6 2.88l-23.7 23.52c-.6.6-1.3.84-2.02.84-.7 0-1.3-.24-1.9-.84l-23.7-23.52c-.7-.72-.95-1.92-.6-2.88.48-1.08 1.42-1.68 2.6-1.68h12.04V60.92h5.4v20.52c0 1.56-1.17 2.76-2.7 2.76h-8.14l17 16.92 17.1-16.92h-8.14c-1.54 0-2.83-1.2-2.83-2.76V48.92h-12.05c-1.06 0-2.12-.6-2.48-1.68-.47-.96-.23-2.16.6-3l23.6-23.4c1.17-1.08 2.82-1.08 3.9 0zm-100.4 90.36h6.7v5.4h-14.86c-4.7 0-8.6-3.84-8.6-8.64v-82.2c0-1.56 1.18-2.76 2.7-2.76h32.82c.82 0 1.65.48 2.24 1.08l6.02 7.8h12.27v5.4h-13.7c-.8 0-1.64-.36-2.1-1.08l-6.03-7.68h-28.67v79.44c0 1.8 1.4 3.24 3.06 3.24 1.78 0 3.2-1.44 3.2-3.24V69.68c0-1.44 1.3-2.64 2.83-2.64h41.42v5.4h-38.7v58.92c0 1.2-.24 2.16-.6 3.24zm78.57-17.76c1.3 1.44 1.9 3.24 1.9 5.64 0 2.4-.6 4.2-1.9 5.64-1.3 1.32-3.06 2.04-5.2 2.04h-2.94v9h-4.84V114.8h7.8c2.12 0 3.9.72 5.18 2.04zm-53.2 10.56c.7.6 1.17 1.32 1.52 2.16.35.84.6 1.8.6 2.88 0 2.28-.84 4.08-2.25 5.4-1.4 1.2-3.4 1.92-6 1.92-1.07 0-2.25-.12-3.3-.36-1.2-.24-2.14-.6-2.85-1.08v-3.72c.83.36 1.9.6 2.95.84 1.07.24 2 .36 2.84.36 1.18 0 2-.24 2.6-.84.58-.48.94-1.2.94-2.28 0-.72-.24-1.32-.7-1.8-.37-.48-1.07-.96-2.02-1.56l-2-.96c-1.66-.96-2.95-2.04-3.78-3.12-.7-1.08-1.06-2.4-1.06-3.84s.35-2.76.94-3.84c.7-1.08 1.65-1.8 2.72-2.4 1.18-.6 2.47-.84 4-.84 1.9 0 3.78.36 5.55 1.2v3.72c-1.88-.72-3.54-1.08-5.07-1.08-.94 0-1.77.36-2.36.84-.6.48-.83 1.08-.83 2.04 0 .72.24 1.32.6 1.8.35.48 1.06.96 2.12 1.56l1.88.96c1.18.72 2.24 1.32 2.95 2.04zm5.77 11.76V114.8h12.75v3.72h-7.8v6.6H199v3.84h-6.14v10.2zm14.88-20.4v-3.96h16.75v3.96h-5.9v20.4h-4.95v-20.4zm29.6 3.72c0-1.32-.22-2.28-.8-3-.48-.72-1.2-.96-2.14-.96h-2.24v7.92h2.24c.95 0 1.66-.24 2.13-.96.6-.72.82-1.68.82-3z" stroke="#000" stroke-opacity="0" fill="#067f68"/><path d="M142.94 46.45h33c2 .1 5.2 5.87 7.8 8.75h12.37l9.44-10.55 24.05-23.62c1.4-1.32 2.8-1.2 4.23-.12l23.46 23.63c1.28 1.9.8 3.35-1.55 4.43h-12.5l-.1 17.98h6.6c1.05.48 2.23.84 2.47 2.76l-.12 66.77c-.12 1.32.12 2.64-2.36 3.36l-101.85.12c-3.3-.96-6.5-1.92-7.8-7.55V49.2c.37-1.92 1.3-2.76 2.84-2.76z" stroke="#000" stroke-opacity="0" fill-opacity="0"/><use xlink:href="#e" transform="matrix(1,0,0,1,110,149) translate(19.299999999999997 14.4)"/><use xlink:href="#h" transform="matrix(1,0,0,1,110,149) translate(69.85 14.4)"/><path d="M257.17 264.24c.83.84 1.07 2.04.6 3-.36 1.08-1.42 1.68-2.48 1.68h-12.05v18.12h6.14c1.4 0 2.7 1.2 2.7 2.64v67.56c0 1.56-1.3 2.76-2.7 2.76h-9.1v-5.4h6.25v-62.16h-14.98v-5.4h6.13v-20.76c0-1.56 1.18-2.76 2.72-2.76h8.14l-17-16.92-16.98 16.92h8.14c1.53 0 2.7 1.2 2.7 2.76v32.52h12.05c1.18 0 2.12.6 2.6 1.68.35.96.1 2.16-.6 2.88l-23.7 23.52c-.6.6-1.3.84-2.02.84-.7 0-1.3-.24-1.9-.84l-23.7-23.52c-.7-.72-.95-1.92-.6-2.88.48-1.08 1.42-1.68 2.6-1.68h12.04v-17.88h5.4v20.52c0 1.56-1.17 2.76-2.7 2.76h-8.14l17 16.92 17.1-16.92h-8.14c-1.54 0-2.83-1.2-2.83-2.76v-32.52h-12.05c-1.06 0-2.12-.6-2.48-1.68-.47-.96-.23-2.16.6-3l23.6-23.4c1.17-1.08 2.82-1.08 3.9 0zm-100.4 90.36h6.7v5.4h-14.86c-4.7 0-8.6-3.84-8.6-8.64v-82.2c0-1.56 1.18-2.76 2.7-2.76h32.82c.82 0 1.65.48 2.24 1.08l6.02 7.8h12.27v5.4h-13.7c-.8 0-1.64-.36-2.1-1.08l-6.03-7.68h-28.67v79.44c0 1.8 1.4 3.24 3.06 3.24 1.78 0 3.2-1.44 3.2-3.24v-61.68c0-1.44 1.3-2.64 2.83-2.64h41.42v5.4h-38.7v58.92c0 1.2-.24 2.16-.6 3.24zm78.57-17.76c1.3 1.44 1.9 3.24 1.9 5.64 0 2.4-.6 4.2-1.9 5.64-1.3 1.32-3.06 2.04-5.2 2.04h-2.94v9h-4.84V334.8h7.8c2.12 0 3.9.72 5.18 2.04zm-53.2 10.56c.7.6 1.17 1.32 1.52 2.16.35.84.6 1.8.6 2.88 0 2.28-.84 4.08-2.25 5.4-1.4 1.2-3.4 1.92-6 1.92-1.07 0-2.25-.12-3.3-.36-1.2-.24-2.14-.6-2.85-1.08v-3.72c.83.36 1.9.6 2.95.84 1.07.24 2 .36 2.84.36 1.18 0 2-.24 2.6-.84.58-.48.94-1.2.94-2.28 0-.72-.24-1.32-.7-1.8-.37-.48-1.07-.96-2.02-1.56l-2-.96c-1.66-.96-2.95-2.04-3.78-3.12-.7-1.08-1.06-2.4-1.06-3.84s.35-2.76.94-3.84c.7-1.08 1.65-1.8 2.72-2.4 1.18-.6 2.47-.84 4-.84 1.9 0 3.78.36 5.55 1.2v3.72c-1.88-.72-3.54-1.08-5.07-1.08-.94 0-1.77.36-2.36.84-.6.48-.83 1.08-.83 2.04 0 .72.24 1.32.6 1.8.35.48 1.06.96 2.12 1.56l1.88.96c1.18.72 2.24 1.32 2.95 2.04zm5.77 11.76V334.8h12.75v3.72h-7.8v6.6H199v3.84h-6.14v10.2zm14.88-20.4v-3.96h16.75v3.96h-5.9v20.4h-4.95v-20.4zm29.6 3.72c0-1.32-.22-2.28-.8-3-.48-.72-1.2-.96-2.14-.96h-2.24v7.92h2.24c.95 0 1.66-.24 2.13-.96.6-.72.82-1.68.82-3z" stroke="#000" stroke-opacity="0" fill="#067f68"/><path d="M142.94 266.44h33c2 .13 5.2 5.88 7.8 8.76h12.37l9.44-10.55 24.05-23.62c1.4-1.32 2.8-1.2 4.23-.12l23.46 23.63c1.28 1.92.8 3.35-1.55 4.43h-12.5l-.1 17.98h6.6c1.05.48 2.23.84 2.47 2.76l-.12 66.78c-.12 1.3.12 2.63-2.36 3.35l-101.85.12c-3.3-.96-6.5-1.92-7.8-7.55v-83.2c.37-1.92 1.3-2.75 2.84-2.75z" stroke="#000" stroke-opacity="0" fill-opacity="0"/><use xlink:href="#i" transform="matrix(1,0,0,1,110,369) translate(18.75 14.4)"/><use xlink:href="#j" transform="matrix(1,0,0,1,110,369) translate(113.7 14.4)"/><use xlink:href="#h" transform="matrix(1,0,0,1,110,369) translate(44.574999999999996 36)"/><path d="M-90.44-74.52c-4-.13-7.13-3.4-7.02-7.37.1-3.96 3.43-7.07 7.42-6.97 3.97.1 7.1 3.4 7 7.35-.13 3.97-3.43 7.05-7.4 7zm0 6.4c3.73.07 6.94-1.2 9.6-3.76 5.3-5.14 5.44-13.55.3-18.83-5.18-5.28-13.65-5.4-18.96-.3-5.3 5.14-5.44 13.55-.3 18.83 2.63 2.6 5.8 3.9 9.5 3.9zM-90.33-165.05c-3.7-.02-6.9 1.3-9.5 3.92-5.2 5.2-5.15 13.58.08 18.74 2.6 2.62 5.78 3.93 9.5 3.84.64.03 1.2.03 1.84 0 7.4-.5 12.97-6.86 12.47-14.2-.53-7.33-6.92-12.87-14.3-12.37zm5.17 18.3c-1.44 1.4-3.2 2.07-5.22 2-3.95-.17-7.04-3.47-6.9-7.38.14-3.92 3.45-6.98 7.42-6.84 3.92.16 7 3.4 6.9 7.3-.08 1.93-.8 3.56-2.2 4.9zM-113.3-128.8h-.33v6.1h.46c3.94 0 7.13 3.18 7.13 7.1 0 3.92-3.2 7.1-7.13 7.1h-.46v6.42h.46c.65.03 1.2.03 1.85 0 7.38-.5 12.93-6.87 12.43-14.23-.5-7.34-6.9-12.88-14.27-12.37zM-142.8-180c-31.58 0-57.2 12.8-57.2 28.17 0 15.4 25.8 28.28 57.2 28.28h.63V-180z" stroke="#000" stroke-opacity="0" fill="#4285f4"/><path d="M-142.8-112.66c-14.64.48-27.2-1.96-40.5-7.96-7.33-2.93-12.6-7.97-15.72-15.22h-.98v19.87c0 15.55 25.8 28.13 57.2 28.13h.63v-24.9z" stroke="#000" stroke-opacity="0" fill="#4285f4"/><path d="M-142.8-76.98c-14.64.53-27.13-1.92-40.5-7.94-7.33-2.9-12.6-8-15.72-15.2h-.98v19.97C-200-64.62-174.2-52-142.8-52h.63v-24.98z" stroke="#000" stroke-opacity="0" fill="#4285f4"/><path d="M-127.9-180h14.27v128h-14.27v-128z" stroke="#000" stroke-opacity="0" fill="#669df6"/><path d="M-200-180v128h124.1v-128z" stroke="#000" stroke-opacity="0" fill-opacity="0"/><use xlink:href="#k" transform="matrix(1,0,0,1,-200,-47) translate(11.32716049382715 17.77777777777778)"/><path d="M205.03 560h-3.47l-12.64-1.04-9.63-1.86-6.58-2.07-4.22-1.87-2.8-1.55-1.8-1.34-1.25-1.14-.9-1.03-.63-.84-.4-.83-.32-.72-.23-.72-.1-.72-.03-.73v-87.1h45z" stroke="#000" stroke-opacity="0" fill="#3998c5"/><path d="M250.25 543.53v.2l-.05.73-.13.73-.23.7-.37.74-.46.83-.67.93-.96 1.03-1.37 1.25-2.06 1.34-3.02 1.66-4.75 1.87-7.17 2.07-10.43 1.65-13.3.73h-.73V456.42h45.7z" stroke="#000" stroke-opacity="0" fill="#59b3d8"/><path d="M217.83 440.7l10.55 1.7 7.4 2.1 4.96 1.94 3.16 1.7 2.08 1.42 1.35 1.18 1 1.05.62.88.55.78.26.76.28.7.1.64.08.66V457.07l-.18.66-.2.7-.25.7-.47.83-.63.86-.8 1.02-1.27 1.15-1.9 1.33-2.8 1.64-4.4 1.88-6.7 2.06-9.64 1.9-12.37 1-3.43.04-12.8-.7-10.57-1.7-7.4-2.1-4.96-1.94-3.16-1.7-2.06-1.42-1.35-1.18-1-1.05-.64-.9-.54-.78-.27-.75-.27-.7-.1-.65-.08-.65V455.75l.18-.65.18-.7.27-.7.45-.83.63-.85.83-1.02 1.26-1.15 1.88-1.35 2.8-1.6 4.42-1.9 6.68-2.08 9.65-1.87 12.36-1.02L205 440z" stroke="#000" stroke-opacity="0" fill="#fff"/><path d="M220.02 445.56l9.64 1.95 5.1 1.8 2.66 1.36 1.5 1.05.88.83.5.68.36.6.22.5.14.5.07.45V455.92l-.15.48-.15.5-.36.56-.43.66-.7.76-1.23.95-2.16 1.24-3.94 1.63-7.7 1.96-13.23 1.52-5.76.13-15.03-.97-9.64-1.95-5.1-1.8-2.66-1.35-1.5-1.05-.88-.82-.5-.68-.36-.58-.22-.5-.14-.5-.07-.46V454.97l.14-.48.16-.5.36-.58.43-.65.72-.76 1.22-.94 2.15-1.24 3.95-1.63 7.7-1.97 13.23-1.52 5.76-.12z" stroke="#000" stroke-opacity="0" fill="#7fb900"/><path d="M233.4 461.96l3.37-1.58 2.37-1.7 1.43-1.8.3-1.44v-.46l-.15-.5-.15-.5-.36-.55-.42-.64-.7-.78-1.23-.96-2.15-1.25-4.02-1.6-7.67-1.97-13.18-1.5-5.8-.15-15 1-9.52 1.94-5.02 1.77-2.66 1.36-1.5 1.05-.86.82-.5.68-.36.6-.22.5-.14.5-.07.47v.17l.57 1.92 1.72 1.82 2.58 1.67 2.6 1.1 7.15-2.13 16.05-1.86 5.16-.1 15.2 1 13.2 3.1z" stroke="#000" stroke-opacity="0" fill="#b7d332"/><path d="M221.26 485.4l3.8 1.18 3.13 1.92 2.62 2.67.1.12.3.5.27.83.27 1.4-.06 2.85-1 5.82-3.13 8.96-4.75 8.55.17.3.88.7 2.3.4 4.3-.46 1.4.88-3.36 2.44-1.9.64-1.95.35-2.07.06-.62-.05-.78-.18-1.45 1-.45 3.6-.4 1.22-.05 1.1-.33 1.5-.34 2.28-.1 1-.68 2.1-1.23 1.8-.67.57-1.9 1.17-2.18.58-.73.1-3.25-.5-1.57-1.87-.72-1.92-.17-.8-.3-2-.1-1.96.1-1.98.07-1.1-.12-2.04-.4-1.98-.7-1.92.1-.47-1.8 1.8-2.17 1.1-.95.24-2 .1-1.97-.34-1.96-1.16 2.07-1.46 2.13-.52 1.62-1 1.5-1.85-.1-.64.05-.64-.17.1-.56.06-2.06-.35-1.9-.86-.84.93-2.02 2.2-2.5 2.98-.35.35-.78.7-.63.4-.55.18-.5.06h-.45l-.56-.18-.55-.3-.84-.57-1.1-1.3-1.96-3.37-3.86-11.52-1.9-9.94.17-4.65.83-3.08 1.12-2.1 1.34-1.5 1.62-1.23 2.18-.88 3.2-.52 5.08.3 6.37 1.73 1.44-.93 1.96-.8 2-.48 2.14-.06h.84l1.95.18 2.07.3.5-.2 5.48-.92z" stroke="#000" stroke-opacity="0" fill="#336790"/><path d="M199.24 502.02l.54.12.5.2.44.4.02.4-.25.4-.37.32-.44.2-.47.07H199l-1.1-.63-.42-.9.03-.1.06-.1.16-.16.74-.25zM220.06 501.6l.4.18.16.27-.12.42-.26.36-.47.36-.55.2h-.2l-.43-.06-.4-.18-.33-.28-.24-.4.4-.58 1-.32.52-.03z" stroke="#000" stroke-opacity="0" fill="#fff"/><path d="M218.65 484.4l1.1.05 2.05.3 1.95.53 1.9.78 1.9 1.13 2 1.55 1.72 1.9.23.37.52 1.2.34 2.75-1.03 7.6-1.1 3.7-6.7 13.86.17.18.97.37 2.07.24 3.55-.47 1.26-.12 1.1.8-1.1 2.14-2.76 1.74-1.66.6-1.95.35-2.08.12-1.32-.06-1.32-.37-1.43 11.18-.17 1.03-.7 2.1-1.3 1.78-.7.6-1.95 1.15-2.18.47-.98.18-1.03.06-1.95-.36-1.8-.95-1.37-1.5-.86-1.8-.92-13.38-1.83 1.38-2.13.83-.7.12-2 .12-1.95-.42-1.67-.7-.86-1.4.92-1.2 1.78-.58 2.64-.78 1.2-1.2.35-.4.35-.43v-.35l-1.95-.3-1.84-.72-.9.96-1.8 2.02-2.3 2.7-.85.95-1.08.66-1.2.24-1.27-.12-.4-.18-.74-.42-.9-.78-1.27-1.6-2.13-4.02-3.73-11.9-1.6-8.72.23-5.02 1.1-3.58L178 489l1.84-1.7 2.98-1.42 3.84-.78 3.9.24 1.33.24 2 .42 1.97.54 1.95.65 1.5-.9 1.94-.78 2.07-.42 2.06-.06h.56l1.96.18 2.06.36.17-.06.52-.18 1.95-.48 2-.3 1.96-.17zm-15.78 2.08l-1.95.54-2 1-1.8 1.45-1.54 2.2-2.07 4.6-.8 5.03 1-.54 2-.77 2.06-.5.86-.1.92.1.86.25.8.42.7.6.5.65.47.84.23.84.57 3.52-.1 4.96-1.4 4.37-.28.66-.3.66-.1.36-.53 1.32-.34 1.43.52-.18h.5l.6.05.56.24.53.35.45.48.35.54.3.6.04.3.06.3.06.17v.12l.68 15.66.34 1.02.57.9.68.7.86.6.98.43.97.24 1.1-.05.96-.24h.23l2.1-.53 1.8-1.3.16-.2 1.2-1.85.47-2.15 1.55-12.37v-.3l.92-3 1.72-.83h.1l-.28-.48-.34-.42-1.1-1.5-.8-1.6-.28-.6-.46-.8-2-3.8-1.84-5.27-.12-2.27.23-1.3.52-.9.46-.6 1.56-.9 2.12-.42 2.7.07-.7-1.67-1.03-2.1-1.3-1.9-1.5-1.8-1.56-1.44-1.96-1.43-2.18-1.14-.8-.37-1.95-.6-2-.35-2-.12h-.53zm-1.6 35.03l-.35.2-.4.35h.05l-.57.65-.4.48-.4.54-1.44 1.14-2.8.77-.8.18-.82.43.75.42.8.3.5.18 2 .18 1.97-.35 2.06-1.02 1.6-1.6.18-.73-.05-.78-.4-.65-.57-.48-.12-.07-.4-.12zM186.5 486.5l-2.05.3-2 .6-1.85 1-1.32 1.15-1.32 1.9-1.03 3-.34 5.44 3.1 14.1 2.97 7.78 2.06 3.28 1.04.96.7.3 1.48-.07 1.5-1.25 1.77-2.16 1.9-2.1 1.25-1.36-.4-.36-.4-.36-1.26-1.62-.85-1.97-.35-1.97.06-2.03.06-.24.17-1.97.05-2.03v-1.97l-.12-2.03v-.18l.86-6.52 1.83-4.66 2.18-2.93.18-.17.23-.18-1.08-.36-1.95-.55-2-.35-2.02-.3-2-.12zm36 34.8l-.24.05-1.2.66-.4 2.26.1.06 1.56.3 2 .06 2.02-.3 1.9-.6 1.65-.9 1.37-1.25h-.34l-.35.06-1.55.4-2 .18-2-.23-1.97-.6-.17-.12-.18-.12zm-26.06-20.16l-1.95.72-1.85 1.08v.36l.12 2.03v1.98l-.12 1.97-.17 1.98-.06 1.73.35 1.73.7 1.6 1.02 1.44 1.02.9 1.2.66 1.27.42 1.37.1.4-1.36.46-1.32.17-.36.23-.65.34-.72.86-2.14.63-3.47-.68-6.4-.23-.9-.58-.78-.74-.6-.86-.3h-.8zm15.66-14.82l1.6.78 2.14 1.3 1.9 1.56 1.77 1.74.06.12 1.38 1.85 1.2 1.9.93 2.05.74 2.15v.24l-.05.23v1.67l-.23 1.67-.23 1.38-.12 1.37.06 1.56.17 1.55.18.72.17 2.03-.17 2.04-.52 1.97-.8 1.9.17.24.23.24.18.24 6.82-15.25 1.38-6.15.06-3.65-.4-1.5-.46-.77-.92-1.08-3.1-2.5-3.73-1.62-4.5-.72zm6.26 14.4l-.98.48-.74.66-.12.18-.28.72-.18 1.07.3 2.28 3.55 7.96.53.9.28.6.3.7.4.66.46-1.25.46-1.97.06-2.03-.23-2.04-.18-1.6-.05-1.68.1-1.5.18-1.43.18-1.38.1-1.38-1.02-.1-1.03-.07h-1.1z" stroke="#000" stroke-opacity="0" fill="#fff"/><path d="M268.77 514.6l-.38 7.22 2.88 3 6.2-.43.84-.05 1.68 4.23v1.33l-4.9 4.5-.04 4.23 4.7 4.14.24.2v1.32l-1.77 4.23-7.1-.38-2.92 2.95.47 6.33.05.86-4.2 1.7h-1.3l-4.38-5-4.1-.05-4.1 4.8-.2.25h-1.25l-4.2-1.8.4-7.25-2.88-3-6.24.43-.8.1-2.1-5.24 5.32-4.85v-4.2L234 530l-.6-.56 2.13-5.2 7.1.44 2.92-3-.42-6.33-.04-.8 5.12-2.15 4.7 5.42h4.15l4.06-4.8.56-.62zm-13.33 10.32l-2.8.76-2.56 1.47-2.1 2.1-1.5 2.66-.8 2.82-.03 3.05.74 3 1.48 2.62 2.1 2.13 2.52 1.52.14.05 2.8.76h2.9l2.83-.76 2.56-1.48 2.1-2.1 1.5-2.66.78-2.76.06-3.04-.8-3-1.44-2.67-2.1-2.15-2.5-1.52-.2-.05-2.8-.76z" stroke="#000" stroke-opacity="0" fill="#a0a1a2"/><use xlink:href="#l" transform="matrix(1,0,0,1,130,569) translate(12.400000000000006 14.4)"/><use xlink:href="#m" transform="matrix(1,0,0,1,130,569) translate(114.7 14.4)"/><use xlink:href="#n" transform="matrix(1,0,0,1,130,569) translate(45.099999999999994 36)"/><use xlink:href="#o" transform="matrix(1,0,0,1,130,569) translate(91 36)"/><path d="M640 346a6 6 0 0 1 6-6h148a6 6 0 0 1 6 6v108a6 6 0 0 1-6 6H646a6 6 0 0 1-6-6z" stroke="#282c33" stroke-width="2" fill="#fff"/><use xlink:href="#p" transform="matrix(1,0,0,1,652,352) translate(15.561728395061735 38.77777777777778)"/><use xlink:href="#q" transform="matrix(1,0,0,1,652,352) translate(14.388888888888893 65.44444444444446)"/><path d="M980 346a6 6 0 0 1 6-6h148a6 6 0 0 1 6 6v108a6 6 0 0 1-6 6H986a6 6 0 0 1-6-6z" stroke="#282c33" stroke-width="2" fill="#fff"/><use xlink:href="#r" transform="matrix(1,0,0,1,992,352) translate(30.65432098765433 38.77777777777778)"/><use xlink:href="#s" transform="matrix(1,0,0,1,992,352) translate(6.456790123456791 65.44444444444446)"/><path d="M-75.4-116h199.02" stroke="#3a414a" fill="none"/><path d="M-75.4-115.53h-.5v-.94h.5z" stroke="#3a414a" stroke-width=".05" fill="#3a414a"/><path d="M138.38-116l-14.26 4.64v-9.28z" stroke="#3a414a" fill="#3a414a"/><path d="M252.7 80h90.92" stroke="#3a414a" fill="none"/><path d="M252.7 80.47h-.5v-.94h.5z" stroke="#3a414a" stroke-width=".05" fill="#3a414a"/><path d="M358.38 80l-14.26 4.64v-9.28z" stroke="#3a414a" fill="#3a414a"/><path d="M340-174a6 6 0 0 1 6-6h148a6 6 0 0 1 6 6v108a6 6 0 0 1-6 6H346a6 6 0 0 1-6-6z" stroke="#282c33" stroke-width="2" fill="#fff"/><use xlink:href="#t" transform="matrix(1,0,0,1,352,-168) translate(38.00000000000001 39.111111111111114)"/><use xlink:href="#u" transform="matrix(1,0,0,1,352,-168) translate(-5.981481481481467 65.77777777777777)"/><path d="M420 19.5v-62.12" stroke="#3a414a" fill="none"/><path d="M420.48 20h-.96v-.5h.96z" stroke="#3a414a" stroke-width=".05" fill="#3a414a"/><path d="M420-57.38l4.63 14.26h-9.26z" stroke="#3a414a" fill="#3a414a"/><path d="M252.7-120h69.92" stroke="#3a414a" fill="none"/><path d="M252.7-119.53h-.5v-.94h.5z" stroke="#3a414a" stroke-width=".05" fill="#3a414a"/><path d="M337.38-120l-14.26 4.64v-9.28z" stroke="#3a414a" fill="#3a414a"/><path d="M501.5-120h142.12" stroke="#3a414a" fill="none"/><path d="M501.5-119.53h-.5v-.94h.5z" stroke="#3a414a" stroke-width=".05" fill="#3a414a"/><path d="M658.38-120l-14.26 4.64v-9.28z" stroke="#3a414a" fill="#3a414a"/><path d="M199.47 255.57h-.94V165h.94zm0-107.57h-.94v-7.6h.94z" stroke="#3a414a" stroke-width=".05" fill="#3a414a"/><path d="M199.47 140.4h-.94v-.5h.94z" fill="#3a414a"/><path stroke="#3a414a" stroke-width=".05" fill="#3a414a"/><path d="M199 270.34l-4.63-14.26h9.26z" fill="#3a414a"/><path d="M199 271.88l-5.3-16.28h10.6zm-3.98-15.33L199 268.8l3.98-12.25zM440.6 299.6l1 .24.94.4.87.52.78.66.66.77.53.86.4.94.23 1 .07.98v88l.07.88.2.85.34.8.45.75.56.66.65.57.74.45.8.33.84.2.88.07h171v.96H451.58l-1-.08-.98-.24-.94-.4-.87-.52-.78-.66-.66-.77-.53-.86-.4-.94-.23-1-.07-.98v-88l-.07-.88-.2-.85-.34-.8-.45-.75-.56-.66-.65-.57-.74-.45-.8-.33-.84-.2-.88-.07H252.7v-.96h186.92z" stroke="#3a414a" stroke-width=".05" fill="#3a414a"/><path d="M252.7 300.48h-.5v-.96h.5z" fill="#3a414a"/><path stroke="#3a414a" stroke-width=".05" fill="#3a414a"/><path d="M637.38 400l-14.26 4.63v-9.26z" fill="#3a414a"/><path d="M638.92 400l-16.28 5.3v-10.6zm-15.33 3.98l12.25-3.98-12.26-3.98z" stroke="#3a414a" stroke-width=".05" fill="#3a414a"/><path d="M250.75 500h187.87a6 6 0 0 0 6-6v-88a6 6 0 0 1 6-6h172" stroke="#3a414a" fill="none"/><path d="M250.76 500.48h-.5v-.96h.5z" stroke="#3a414a" stroke-width=".05" fill="#3a414a"/><path d="M637.38 400l-14.26 4.63v-9.26z" stroke="#3a414a" fill="#3a414a"/><path d="M801.5 400h161.12" stroke="#3a414a" fill="none"/><path d="M801.5 400.48h-.5v-.96h.5z" stroke="#3a414a" stroke-width=".05" fill="#3a414a"/><path d="M977.38 400l-14.26 4.63v-9.26z" stroke="#3a414a" fill="#3a414a"/><path d="M720.48 322.62h-.96V-31h.96zm0-374.62h-.96v-7.5h.96z" stroke="#3a414a" stroke-width=".05" fill="#3a414a"/><path d="M720.48-59.5h-.96v-.5h.96z" fill="#3a414a"/><path stroke="#3a414a" stroke-width=".05" fill="#3a414a"/><path d="M720 337.38l-4.63-14.26h9.26z" fill="#3a414a"/><path d="M720 338.92l-5.3-16.28h10.6zm-3.98-15.33l3.98 12.25 3.98-12.26z" stroke="#3a414a" stroke-width=".05" fill="#3a414a"/><path d="M1060 338.5V204.38" stroke="#3a414a" fill="none"/><path d="M1060.47 339h-.94v-.5h.94z" stroke="#3a414a" stroke-width=".05" fill="#3a414a"/><path d="M1060 189.62l4.63 14.26h-9.27z" stroke="#3a414a" fill="#3a414a"/><g filter="url(#v)"><path d="M1016 62a2 2 0 0 1 2-2h84a2 2 0 0 1 2 2v124a2 2 0 0 1-2 2h-84a2 2 0 0 1-2-2z" fill="#fff"/><path d="M1072 101c2.5 0 4.6-.88 6.36-2.64 1.76-1.75 2.64-3.87 2.64-6.36 0-2.5-.88-4.6-2.64-6.36-1.75-1.76-3.87-2.64-6.36-2.64-2.5 0-4.6.88-6.36 2.64-1.76 1.75-2.64 3.87-2.64 6.36 0 2.5.88 4.6 2.64 6.36 1.75 1.76 3.87 2.64 6.36 2.64zm-24 0c2.5 0 4.6-.88 6.36-2.64 1.76-1.75 2.64-3.87 2.64-6.36 0-2.5-.88-4.6-2.64-6.36-1.75-1.76-3.87-2.64-6.36-2.64-2.5 0-4.6.88-6.36 2.64-1.76 1.75-2.64 3.87-2.64 6.36 0 2.5.88 4.6 2.64 6.36 1.75 1.76 3.87 2.64 6.36 2.64zm0 6c-7 0-21 3.5-21 10.5v7.5h42v-7.5c0-7-14-10.5-21-10.5zm24 0c-.87 0-1.86.06-2.9.15 3.47 2.52 5.9 5.9 5.9 10.35v7.5h18v-7.5c0-7-14-10.5-21-10.5zm0 0" fill="#757575"/><use xlink:href="#w" transform="matrix(1,0,0,1,1016,141) translate(27.0134736328125 28.05751953125)"/></g><path d="M-108.7 166.62h-14.46v-3.37h11.13v-.1c0-5.1-3.2-9.37-8.07-10.8-2.42 1.08-4.9 1.08-7.36 0-1.13.33-2.06.77-3.05 1.47l-1.9-2.83c1.5-1.04 2.93-1.7 4.7-2.14l.65-.14.57.3c1.75.95 3.67.95 5.4 0l.58-.3.64.14c6.66 1.63 11.17 7.38 11.17 14.25z" stroke="#fff" stroke-opacity="0" fill="#d6242d"/><path d="M-123.8 153.1c-1.46 0-2.72-.33-4-1.04-4.1-2.2-5.58-7.32-3.36-11.4 2.2-4.07 7.3-5.57 11.37-3.35 4.1 2.23 5.58 7.34 3.37 11.42-.8 1.48-1.86 2.54-3.36 3.34-1.26.7-2.52 1.03-4 1.03zm0-13.25c-2.73 0-4.98 2.2-5.02 4.96.02 1.87.98 3.43 2.62 4.3 1.55.86 3.28.86 4.82 0 1.64-.87 2.58-2.45 2.58-4.3-.03-2.74-2.25-4.94-5-4.95zM-125.9 174.97h-41.3v-4.2c0-9.38 6.15-17.25 15.24-19.46l.67-.16.54.3c2.7 1.5 5.7 1.5 8.4 0l.57-.28.63.15c9.1 2.2 15.3 10.1 15.3 19.48zm-37.96-3.36h34.6v-.82c0-7.6-4.84-14.02-12.15-16.06-3.4 1.57-6.92 1.57-10.3 0-7.33 2.04-12.16 8.45-12.16 16.06z" stroke="#fff" stroke-opacity="0" fill="#d6242d"/><path d="M-146.6 155.83c-1.97 0-3.64-.43-5.37-1.38-5.4-2.97-7.34-9.74-4.38-15.14 2.95-5.38 9.7-7.34 15.1-4.38 5.4 2.97 7.35 9.72 4.4 15.1-1.08 1.97-2.46 3.36-4.4 4.43-1.73.93-3.38 1.38-5.34 1.38zm0-18.75c-4.26 0-7.73 3.44-7.75 7.72-.02 2.87 1.44 5.34 3.98 6.7 2.43 1.32 5.1 1.32 7.52 0 2.54-1.35 4-3.83 4-6.7 0-4.28-3.5-7.72-7.74-7.72z" stroke="#fff" stroke-opacity="0" fill="#d6242d"/><path d="M-97.95 188.7h-80V120h80zm-76.64-3.37h73.3v-61.96h-73.3z" stroke="#fff" stroke-opacity="0" fill="#d6242d"/><use xlink:href="#x" transform="matrix(1,0,0,1,-207.95,197.7) translate(35.46296296296296 17.77777777777778)"/><use xlink:href="#y" transform="matrix(1,0,0,1,-207.95,197.7) translate(37.31481481481482 44.44444444444444)"/><path d="M-75.4-116H26.05a6 6 0 0 1 6 6V74a6 6 0 0 0 6 6h85.57" stroke="#3a414a" fill="none"/><path d="M-75.4-115.53h-.5v-.94h.5z" stroke="#3a414a" stroke-width=".05" fill="#3a414a"/><path d="M138.38 80l-14.26 4.64v-9.28z" stroke="#3a414a" fill="#3a414a"/><path d="M-137.95 119.5V-3.62" stroke="#3a414a" fill="none"/><path d="M-137.47 120h-.96v-.5h.96z" stroke="#3a414a" stroke-width=".05" fill="#3a414a"/><path d="M-137.95-18.38l4.63 14.26h-9.27z" stroke="#3a414a" fill="#3a414a"/><path d="M180-46a6 6 0 0 1 6-6h228a6 6 0 0 1 6 6v78a6 6 0 0 1-6 6H186a6 6 0 0 1-6-6z" stroke="#000" stroke-opacity="0" stroke-width="2" fill="#fff" fill-opacity="0"/><use xlink:href="#z" transform="matrix(1,0,0,1,185,-47) translate(57.68518518518519 45.27777777777778)"/><use xlink:href="#A" transform="matrix(1,0,0,1,185,-47) translate(129.10493827160494 45.27777777777778)"/><path d="M458.32-427.85H381.7c-.88 0-1.68-.76-1.68-1.7v-8h3.44v6.3h73.1v-14.17H405.6v-3.4h52.72c.88 0 1.68.75 1.68 1.7v17.57c0 .94-.8 1.7-1.68 1.7zM458.3-403.93h-3.4v-3.4h1.7v-1.7h3.4v3.4c0 .94-.76 1.7-1.7 1.7zM451.73-403.93h-6.35v-3.4h6.35zm-9.52 0h-6.33v-3.4h6.34zm-9.5 0h-6.35v-3.4h6.35zm-9.52 0h-6.34v-3.4h6.34zm-9.52 0h-6.34v-3.4h6.34zm-9.5 0h-6.3v-3.4h6.35zm-9.53 0h-6.34v-3.4h6.33zM385.12-403.93h-3.4c-.94 0-1.7-.76-1.7-1.7v-3.4h3.4v1.7h1.7zM380.02-417.1h3.4v5.38h-3.4v-5.38zM383.42-419.77h-3.4v-3.4c0-.94.76-1.7 1.7-1.7h3.4v3.4h-1.7zM451.73-421.47h-6.35v-3.4h6.35zm-9.52 0h-6.33v-3.4h6.28zm-9.5 0h-6.35v-3.4h6.35zm-9.52 0h-6.34v-3.4h6.34zm-9.52 0h-6.34v-3.4h6.34zm-9.5 0h-6.3v-3.4h6.35zm-9.53 0h-6.34v-3.4h6.33zM460-419.77h-3.4v-1.7h-1.7v-3.4h3.4c.94 0 1.7.75 1.7 1.7zM456.6-417.1h3.4v5.38h-3.4v-5.38zM458.3-380h-3.4v-3.4h1.7v-1.7h3.4v3.4c0 .94-.76 1.7-1.7 1.7zM451.73-380h-6.35v-3.4h6.35zm-9.52 0h-6.33v-3.4h6.34zm-9.5 0h-6.35v-3.4h6.35zm-9.52 0h-6.34v-3.4h6.34zm-9.52 0h-6.34v-3.4h6.34zm-9.5 0h-6.3v-3.4h6.35zm-9.53 0h-6.34v-3.4h6.33zM385.12-380h-3.4c-.94 0-1.7-.76-1.7-1.7v-3.4h3.4v1.7h1.7zM380.02-393.15h3.4v5.37h-3.4v-5.38zM383.42-395.84h-3.4v-3.4c0-.95.76-1.7 1.7-1.7h3.4v3.4h-1.7zM451.73-397.55h-6.35v-3.4h6.35zm-9.52 0h-6.33v-3.4h6.28zm-9.5 0h-6.35v-3.4h6.35zm-9.52 0h-6.34v-3.4h6.34zm-9.52 0h-6.34v-3.4h6.34zm-9.5 0h-6.3v-3.4h6.35zm-9.53 0h-6.34v-3.4h6.33zM460-395.84h-3.4v-1.7h-1.7v-3.4h3.4c.94 0 1.7.75 1.7 1.7zM456.6-393.15h3.4v5.37h-3.4v-5.38z" stroke="#fff" stroke-opacity="0" fill="#cd2264"/><path d="M407.8-432.6v-11.05h6.8v1.3h-5.17v3.42h4.38v1.3h-4.37v3.75h5.24v1.3zM425.96-432.6v-8.7l-3.1 5.87h-1.5l-3.05-5.86v8.7h-1.5v-11.05h1.83l3.57 6.8 3.56-6.8h1.7v11.05zM437.2-432.6l-1.03-2.93h-4.56l-.98 2.93h-1.7l4.1-11.05h1.7l4.08 11.05zm-5.1-4.15h3.7l-1.9-5.36zM440.43-432.6v-11.05h1.7v11.05zM444.82-432.6v-11.05h1.7v9.72h5.14v1.33zM391.3-437.44c-6.22 0-11.3-5.03-11.3-11.25s5.03-11.3 11.26-11.3c6.23 0 11.3 5.03 11.3 11.26v.05c0 6.2-5.05 11.26-11.25 11.26zm0-19.13h-.02c-4.35 0-7.87 3.52-7.87 7.88 0 4.36 3.53 7.88 7.88 7.88 4.36 0 7.88-3.52 7.88-7.88 0-4.35-3.52-7.87-7.86-7.87z" stroke="#fff" stroke-opacity="0" fill="#cd2264"/><path d="M381.8-447.56h76.5V-380h-76.5v-67.56z" stroke="#fff" stroke-opacity="0" stroke-width=".38" fill="#fff" fill-opacity="0"/><g><use xlink:href="#B" transform="matrix(1,0,0,1,350,-371) translate(42.31481481481482 17.77777777777778)"/><use xlink:href="#C" transform="matrix(1,0,0,1,350,-371) translate(15.185185185185176 44.44444444444444)"/></g><path d="M300-294a6 6 0 0 1 6-6h228a6 6 0 0 1 6 6v51.33a6 6 0 0 1-6 6H306a6 6 0 0 1-6-6z" stroke="#000" stroke-opacity="0" stroke-width="2" fill="#fff" fill-opacity="0"/><g><use xlink:href="#D" transform="matrix(1,0,0,1,305,-295) translate(23.179012345679013 31.27777777777778)"/><use xlink:href="#E" transform="matrix(1,0,0,1,305,-295) translate(113.30246913580247 31.27777777777778)"/><use xlink:href="#F" transform="matrix(1,0,0,1,305,-295) translate(139.16666666666666 31.27777777777778)"/></g><path d="M420.48-300.5h-.96v-23.83h.96z" stroke="#3a414a" stroke-width=".05" fill="#3a414a"/><path d="M420.48-300h-.96v-.5h.96z" fill="#3a414a"/><path stroke="#3a414a" stroke-width=".05" fill="#3a414a"/><path d="M422.07-372h-4.14l2.07-6.38z" fill="#3a414a"/><path d="M422.57-372h-1l-1.57-4.85-1.57 4.85h-1l2.57-7.92z" stroke="#3a414a" stroke-width=".05" fill="#3a414a"/><path d="M420-181.5v-38.78" stroke="#3a414a" fill="none"/><path d="M420.48-181h-.96v-.5h.96z" stroke="#3a414a" stroke-width=".05" fill="#3a414a"/><path d="M420-235.05l4.63 14.27h-9.26z" stroke="#3a414a" fill="#3a414a"/><path d="M80-230.67a6 6 0 0 1 6-6h468a6 6 0 0 1 6 6V214a6 6 0 0 1-6 6H86a6 6 0 0 1-6-6z" stroke="#282c33" stroke-width="2" fill-opacity="0"/><defs><linearGradient gradientUnits="userSpaceOnUse" id="a" x1="660" y1="-60" x2="780" y2="-180"><stop offset="0%" stop-color="#4d27a8"/><stop offset="100%" stop-color="#a166ff"/></linearGradient><path d="M140-251c81 0 123 46 123 126C263-46 219 4 140 4 59 4 17-45 17-125s42-126 123-126zm0 227c63 0 89-41 89-101s-29-99-89-99c-61 0-89 39-89 99S79-25 140-24" id="G"/><path d="M115-194c55 1 70 41 70 98S169 2 115 4C84 4 66-9 55-30l1 105H24l-1-265h31l2 30c10-21 28-34 59-34zm-8 174c40 0 45-34 45-75s-6-73-45-74c-42 0-51 32-51 76 0 43 10 73 51 73" id="H"/><path d="M100-194c63 0 86 42 84 106H49c0 40 14 67 53 68 26 1 43-12 49-29l28 8c-11 28-37 45-77 45C44 4 14-33 15-96c1-61 26-98 85-98zm52 81c6-60-76-77-97-28-3 7-6 17-6 28h103" id="I"/><path d="M117-194c89-4 53 116 60 194h-32v-121c0-31-8-49-39-48C34-167 62-67 57 0H25l-1-190h30c1 10-1 24 2 32 11-22 29-35 61-36" id="J"/><path d="M185-189c-5-48-123-54-124 2 14 75 158 14 163 119 3 78-121 87-175 55-17-10-28-26-33-46l33-7c5 56 141 63 141-1 0-78-155-14-162-118-5-82 145-84 179-34 5 7 8 16 11 25" id="K"/><path d="M141-36C126-15 110 5 73 4 37 3 15-17 15-53c-1-64 63-63 125-63 3-35-9-54-41-54-24 1-41 7-42 31l-33-3c5-37 33-52 76-52 45 0 72 20 72 64v82c-1 20 7 32 28 27v20c-31 9-61-2-59-35zM48-53c0 20 12 33 32 33 41-3 63-29 60-74-43 2-92-5-92 41" id="L"/><path d="M114-163C36-179 61-72 57 0H25l-1-190h30c1 12-1 29 2 39 6-27 23-49 58-41v29" id="M"/><path d="M96-169c-40 0-48 33-48 73s9 75 48 75c24 0 41-14 43-38l32 2c-6 37-31 61-74 61-59 0-76-41-82-99-10-93 101-131 147-64 4 7 5 14 7 22l-32 3c-4-21-16-35-41-35" id="N"/><path d="M106-169C34-169 62-67 57 0H25v-261h32l-1 103c12-21 28-36 61-36 89 0 53 116 60 194h-32v-121c2-32-8-49-39-48" id="O"/><g id="b"><use transform="matrix(0.05,0,0,0.05,0,0)" xlink:href="#G"/><use transform="matrix(0.05,0,0,0.05,14,0)" xlink:href="#H"/><use transform="matrix(0.05,0,0,0.05,24,0)" xlink:href="#I"/><use transform="matrix(0.05,0,0,0.05,34,0)" xlink:href="#J"/><use transform="matrix(0.05,0,0,0.05,44,0)" xlink:href="#K"/><use transform="matrix(0.05,0,0,0.05,56,0)" xlink:href="#I"/><use transform="matrix(0.05,0,0,0.05,66,0)" xlink:href="#L"/><use transform="matrix(0.05,0,0,0.05,76,0)" xlink:href="#M"/><use transform="matrix(0.05,0,0,0.05,81.95,0)" xlink:href="#N"/><use transform="matrix(0.05,0,0,0.05,90.95,0)" xlink:href="#O"/></g><linearGradient gradientUnits="userSpaceOnUse" id="c" x1="360" y1="140" x2="480" y2="20"><stop offset="0%" stop-color="#055f4e"/><stop offset="100%" stop-color="#56c0a7"/></linearGradient><path d="M127-220V0H93v-220H8v-28h204v28h-85" id="P"/><path d="M141 0L90-78 38 0H4l68-98-65-92h35l48 74 47-74h35l-64 92 68 98h-35" id="Q"/><path d="M59-47c-2 24 18 29 38 22v24C64 9 27 4 27-40v-127H5v-23h24l9-43h21v43h35v23H59v120" id="R"/><g id="d"><use transform="matrix(0.05,0,0,0.05,0,0)" xlink:href="#P"/><use transform="matrix(0.05,0,0,0.05,8.950000000000001,0)" xlink:href="#I"/><use transform="matrix(0.05,0,0,0.05,18.950000000000003,0)" xlink:href="#Q"/><use transform="matrix(0.05,0,0,0.05,27.950000000000003,0)" xlink:href="#R"/><use transform="matrix(0.05,0,0,0.05,32.95,0)" xlink:href="#M"/><use transform="matrix(0.05,0,0,0.05,38.900000000000006,0)" xlink:href="#L"/><use transform="matrix(0.05,0,0,0.05,48.900000000000006,0)" xlink:href="#N"/><use transform="matrix(0.05,0,0,0.05,57.900000000000006,0)" xlink:href="#R"/></g><path d="M63-220v92h138v28H63V0H30v-248h175v28H63" id="S"/><path d="M30-248c87 1 191-15 191 75 0 78-77 80-158 76V0H30v-248zm33 125c57 0 124 11 124-50 0-59-68-47-124-48v98" id="T"/><g id="e"><use transform="matrix(0.05,0,0,0.05,0,0)" xlink:href="#K"/><use transform="matrix(0.05,0,0,0.05,12,0)" xlink:href="#S"/><use transform="matrix(0.05,0,0,0.05,22.950000000000003,0)" xlink:href="#P"/><use transform="matrix(0.05,0,0,0.05,33.900000000000006,0)" xlink:href="#T"/></g><path d="M212-179c-10-28-35-45-73-45-59 0-87 40-87 99 0 60 29 101 89 101 43 0 62-24 78-52l27 14C228-24 195 4 139 4 59 4 22-46 18-125c-6-104 99-153 187-111 19 9 31 26 39 46" id="U"/><path d="M137 0h-34L2-248h35l83 218 83-218h36" id="V"/><g id="f"><use transform="matrix(0.05,0,0,0.05,0,0)" xlink:href="#U"/><use transform="matrix(0.05,0,0,0.05,12.950000000000001,0)" xlink:href="#K"/><use transform="matrix(0.05,0,0,0.05,24.950000000000003,0)" xlink:href="#V"/></g><path d="M30-248c118-7 216 8 213 122C240-48 200 0 122 0H30v-248zM63-27c89 8 146-16 146-99s-60-101-146-95v194" id="W"/><path d="M205 0l-28-72H64L36 0H1l101-248h38L239 0h-34zm-38-99l-47-123c-12 45-31 82-46 123h93" id="X"/><g id="g"><use transform="matrix(0.05,0,0,0.05,0,0)" xlink:href="#W"/><use transform="matrix(0.05,0,0,0.05,12.950000000000001,0)" xlink:href="#X"/><use transform="matrix(0.05,0,0,0.05,23.6,0)" xlink:href="#P"/><use transform="matrix(0.05,0,0,0.05,33.2,0)" xlink:href="#X"/></g><path d="M233-177c-1 41-23 64-60 70L243 0h-38l-65-103H63V0H30v-248c88 3 205-21 203 71zM63-129c60-2 137 13 137-47 0-61-80-42-137-45v92" id="Y"/><path d="M30 0v-248h187v28H63v79h144v27H63v87h162V0H30" id="Z"/><path d="M232-93c-1 65-40 97-104 97C67 4 28-28 28-90v-158h33c8 89-33 224 67 224 102 0 64-133 71-224h33v155" id="aa"/><path d="M240 0l2-218c-23 76-54 145-80 218h-23L58-218 59 0H30v-248h44l77 211c21-75 51-140 76-211h43V0h-30" id="ab"/><g id="h"><use transform="matrix(0.05,0,0,0.05,0,0)" xlink:href="#Y"/><use transform="matrix(0.05,0,0,0.05,12.950000000000001,0)" xlink:href="#Z"/><use transform="matrix(0.05,0,0,0.05,24.950000000000003,0)" xlink:href="#K"/><use transform="matrix(0.05,0,0,0.05,36.95,0)" xlink:href="#aa"/><use transform="matrix(0.05,0,0,0.05,49.900000000000006,0)" xlink:href="#ab"/><use transform="matrix(0.05,0,0,0.05,64.85000000000001,0)" xlink:href="#Z"/><use transform="matrix(0.05,0,0,0.05,76.85000000000001,0)" xlink:href="#K"/></g><path d="M30 0v-248h33v221h125V0H30" id="ac"/><path d="M194 0L95-120 63-95V0H30v-248h33v124l119-124h40L117-140 236 0h-42" id="ad"/><path d="M33 0v-248h34V0H33" id="ae"/><path d="M160-131c35 5 61 23 61 61C221 17 115-2 30 0v-248c76 3 177-17 177 60 0 33-19 50-47 57zm-97-11c50-1 110 9 110-42 0-47-63-36-110-37v79zm0 115c55-2 124 14 124-45 0-56-70-42-124-44v89" id="af"/><g id="i"><use transform="matrix(0.05,0,0,0.05,0,0)" xlink:href="#ac"/><use transform="matrix(0.05,0,0,0.05,10,0)" xlink:href="#G"/><use transform="matrix(0.05,0,0,0.05,24,0)" xlink:href="#ad"/><use transform="matrix(0.05,0,0,0.05,36,0)" xlink:href="#ae"/><use transform="matrix(0.05,0,0,0.05,41,0)" xlink:href="#af"/><use transform="matrix(0.05,0,0,0.05,53,0)" xlink:href="#G"/><use transform="matrix(0.05,0,0,0.05,67,0)" xlink:href="#P"/><use transform="matrix(0.05,0,0,0.05,77.95,0)" xlink:href="#K"/></g><g id="j"><use transform="matrix(0.05,0,0,0.05,0,0)" xlink:href="#K"/><use transform="matrix(0.05,0,0,0.05,12,0)" xlink:href="#S"/><use transform="matrix(0.05,0,0,0.05,22.950000000000003,0)" xlink:href="#P"/><use transform="matrix(0.05,0,0,0.05,33.900000000000006,0)" xlink:href="#T"/></g><path fill="#3a414a" d="M30-248c118-7 216 8 213 122C240-48 200 0 122 0H30v-248zM63-27c89 8 146-16 146-99s-60-101-146-95v194" id="ag"/><path fill="#3a414a" d="M141-36C126-15 110 5 73 4 37 3 15-17 15-53c-1-64 63-63 125-63 3-35-9-54-41-54-24 1-41 7-42 31l-33-3c5-37 33-52 76-52 45 0 72 20 72 64v82c-1 20 7 32 28 27v20c-31 9-61-2-59-35zM48-53c0 20 12 33 32 33 41-3 63-29 60-74-43 2-92-5-92 41" id="ah"/><path fill="#3a414a" d="M59-47c-2 24 18 29 38 22v24C64 9 27 4 27-40v-127H5v-23h24l9-43h21v43h35v23H59v120" id="ai"/><path fill="#3a414a" d="M135-143c-3-34-86-38-87 0 15 53 115 12 119 90S17 21 10-45l28-5c4 36 97 45 98 0-10-56-113-15-118-90-4-57 82-63 122-42 12 7 21 19 24 35" id="aj"/><path fill="#3a414a" d="M106-169C34-169 62-67 57 0H25v-261h32l-1 103c12-21 28-36 61-36 89 0 53 116 60 194h-32v-121c2-32-8-49-39-48" id="ak"/><path fill="#3a414a" d="M114-163C36-179 61-72 57 0H25l-1-190h30c1 12-1 29 2 39 6-27 23-49 58-41v29" id="al"/><path fill="#3a414a" d="M100-194c63 0 86 42 84 106H49c0 40 14 67 53 68 26 1 43-12 49-29l28 8c-11 28-37 45-77 45C44 4 14-33 15-96c1-61 26-98 85-98zm52 81c6-60-76-77-97-28-3 7-6 17-6 28h103" id="am"/><g id="k"><use transform="matrix(0.06172839506172839,0,0,0.06172839506172839,0,0)" xlink:href="#ag"/><use transform="matrix(0.06172839506172839,0,0,0.06172839506172839,15.987654320987653,0)" xlink:href="#ah"/><use transform="matrix(0.06172839506172839,0,0,0.06172839506172839,28.333333333333332,0)" xlink:href="#ai"/><use transform="matrix(0.06172839506172839,0,0,0.06172839506172839,34.50617283950617,0)" xlink:href="#ah"/><use transform="matrix(0.06172839506172839,0,0,0.06172839506172839,46.85185185185185,0)" xlink:href="#aj"/><use transform="matrix(0.06172839506172839,0,0,0.06172839506172839,57.96296296296296,0)" xlink:href="#ak"/><use transform="matrix(0.06172839506172839,0,0,0.06172839506172839,70.30864197530865,0)" xlink:href="#ah"/><use transform="matrix(0.06172839506172839,0,0,0.06172839506172839,82.65432098765433,0)" xlink:href="#al"/><use transform="matrix(0.06172839506172839,0,0,0.06172839506172839,90.00000000000001,0)" xlink:href="#am"/></g><path d="M100-194c62-1 85 37 85 99 1 63-27 99-86 99S16-35 15-95c0-66 28-99 85-99zM99-20c44 1 53-31 53-75 0-43-8-75-51-75s-53 32-53 75 10 74 51 75" id="an"/><path d="M135-143c-3-34-86-38-87 0 15 53 115 12 119 90S17 21 10-45l28-5c4 36 97 45 98 0-10-56-113-15-118-90-4-57 82-63 122-42 12 7 21 19 24 35" id="ao"/><path d="M177-190C167-65 218 103 67 71c-23-6-38-20-44-43l32-5c15 47 100 32 89-28v-30C133-14 115 1 83 1 29 1 15-40 15-95c0-56 16-97 71-98 29-1 48 16 59 35 1-10 0-23 2-32h30zM94-22c36 0 50-32 50-73 0-42-14-75-50-75-39 0-46 34-46 75s6 73 46 73" id="ap"/><path d="M140-251c81 0 123 46 123 126C263-53 228-8 163 1c7 30 30 48 69 40v23c-55 16-95-15-103-61C56-3 17-48 17-125c0-80 42-126 123-126zm0 227c63 0 89-41 89-101s-29-99-89-99c-61 0-89 39-89 99S79-25 140-24" id="aq"/><g id="l"><use transform="matrix(0.05,0,0,0.05,0,0)" xlink:href="#T"/><use transform="matrix(0.05,0,0,0.05,12,0)" xlink:href="#an"/><use transform="matrix(0.05,0,0,0.05,22,0)" xlink:href="#ao"/><use transform="matrix(0.05,0,0,0.05,31,0)" xlink:href="#R"/><use transform="matrix(0.05,0,0,0.05,36,0)" xlink:href="#ap"/><use transform="matrix(0.05,0,0,0.05,46,0)" xlink:href="#M"/><use transform="matrix(0.05,0,0,0.05,51.95,0)" xlink:href="#I"/><use transform="matrix(0.05,0,0,0.05,61.95,0)" xlink:href="#K"/><use transform="matrix(0.05,0,0,0.05,73.95,0)" xlink:href="#aq"/><use transform="matrix(0.05,0,0,0.05,87.95,0)" xlink:href="#ac"/></g><path d="M108 0H70L1-190h34L89-25l56-165h34" id="ar"/><g id="m"><use transform="matrix(0.05,0,0,0.05,0,0)" xlink:href="#K"/><use transform="matrix(0.05,0,0,0.05,12,0)" xlink:href="#I"/><use transform="matrix(0.05,0,0,0.05,22,0)" xlink:href="#M"/><use transform="matrix(0.05,0,0,0.05,27.950000000000003,0)" xlink:href="#ar"/><use transform="matrix(0.05,0,0,0.05,36.95,0)" xlink:href="#I"/><use transform="matrix(0.05,0,0,0.05,46.95,0)" xlink:href="#M"/></g><path d="M87 75C49 33 22-17 22-94c0-76 28-126 65-167h31c-38 41-64 92-64 168S80 34 118 75H87" id="as"/><path d="M84 4C-5 8 30-112 23-190h32v120c0 31 7 50 39 49 72-2 45-101 50-169h31l1 190h-30c-1-10 1-25-2-33-11 22-28 36-60 37" id="at"/><g id="n"><use transform="matrix(0.05,0,0,0.05,0,0)" xlink:href="#as"/><use transform="matrix(0.05,0,0,0.05,5.95,0)" xlink:href="#at"/><use transform="matrix(0.05,0,0,0.05,15.949999999999998,0)" xlink:href="#ao"/><use transform="matrix(0.05,0,0,0.05,24.95,0)" xlink:href="#I"/><use transform="matrix(0.05,0,0,0.05,34.95,0)" xlink:href="#M"/></g><path d="M33-261c38 41 65 92 65 168S71 34 33 75H2C39 34 66-17 66-93S39-220 2-261h31" id="au"/><g id="o"><use transform="matrix(0.05,0,0,0.05,0,0)" xlink:href="#W"/><use transform="matrix(0.05,0,0,0.05,12.950000000000001,0)" xlink:href="#L"/><use transform="matrix(0.05,0,0,0.05,22.950000000000003,0)" xlink:href="#R"/><use transform="matrix(0.05,0,0,0.05,27.950000000000003,0)" xlink:href="#L"/><use transform="matrix(0.05,0,0,0.05,37.95,0)" xlink:href="#au"/></g><path fill="#3a414a" d="M30 0v-248h187v28H63v79h144v27H63v87h162V0H30" id="av"/><path fill="#3a414a" d="M195 0l-74-108L45 0H8l94-129-87-119h37l69 98 67-98h37l-84 118L233 0h-38" id="aw"/><path fill="#3a414a" d="M30-248c87 1 191-15 191 75 0 78-77 80-158 76V0H30v-248zm33 125c57 0 124 11 124-50 0-59-68-47-124-48v98" id="ax"/><path fill="#3a414a" d="M233-177c-1 41-23 64-60 70L243 0h-38l-65-103H63V0H30v-248c88 3 205-21 203 71zM63-129c60-2 137 13 137-47 0-61-80-42-137-45v92" id="ay"/><path fill="#3a414a" d="M185-189c-5-48-123-54-124 2 14 75 158 14 163 119 3 78-121 87-175 55-17-10-28-26-33-46l33-7c5 56 141 63 141-1 0-78-155-14-162-118-5-82 145-84 179-34 5 7 8 16 11 25" id="az"/><g id="p"><use transform="matrix(0.06172839506172839,0,0,0.06172839506172839,0,0)" xlink:href="#av"/><use transform="matrix(0.06172839506172839,0,0,0.06172839506172839,14.814814814814813,0)" xlink:href="#aw"/><use transform="matrix(0.06172839506172839,0,0,0.06172839506172839,29.629629629629626,0)" xlink:href="#ax"/><use transform="matrix(0.06172839506172839,0,0,0.06172839506172839,44.44444444444444,0)" xlink:href="#ay"/><use transform="matrix(0.06172839506172839,0,0,0.06172839506172839,60.432098765432094,0)" xlink:href="#av"/><use transform="matrix(0.06172839506172839,0,0,0.06172839506172839,75.24691358024691,0)" xlink:href="#az"/><use transform="matrix(0.06172839506172839,0,0,0.06172839506172839,90.06172839506172,0)" xlink:href="#az"/></g><path fill="#3a414a" d="M160-131c35 5 61 23 61 61C221 17 115-2 30 0v-248c76 3 177-17 177 60 0 33-19 50-47 57zm-97-11c50-1 110 9 110-42 0-47-63-36-110-37v79zm0 115c55-2 124 14 124-45 0-56-70-42-124-44v89" id="aA"/><path fill="#3a414a" d="M205 0l-28-72H64L36 0H1l101-248h38L239 0h-34zm-38-99l-47-123c-12 45-31 82-46 123h93" id="aB"/><path fill="#3a414a" d="M212-179c-10-28-35-45-73-45-59 0-87 40-87 99 0 60 29 101 89 101 43 0 62-24 78-52l27 14C228-24 195 4 139 4 59 4 22-46 18-125c-6-104 99-153 187-111 19 9 31 26 39 46" id="aC"/><path fill="#3a414a" d="M194 0L95-120 63-95V0H30v-248h33v124l119-124h40L117-140 236 0h-42" id="aD"/><path fill="#3a414a" d="M190 0L58-211 59 0H30v-248h39L202-35l-2-213h31V0h-41" id="aE"/><g id="q"><use transform="matrix(0.06172839506172839,0,0,0.06172839506172839,0,0)" xlink:href="#aA"/><use transform="matrix(0.06172839506172839,0,0,0.06172839506172839,14.814814814814813,0)" xlink:href="#aB"/><use transform="matrix(0.06172839506172839,0,0,0.06172839506172839,29.629629629629626,0)" xlink:href="#aC"/><use transform="matrix(0.06172839506172839,0,0,0.06172839506172839,45.61728395061728,0)" xlink:href="#aD"/><use transform="matrix(0.06172839506172839,0,0,0.06172839506172839,60.43209876543209,0)" xlink:href="#av"/><use transform="matrix(0.06172839506172839,0,0,0.06172839506172839,75.2469135802469,0)" xlink:href="#aE"/><use transform="matrix(0.06172839506172839,0,0,0.06172839506172839,91.23456790123456,0)" xlink:href="#ag"/></g><path fill="#3a414a" d="M127-220V0H93v-220H8v-28h204v28h-85" id="aF"/><g id="r"><use transform="matrix(0.06172839506172839,0,0,0.06172839506172839,0,0)" xlink:href="#ay"/><use transform="matrix(0.06172839506172839,0,0,0.06172839506172839,15.987654320987653,0)" xlink:href="#av"/><use transform="matrix(0.06172839506172839,0,0,0.06172839506172839,30.80246913580247,0)" xlink:href="#aB"/><use transform="matrix(0.06172839506172839,0,0,0.06172839506172839,45.61728395061728,0)" xlink:href="#aC"/><use transform="matrix(0.06172839506172839,0,0,0.06172839506172839,61.60493827160493,0)" xlink:href="#aF"/></g><path fill="#3a414a" d="M63-220v92h138v28H63V0H30v-248h175v28H63" id="aG"/><path fill="#3a414a" d="M140-251c81 0 123 46 123 126C263-46 219 4 140 4 59 4 17-45 17-125s42-126 123-126zm0 227c63 0 89-41 89-101s-29-99-89-99c-61 0-89 39-89 99S79-25 140-24" id="aH"/><g id="s"><use transform="matrix(0.06172839506172839,0,0,0.06172839506172839,0,0)" xlink:href="#aG"/><use transform="matrix(0.06172839506172839,0,0,0.06172839506172839,13.518518518518517,0)" xlink:href="#ay"/><use transform="matrix(0.06172839506172839,0,0,0.06172839506172839,29.50617283950617,0)" xlink:href="#aH"/><use transform="matrix(0.06172839506172839,0,0,0.06172839506172839,46.79012345679012,0)" xlink:href="#aE"/><use transform="matrix(0.06172839506172839,0,0,0.06172839506172839,62.77777777777777,0)" xlink:href="#aF"/><use transform="matrix(0.06172839506172839,0,0,0.06172839506172839,76.29629629629629,0)" xlink:href="#av"/><use transform="matrix(0.06172839506172839,0,0,0.06172839506172839,91.1111111111111,0)" xlink:href="#aE"/><use transform="matrix(0.06172839506172839,0,0,0.06172839506172839,107.09876543209876,0)" xlink:href="#ag"/></g><g id="t"><use transform="matrix(0.06172839506172839,0,0,0.06172839506172839,0,0)" xlink:href="#ax"/><use transform="matrix(0.06172839506172839,0,0,0.06172839506172839,14.814814814814813,0)" xlink:href="#aH"/><use transform="matrix(0.06172839506172839,0,0,0.06172839506172839,32.09876543209876,0)" xlink:href="#az"/><use transform="matrix(0.06172839506172839,0,0,0.06172839506172839,46.91358024691357,0)" xlink:href="#aF"/></g><path fill="#3a414a" d="M33 0v-248h34V0H33" id="aI"/><path fill="#3a414a" d="M143 4C61 4 22-44 18-125c-5-107 100-154 193-111 17 8 29 25 37 43l-32 9c-13-25-37-40-76-40-61 0-88 39-88 99 0 61 29 100 91 101 35 0 62-11 79-27v-45h-74v-28h105v86C228-13 192 4 143 4" id="aJ"/><g id="u"><use transform="matrix(0.06172839506172839,0,0,0.06172839506172839,0,0)" xlink:href="#ax"/><use transform="matrix(0.06172839506172839,0,0,0.06172839506172839,14.814814814814813,0)" xlink:href="#ay"/><use transform="matrix(0.06172839506172839,0,0,0.06172839506172839,30.80246913580247,0)" xlink:href="#aH"/><use transform="matrix(0.06172839506172839,0,0,0.06172839506172839,48.08641975308642,0)" xlink:href="#aC"/><use transform="matrix(0.06172839506172839,0,0,0.06172839506172839,64.07407407407408,0)" xlink:href="#av"/><use transform="matrix(0.06172839506172839,0,0,0.06172839506172839,78.88888888888889,0)" xlink:href="#az"/><use transform="matrix(0.06172839506172839,0,0,0.06172839506172839,93.7037037037037,0)" xlink:href="#az"/><use transform="matrix(0.06172839506172839,0,0,0.06172839506172839,108.5185185185185,0)" xlink:href="#aI"/><use transform="matrix(0.06172839506172839,0,0,0.06172839506172839,114.69135802469134,0)" xlink:href="#aE"/><use transform="matrix(0.06172839506172839,0,0,0.06172839506172839,130.67901234567898,0)" xlink:href="#aJ"/></g><path d="M665-137c214 0 337-121 336-332v-987h193v990c-3 300-218 486-529 486-309 0-526-181-525-484v-992h190v986c-1 210 123 333 335 333" id="aK"/><path d="M538-131c121 0 232-49 232-156 0-50-20-88-56-117-73-60-334-92-420-143-92-55-162-110-162-238 0-190 192-317 400-317 223 0 414 129 413 338H759c0-108-110-186-227-186-119 0-215 53-215 159 0 45 18 78 53 101 76 52 331 90 416 139 98 57 169 115 169 251C955-92 760 20 538 20c-176 0-314-68-386-174-38-55-57-115-57-179h185c6 129 116 202 258 202" id="aL"/><path d="M599-131c141 0 220-65 285-146l113 88C906-50 770 20 589 20 281 21 93-214 93-545c0-223 93-397 233-485 74-48 154-72 240-72 300 2 449 218 445 537v77H278c0 197 129 357 321 357zm227-509c-3-180-88-310-260-310-170 0-264 140-282 310h542" id="aM"/><path d="M663-916c-163-27-288 18-338 148V0H140v-1082h180l3 125c61-97 147-145 258-145 36 0 63 5 82 14v172" id="aN"/><g id="w"><use transform="matrix(0.0065107421875,0,0,0.0065107421875,0,0)" xlink:href="#aK"/><use transform="matrix(0.0065107421875,0,0,0.0065107421875,8.646265625,0)" xlink:href="#aL"/><use transform="matrix(0.0065107421875,0,0,0.0065107421875,15.521609374999999,0)" xlink:href="#aM"/><use transform="matrix(0.0065107421875,0,0,0.0065107421875,22.5857646484375,0)" xlink:href="#aN"/><use transform="matrix(0.0065107421875,0,0,0.0065107421875,27.097708984375,0)" xlink:href="#aL"/></g><filter id="v" filterUnits="objectBoundingBox" x="-.02" y="0" width="1.03" height="1.02"><feOffset result="offOut" in="SourceAlpha" dy="1"/><feGaussianBlur result="blurOut" in="offOut" stdDeviation=".75"/><feColorMatrix result="colorOut" in="blurOut" values="0 0 0 0 0 0 0 0 0 0 0 0 0 0 0 0 0 0 0.4 0"/><feBlend in="SourceGraphic" in2="colorOut"/></filter><path fill="#3a414a" d="M100-194c62-1 85 37 85 99 1 63-27 99-86 99S16-35 15-95c0-66 28-99 85-99zM99-20c44 1 53-31 53-75 0-43-8-75-51-75s-53 32-53 75 10 74 51 75" id="aO"/><path fill="#3a414a" d="M115-194c55 1 70 41 70 98S169 2 115 4C84 4 66-9 55-30l1 105H24l-1-265h31l2 30c10-21 28-34 59-34zm-8 174c40 0 45-34 45-75s-6-73-45-74c-42 0-51 32-51 76 0 43 10 73 51 73" id="aP"/><path fill="#3a414a" d="M24 0v-261h32V0H24" id="aQ"/><g id="x"><use transform="matrix(0.06172839506172839,0,0,0.06172839506172839,0,0)" xlink:href="#ax"/><use transform="matrix(0.06172839506172839,0,0,0.06172839506172839,14.814814814814813,0)" xlink:href="#am"/><use transform="matrix(0.06172839506172839,0,0,0.06172839506172839,27.160493827160494,0)" xlink:href="#aO"/><use transform="matrix(0.06172839506172839,0,0,0.06172839506172839,39.50617283950617,0)" xlink:href="#aP"/><use transform="matrix(0.06172839506172839,0,0,0.06172839506172839,51.85185185185185,0)" xlink:href="#aQ"/><use transform="matrix(0.06172839506172839,0,0,0.06172839506172839,56.72839506172839,0)" xlink:href="#am"/></g><path fill="#3a414a" d="M117-194c89-4 53 116 60 194h-32v-121c0-31-8-49-39-48C34-167 62-67 57 0H25l-1-190h30c1 10-1 24 2 32 11-22 29-35 61-36" id="aR"/><path fill="#3a414a" d="M177-190C167-65 218 103 67 71c-23-6-38-20-44-43l32-5c15 47 100 32 89-28v-30C133-14 115 1 83 1 29 1 15-40 15-95c0-56 16-97 71-98 29-1 48 16 59 35 1-10 0-23 2-32h30zM94-22c36 0 50-32 50-73 0-42-14-75-50-75-39 0-46 34-46 75s6 73 46 73" id="aS"/><g id="y"><use transform="matrix(0.06172839506172839,0,0,0.06172839506172839,0,0)" xlink:href="#az"/><use transform="matrix(0.06172839506172839,0,0,0.06172839506172839,14.814814814814813,0)" xlink:href="#ai"/><use transform="matrix(0.06172839506172839,0,0,0.06172839506172839,20.98765432098765,0)" xlink:href="#al"/><use transform="matrix(0.06172839506172839,0,0,0.06172839506172839,28.33333333333333,0)" xlink:href="#aO"/><use transform="matrix(0.06172839506172839,0,0,0.06172839506172839,40.679012345679006,0)" xlink:href="#aR"/><use transform="matrix(0.06172839506172839,0,0,0.06172839506172839,53.02469135802468,0)" xlink:href="#aS"/></g><g id="z"><use transform="matrix(0.06172839506172839,0,0,0.06172839506172839,0,0)" xlink:href="#aC"/><use transform="matrix(0.06172839506172839,0,0,0.06172839506172839,15.987654320987653,0)" xlink:href="#aH"/><use transform="matrix(0.06172839506172839,0,0,0.06172839506172839,33.2716049382716,0)" xlink:href="#ay"/><use transform="matrix(0.06172839506172839,0,0,0.06172839506172839,49.25925925925925,0)" xlink:href="#aE"/></g><path fill="#3a414a" d="M153-248C145-148 188 4 80 4 36 3 13-21 6-62l32-5c4 25 16 42 43 43 27 0 39-20 39-49v-147H72v-28h81" id="aT"/><g id="A"><use transform="matrix(0.06172839506172839,0,0,0.06172839506172839,0,0)" xlink:href="#aT"/><use transform="matrix(0.06172839506172839,0,0,0.06172839506172839,11.11111111111111,0)" xlink:href="#aH"/><use transform="matrix(0.06172839506172839,0,0,0.06172839506172839,28.39506172839506,0)" xlink:href="#aA"/></g><path fill="#3a414a" d="M210-169c-67 3-38 105-44 169h-31v-121c0-29-5-50-35-48C34-165 62-65 56 0H25l-1-190h30c1 10-1 24 2 32 10-44 99-50 107 0 11-21 27-35 58-36 85-2 47 119 55 194h-31v-121c0-29-5-49-35-48" id="aU"/><path fill="#3a414a" d="M24-231v-30h32v30H24zM24 0v-190h32V0H24" id="aV"/><g id="B"><use transform="matrix(0.06172839506172839,0,0,0.06172839506172839,0,0)" xlink:href="#av"/><use transform="matrix(0.06172839506172839,0,0,0.06172839506172839,14.814814814814813,0)" xlink:href="#aU"/><use transform="matrix(0.06172839506172839,0,0,0.06172839506172839,33.2716049382716,0)" xlink:href="#ah"/><use transform="matrix(0.06172839506172839,0,0,0.06172839506172839,45.61728395061728,0)" xlink:href="#aV"/><use transform="matrix(0.06172839506172839,0,0,0.06172839506172839,50.49382716049382,0)" xlink:href="#aQ"/></g><path fill="#3a414a" d="M101-234c-31-9-42 10-38 44h38v23H63V0H32v-167H5v-23h27c-7-52 17-82 69-68v24" id="aW"/><path fill="#3a414a" d="M96-169c-40 0-48 33-48 73s9 75 48 75c24 0 41-14 43-38l32 2c-6 37-31 61-74 61-59 0-76-41-82-99-10-93 101-131 147-64 4 7 5 14 7 22l-32 3c-4-21-16-35-41-35" id="aX"/><g id="C"><use transform="matrix(0.06172839506172839,0,0,0.06172839506172839,0,0)" xlink:href="#aE"/><use transform="matrix(0.06172839506172839,0,0,0.06172839506172839,15.987654320987653,0)" xlink:href="#aO"/><use transform="matrix(0.06172839506172839,0,0,0.06172839506172839,28.333333333333332,0)" xlink:href="#ai"/><use transform="matrix(0.06172839506172839,0,0,0.06172839506172839,34.50617283950617,0)" xlink:href="#aV"/><use transform="matrix(0.06172839506172839,0,0,0.06172839506172839,39.382716049382715,0)" xlink:href="#aW"/><use transform="matrix(0.06172839506172839,0,0,0.06172839506172839,45.55555555555556,0)" xlink:href="#aV"/><use transform="matrix(0.06172839506172839,0,0,0.06172839506172839,50.4320987654321,0)" xlink:href="#aX"/><use transform="matrix(0.06172839506172839,0,0,0.06172839506172839,61.543209876543216,0)" xlink:href="#ah"/><use transform="matrix(0.06172839506172839,0,0,0.06172839506172839,73.8888888888889,0)" xlink:href="#ai"/><use transform="matrix(0.06172839506172839,0,0,0.06172839506172839,80.06172839506173,0)" xlink:href="#aV"/><use transform="matrix(0.06172839506172839,0,0,0.06172839506172839,84.93827160493828,0)" xlink:href="#aO"/><use transform="matrix(0.06172839506172839,0,0,0.06172839506172839,97.28395061728396,0)" xlink:href="#aR"/></g><path fill="#3a414a" d="M84 4C-5 8 30-112 23-190h32v120c0 31 7 50 39 49 72-2 45-101 50-169h31l1 190h-30c-1-10 1-25-2-33-11 22-28 36-60 37" id="aY"/><g id="D"><use transform="matrix(0.06172839506172839,0,0,0.06172839506172839,0,0)" xlink:href="#az"/><use transform="matrix(0.06172839506172839,0,0,0.06172839506172839,14.814814814814813,0)" xlink:href="#aY"/><use transform="matrix(0.06172839506172839,0,0,0.06172839506172839,27.160493827160494,0)" xlink:href="#aX"/><use transform="matrix(0.06172839506172839,0,0,0.06172839506172839,38.27160493827161,0)" xlink:href="#aX"/><use transform="matrix(0.06172839506172839,0,0,0.06172839506172839,49.38271604938272,0)" xlink:href="#am"/><use transform="matrix(0.06172839506172839,0,0,0.06172839506172839,61.7283950617284,0)" xlink:href="#aj"/><use transform="matrix(0.06172839506172839,0,0,0.06172839506172839,72.8395061728395,0)" xlink:href="#aj"/></g><g id="E"><use transform="matrix(0.06172839506172839,0,0,0.06172839506172839,0,0)" xlink:href="#aO"/><use transform="matrix(0.06172839506172839,0,0,0.06172839506172839,12.345679012345679,0)" xlink:href="#al"/></g><g id="F"><use transform="matrix(0.06172839506172839,0,0,0.06172839506172839,0,0)" xlink:href="#aG"/><use transform="matrix(0.06172839506172839,0,0,0.06172839506172839,13.518518518518517,0)" xlink:href="#ah"/><use transform="matrix(0.06172839506172839,0,0,0.06172839506172839,25.864197530864196,0)" xlink:href="#aV"/><use transform="matrix(0.06172839506172839,0,0,0.06172839506172839,30.74074074074074,0)" xlink:href="#aQ"/><use transform="matrix(0.06172839506172839,0,0,0.06172839506172839,35.617283950617285,0)" xlink:href="#aY"/><use transform="matrix(0.06172839506172839,0,0,0.06172839506172839,47.96296296296296,0)" xlink:href="#al"/><use transform="matrix(0.06172839506172839,0,0,0.06172839506172839,55.30864197530864,0)" xlink:href="#am"/></g></defs></g></svg>