<?xml version="1.0" encoding="utf-8" ?>
<svg xmlns="http://www.w3.org/2000/svg" xmlns:xlink="http://www.w3.org/1999/xlink" width="1311" height="731">
	<path transform="matrix(2.21903 0.704065 -1.02311 1.52706 268.054 0)" d="M163.673 66.4698C165.108 63.2609 166.728 59.5425 169.15 56.9542C169.138 57.0132 169.127 57.0724 169.114 57.1312C168.669 59.163 165.939 61.2807 166.774 63.3806C167.215 63.8716 167.575 64.1214 168.182 64.381C169.076 63.43 170.22 61.3972 171.406 60.9704C170.384 62.4006 169.286 63.8271 168.465 65.384C166.113 69.8429 164.11 77.2632 164.952 82.3731C165.644 86.5644 168.137 89.5631 171.508 91.9411C182.304 99.5562 211.776 99.234 225.72 100.347C233.005 100.963 240.27 101.799 247.505 102.854C253.043 103.649 258.73 104.411 264.099 106.021C268.535 107.351 272.228 109.579 276.277 111.726C276.357 111.714 276.436 111.704 276.515 111.691C278.683 111.35 280.875 110.193 282.894 109.342C286.386 107.87 289.944 106.452 293.349 104.788C296.713 103.145 299.956 101.236 303.357 99.6733C306.843 98.0721 310.447 96.7013 313.971 95.184L332.836 86.8515C336.506 85.2588 340.256 83.8425 343.91 82.2152L361.31 74.3321C363.54 73.3084 365.659 71.9612 367.955 71.0933C369.312 70.5804 371.329 69.8474 372.676 70.497C373.308 71.3978 373.179 72.5143 372.991 73.5433C372.801 74.578 372.485 75.6465 371.559 76.2516C370.143 77.1762 368.052 77.5788 366.465 78.2626C358.147 81.8471 349.755 85.0488 341.364 88.4425C337.236 90.1123 333.354 92.3094 329.273 94.0747C327.883 94.6763 326.355 94.8765 324.961 95.474C322.752 96.4215 320.658 97.666 318.468 98.6678C315.822 99.878 313.093 100.908 310.447 102.118C305.551 104.356 300.726 106.817 295.893 109.19C292.491 110.86 288.723 112.009 285.439 113.869C284.222 114.558 281.661 116.043 281.347 117.418C281.327 117.507 281.318 117.597 281.304 117.687L281.279 117.843C280.81 120.836 281.899 125.599 281.554 129.259C280.919 135.993 276.32 145.727 272.315 151.269C270.693 153.515 268.781 155.475 266.8 157.401C266.01 158.169 265.171 159.157 264.272 159.785C264.189 159.843 264.048 159.918 263.966 159.964L263.756 159.535C263.473 159.663 263.453 159.779 263.314 160.036C262.36 161.803 257.416 164.33 255.4 164.843C254.983 164.95 254.694 164.981 254.293 164.825L254.317 164.338C254.965 163.782 255.052 163.695 255.244 162.817C262.835 156.987 271.04 147.289 275.129 138.635C277.482 133.658 279.086 128.25 277.085 122.873C276.579 121.514 275.738 119.971 274.312 119.406C273.351 119.026 271.964 119.498 271.043 119.822C264.961 121.964 259.111 125.398 253.375 128.334L231.752 139.151C229.855 138.944 223.834 143.007 221.876 144.119L221.906 144.459L221.405 144.481L221.49 144.351C220.667 145.837 218.305 151.256 218.375 152.772C218.53 156.133 209.851 170.95 207.286 173.596C206.954 173.938 206.954 173.969 206.479 173.996C205.997 173.427 206.013 173.354 205.284 173.265C203.763 173.974 201.951 176.815 201.377 178.374C201.273 178.656 201.246 178.939 201.267 179.235L201.551 179.331C202.64 178.633 203.035 176.199 203.725 175.945C203.971 176.517 203.966 176.832 203.829 177.436C203.206 178.235 202.065 178.886 201.859 179.873C201.488 181.651 198.057 183.305 198.163 184.736C198.173 184.872 198.539 185.365 198.628 185.512C197.449 187.269 194.842 189.045 194.264 191.021L194.582 191.582C194.836 191.696 195.097 191.795 195.375 191.833C196.716 192.016 198.791 191.151 200.118 190.804C203.71 189.863 207.436 188.792 210.887 187.419C213.036 186.564 215.1 185.485 217.236 184.589C227.568 180.254 237.843 175.43 247.129 169.115C247.517 169.192 247.801 169.292 248.158 169.464C248.219 170.413 247.504 170.484 247.847 171.424C248.339 171.853 249.103 172.338 249.474 172.841C248.175 173.873 246.882 175.003 245.448 175.838C243.64 176.892 241.67 177.662 239.902 178.773C238 179.968 236.304 181.533 234.255 182.465L233.683 182.115C233.966 181.807 234.259 181.519 234.562 181.233C234.474 180.755 234.49 180.72 234.11 180.375C232.889 180.13 232.259 180.67 231.287 181.314C230.878 181.585 230.825 181.712 230.333 181.584C229.539 181.378 229.15 180.784 228.254 180.922C227.532 181.319 226.974 182.116 226.737 182.903C226.599 183.359 226.613 183.67 226.752 184.12C227.008 184.313 227.051 184.436 227.391 184.408C228.813 184.292 230.061 181.706 233.001 182.667C231.042 183.95 228.522 184.736 226.392 185.747C222.782 187.461 219.134 188.751 215.468 190.288C212.701 191.449 209.984 192.865 207.116 193.753C204.68 194.508 202.126 194.876 199.663 195.54C197.598 196.096 195.628 196.997 193.597 197.664C190.098 198.815 186.605 199.657 183.219 201.164C180.085 202.558 177.527 204.929 174.754 206.909C172.487 208.527 170.075 209.921 167.771 211.481C165.399 213.087 163.13 214.84 160.657 216.294C149.016 223.137 136.895 228.711 124.453 233.901C121.014 235.336 117.731 237.137 114.26 238.499C101.039 243.686 85.0309 247.852 70.9804 249.621C64.1317 250.483 51.6126 250.602 45.1313 248.461C43.4944 247.92 42.1556 247.15 40.7979 246.097C40.0838 244.171 39.9111 242.259 40.2203 240.222C40.7401 236.798 42.5453 233.788 44.9422 231.346C48.1931 228.035 51.9994 225.619 55.8269 223.068C65.9765 216.38 76.4923 210.266 87.3251 204.754C89.6474 203.554 92.0947 202.612 94.4118 201.408C100.94 198.015 107.286 194.25 113.839 190.9C117.469 189.045 125.041 186.086 127.917 183.827C128.317 183.514 128.571 183.173 128.658 182.668C128.801 181.836 128.288 180.365 128.25 179.443C128.173 177.596 128.361 175.699 128.611 173.871C131.003 156.377 143.624 141.288 157.353 130.924C169.597 121.681 187.376 115.015 202.874 117.216L199.578 117.422C201.257 117.528 204.009 117.11 205.331 118.291C205.506 119.638 206.145 121.954 205.287 123.079C203.269 123.309 200.994 120.742 198.49 121.979C195.951 121.959 193.232 121.751 190.716 122.045C176.353 123.725 161.612 132.11 151.462 142.12C143.794 149.682 138.436 154.954 134.651 165.415C133.405 168.857 132.509 172.206 132.502 175.9C132.5 176.881 132.44 178.605 133.174 179.333C133.537 179.693 134.547 179.792 135.051 179.753C137.912 179.532 143.075 175.976 145.94 174.627L177.553 159.822C180.538 158.436 183.611 157.33 186.625 156.028C189.647 154.723 192.666 153.204 195.638 151.772C197.385 150.93 198.872 149.631 200.619 148.79C203.515 147.396 206.624 146.422 209.492 144.971C211.485 143.964 215.957 141.804 217.286 140.175C217.774 139.577 217.879 139.014 217.788 138.257C217.527 136.094 216.335 133.866 215.452 131.901L215.624 131.494C215.166 129.081 210.467 125.873 208.73 124.154C209.026 124.05 209.378 124.066 209.691 124.046C212.601 121.669 210.094 122 211.045 120.269C214.52 121.562 217.354 125.672 219.275 128.647L219.428 128.279C221.366 130.825 221.145 134.631 222.71 137.377L223.186 137.487C225.567 136.931 227.918 135.545 230.153 134.532C236.789 131.523 243.222 128.302 249.764 125.115C252.003 124.024 254.339 123.125 256.593 122.061C258.528 121.148 260.384 120.075 262.32 119.163C263.688 118.519 265.149 118.015 266.486 117.32C267.137 116.982 267.835 116.581 268.327 116.028C268.633 115.684 268.517 115.478 268.48 115.041C267.421 113.006 263.99 112.204 261.954 111.527C251.413 108.019 239.834 106.831 228.788 106.045C211.877 104.841 194.583 105.355 177.977 101.581C176.023 101.137 173.717 100.766 171.943 99.831C168.161 97.8368 163.065 93.2664 161.727 89.0956C161.747 89.0666 161.767 89.0371 161.788 89.0086C163.905 86.1266 162.149 79.374 162.526 75.9046L163.102 76.6497L163.483 76.6523C163.541 75.983 163.559 75.9614 164.025 75.4763C164.057 74.6752 164.244 73.524 163.885 72.8087L163.483 73.1951C162.615 71.104 164.192 68.5953 163.673 66.4698ZM103.454 201.382L103.198 201.096L103.432 200.488C103.056 200.03 102.587 199.856 102.004 199.795C101.127 199.703 100.05 199.945 99.3881 200.543C99.0539 200.844 99.0882 201.02 99.0167 201.447C99.5366 202.272 100.302 202.448 101.169 202.842C98.2716 204.172 95.7014 206.024 92.9055 207.537C89.52 209.37 86.0311 211.005 82.6582 212.866C78.6645 215.07 74.7531 217.566 70.8744 219.967C64.9092 223.661 46.4536 234.376 44.9798 240.64C45.1225 241.202 45.1331 241.377 45.5917 241.766C48.4985 244.23 63.1751 244.288 67.6121 243.964C96.9815 241.82 125.012 229.617 150.687 215.962C152.939 214.764 155.26 213.649 157.452 212.346C159.658 211.035 167.412 205.887 168.742 204.28C169.172 203.76 169.384 203.358 169.335 202.689C168.892 202.693 168.599 203.015 168.153 203.074C166.81 203.251 165.366 203.267 164.009 203.349C159.781 203.604 155.353 203.222 151.149 202.689C143.997 201.783 137.807 197.879 133.204 192.402C131.95 190.911 130.945 189.177 129.746 187.627C125.922 191.192 120.204 192.67 115.587 194.996C113.845 195.874 112.211 196.968 110.493 197.892C108.194 199.129 105.797 200.228 103.454 201.382ZM136.453 186.727C138.557 189.597 140.278 191.613 143.355 193.505C145.7 194.748 147.947 195.832 150.543 196.436C157.45 198.043 172.912 197.941 179.644 195.942C182.719 195.029 185.22 192.159 187.518 190.028C190.768 187.014 194.203 184.111 197.18 180.823C199.224 178.565 200.946 175.933 202.75 173.481C206.624 168.216 210.668 162.948 213.723 157.149C214.831 155.046 218.037 149.388 217.319 146.978C217.145 146.392 216.975 146.307 216.508 145.945C216.023 145.944 215.549 145.937 215.067 146.007C210.142 149.277 204.947 151.518 199.674 154.111C197.196 155.33 194.985 157.021 192.497 158.214C190.387 159.226 188.108 159.793 185.962 160.707C181.278 162.701 176.624 165.078 172.006 167.251C165.694 170.22 159.83 173.946 153.623 177.057C151.881 177.93 149.992 178.491 148.271 179.4C146.285 180.45 144.478 181.831 142.444 182.788C141.027 183.454 138.738 183.887 137.529 184.78C137.045 185.137 136.693 186.175 136.453 186.727Z" />
	<path fill="#030303" fill-opacity="0.93725491" transform="matrix(2.21903 0.704065 -1.02311 1.52706 268.054 0)" d="M101.169 202.842C100.302 202.448 99.5366 202.272 99.0167 201.447C99.0882 201.02 99.0539 200.844 99.3881 200.543C100.05 199.945 101.127 199.703 102.004 199.795C102.587 199.856 103.056 200.03 103.432 200.488L103.198 201.096L103.454 201.382C102.742 201.999 102.004 202.413 101.169 202.842Z" />
	<path fill="#030303" fill-opacity="0.98823529" transform="matrix(2.21903 0.704065 -1.02311 1.52706 268.054 0)" d="M411.303 34.1248C411.919 34.0313 412.576 33.9033 413.2 33.9047C413.764 33.9061 414.231 34.0166 414.632 34.4383C415.068 34.8977 415.337 35.5101 415.318 36.1484C415.282 37.4224 414.559 38.9716 413.626 39.8189C413.61 39.8522 413.599 39.8879 413.58 39.9189C412.744 41.2317 403.615 44.1432 401.524 44.9666C384.065 51.9907 366.854 59.6166 349.922 67.8308C346.202 69.6221 342.723 71.8492 339.015 73.6693C333.253 76.4974 327.305 78.8912 321.501 81.6108C318.387 83.0701 315.582 85.2939 312.14 85.9314C311.122 85.5496 310.124 85.2813 309.061 85.0498C309.105 86.0126 308.384 87.881 307.895 88.7226C307.559 89.2999 307.074 89.7191 306.419 89.8883C304.046 90.5013 301.074 87.9119 299.177 86.6941L298.858 86.8098C297.608 89.0351 298.482 92.4777 297.625 95.0023C297.293 95.9806 296.828 96.6055 295.883 97.0558C291.552 99.1174 290.876 93.7751 288.376 92.8888C285.498 93.927 286.243 101.305 283.444 103.338C282.86 103.762 282.096 103.847 281.404 103.683C278.325 102.955 276.282 95.362 275.096 92.6269C274.221 90.6063 273.232 88.5805 272.092 86.6937C272.751 86.245 273.268 85.5512 273.943 85.0724C274.658 84.5646 275.225 84.2893 276.13 84.4474C276.624 84.7783 276.877 84.989 277.088 85.553C279.562 87.1047 279.746 91.6954 281.747 93.723C281.922 93.9007 282.352 93.8247 282.603 93.8268C285.386 92.3815 282.751 82.7204 285.906 79.778C286.149 79.5512 286.597 79.2701 286.946 79.3033C289.695 79.5647 290.609 86.0955 292.225 87.8881C292.619 88.3242 293.128 88.5462 293.709 88.5336C295.679 86.6422 294.447 79.3095 295.009 76.4195C295.159 75.6478 295.435 74.8682 296.124 74.4193C296.789 73.9856 297.643 73.6406 298.439 73.8716C300.449 74.4547 301.215 78.4728 302.129 80.1843C302.512 80.9003 303.203 81.723 304.023 81.9219C304.404 82.0143 304.508 81.8479 304.817 81.6436C305.995 79.0349 304.758 74.0427 304.974 71.0119C305.042 70.0648 305.165 69.0241 305.93 68.376C306.73 68.1445 307.507 67.9855 308.314 68.3043C310.691 69.2421 310.93 74.4739 311.888 76.6309C312.245 77.4335 312.781 78.2047 313.658 78.4847C314.337 78.7013 315.072 78.5887 315.743 78.4021C317.346 77.9569 318.779 76.9971 320.314 76.3707C322.593 75.4401 324.94 74.7143 327.202 73.7206C334.487 70.5193 341.675 66.9164 348.766 63.3041C352.047 61.6332 355.269 59.8221 358.615 58.2844C362.28 56.5996 366.033 55.0983 369.685 53.3863C372.029 52.2877 374.284 50.9752 376.657 49.9461L392.549 42.965C395.409 41.7191 398.357 40.6085 401.168 39.2594C403.412 38.1822 405.32 36.448 407.523 35.3795C408.72 34.7988 410.1 34.7524 411.303 34.1248Z" />
	<path fill="#444045" transform="matrix(2.21903 0.704065 -1.02311 1.52706 268.054 0)" d="M169.15 56.9542C169.518 55.812 177.811 47.431 179.208 46.1849C180.951 44.629 182.816 43.1277 184.765 41.8367C193.964 35.7456 205.326 31.2198 216.54 33.5035C220.896 34.6383 223.363 37.0303 226.316 40.2746C229.201 43.2689 232.528 48.7897 232.47 53.0149C232.451 54.3101 232.367 55.6234 232.042 56.8806C231.927 56.8682 231.879 56.8659 231.758 56.8377C230.13 56.4595 229.938 54.4524 229.177 53.2739C228.706 52.5454 228.081 52.5114 227.314 52.3175C227.006 50.7052 226.262 49.2465 225.586 47.7629C224.65 45.8432 223.806 43.7965 222.34 42.2134C219.259 38.8863 214.394 38.1241 210.082 37.9754C197.427 37.8977 187.425 43.9079 178.632 52.5948C176.515 54.686 173.204 58.6095 171.406 60.9704C170.22 61.3972 169.076 63.43 168.182 64.381C167.575 64.1214 167.215 63.8716 166.774 63.3806C165.939 61.2807 168.669 59.163 169.114 57.1312C169.127 57.0724 169.138 57.0132 169.15 56.9542Z" />
	<path fill="#0C000E" transform="matrix(2.21903 0.704065 -1.02311 1.52706 268.054 0)" d="M226.316 40.2746C229.201 43.2689 232.528 48.7897 232.47 53.0149C232.451 54.3101 232.367 55.6234 232.042 56.8806C231.927 56.8682 231.879 56.8659 231.758 56.8377C230.13 56.4595 229.938 54.4524 229.177 53.2739C228.706 52.5454 228.081 52.5114 227.314 52.3175C227.006 50.7052 226.262 49.2465 225.586 47.7629C226.265 47.6392 226.895 47.473 227.566 47.7273L227.613 48.1336L226.73 48.3397L226.505 48.7561C226.954 49.2723 227.209 49.7653 227.534 50.3562L229.217 50.4017L229.525 50.0911C229.663 49.5693 229.994 48.5235 229.755 48.008C229.523 47.5083 228.644 47.152 228.285 46.7311C227.692 46.0345 227.611 43.6148 227.375 42.6678C227.171 41.8501 226.69 41.0277 226.316 40.2746Z" />
	<path fill="#030303" fill-opacity="0.96862745" transform="matrix(2.21903 0.704065 -1.02311 1.52706 268.054 0)" d="M198.628 185.512C198.539 185.365 198.173 184.872 198.163 184.736C198.057 183.305 201.488 181.651 201.859 179.873C202.065 178.886 203.206 178.235 203.829 177.436C203.966 176.832 203.971 176.517 203.725 175.945C203.035 176.199 202.64 178.633 201.551 179.331L201.267 179.235C201.246 178.939 201.273 178.656 201.377 178.374C201.951 176.815 203.763 173.974 205.284 173.265C206.013 173.354 205.997 173.427 206.479 173.996C206.954 173.969 206.954 173.938 207.286 173.596C209.851 170.95 218.53 156.133 218.375 152.772C218.305 151.256 220.667 145.837 221.49 144.351L221.405 144.481L221.906 144.459L221.876 144.119C223.834 143.007 229.855 138.944 231.752 139.151C228.274 141.191 224.748 143.052 221.472 145.416C220.389 149.442 219.296 153.655 217.74 157.52C213.518 168.008 205.997 177.075 198.628 185.512Z" />
	<path fill="#444045" transform="matrix(2.21903 0.704065 -1.02311 1.52706 268.054 0)" d="M202.874 117.216C207.755 117.365 213.209 120.355 216.517 123.86C217.516 124.919 219.124 126.874 219.428 128.279L219.275 128.647C217.354 125.672 214.52 121.562 211.045 120.269C210.094 122 212.601 121.669 209.691 124.046C209.378 124.066 209.026 124.05 208.73 124.154C210.467 125.873 215.166 129.081 215.624 131.494L215.452 131.901C215.353 131.737 215.25 131.577 215.143 131.419C210.62 124.723 206.005 123.433 198.49 121.979C200.994 120.742 203.269 123.309 205.287 123.079C206.145 121.954 205.506 119.638 205.331 118.291C204.009 117.11 201.257 117.528 199.578 117.422L202.874 117.216Z" />
	<path fill="#030303" transform="matrix(2.21903 0.704065 -1.02311 1.52706 268.054 0)" d="M163.673 66.4698C164.192 68.5953 162.615 71.104 163.483 73.1951L163.885 72.8087C164.244 73.524 164.057 74.6752 164.025 75.4763C163.559 75.9614 163.541 75.983 163.483 76.6523L163.102 76.6497L162.526 75.9046C162.149 79.374 163.905 86.1266 161.788 89.0086C161.767 89.0371 161.747 89.0666 161.727 89.0956C159.752 83.2962 161.233 71.9836 163.673 66.4698Z" />
	<defs>
		<linearGradient id="gradient_0" gradientUnits="userSpaceOnUse" x1="248.19612" y1="170.67555" x2="253.36006" y2="166.93842">
			<stop offset="0" stop-color="black" stop-opacity="0.92941177" />
			<stop offset="1" stop-color="black" stop-opacity="0.98039216" />
		</linearGradient>
	</defs>
	<path fill="url(#gradient_0)" transform="matrix(2.21903 0.704065 -1.02311 1.52706 268.054 0)" d="M253.212 164.586L253.656 165.065C253.504 166.413 251.92 167.19 251.848 168.543C252.36 169.065 252.688 169.035 253.388 169.155C254.523 168.843 255.901 166.167 257.081 166.552C257.127 166.567 257.165 166.601 257.207 166.626C255.613 168.374 251.609 172.246 249.474 172.841C249.103 172.338 248.339 171.853 247.847 171.424C247.504 170.484 248.219 170.413 248.158 169.464C247.801 169.292 247.517 169.192 247.129 169.115C249.235 167.754 251.218 166.107 253.212 164.586Z" />
	<path fill="#030303" fill-opacity="0.92941177" transform="matrix(2.21903 0.704065 -1.02311 1.52706 268.054 0)" d="M255.244 162.817C255.052 163.695 254.965 163.782 254.317 164.338L254.293 164.825C254.694 164.981 254.983 164.95 255.4 164.843C257.416 164.33 262.36 161.803 263.314 160.036C263.453 159.779 263.473 159.663 263.756 159.535L263.966 159.964C263.642 161.798 260.054 164.695 258.509 165.777C258.084 166.073 257.649 166.356 257.207 166.626C257.165 166.601 257.127 166.567 257.081 166.552C255.901 166.167 254.523 168.843 253.388 169.155C252.688 169.035 252.36 169.065 251.848 168.543C251.92 167.19 253.504 166.413 253.656 165.065L253.212 164.586C253.695 163.942 254.615 163.344 255.244 162.817Z" />
	<path fill="#030303" fill-opacity="0.91764706" transform="matrix(2.21903 0.704065 -1.02311 1.52706 268.054 0)" d="M233.001 182.667C230.061 181.706 228.813 184.292 227.391 184.408C227.051 184.436 227.008 184.313 226.752 184.12C226.613 183.67 226.599 183.359 226.737 182.903C226.974 182.116 227.532 181.319 228.254 180.922C229.15 180.784 229.539 181.378 230.333 181.584C230.825 181.712 230.878 181.585 231.287 181.314C232.259 180.67 232.889 180.13 234.11 180.375C234.49 180.72 234.474 180.755 234.562 181.233C234.259 181.519 233.966 181.807 233.683 182.115L234.255 182.465C233.855 182.549 233.408 182.686 233.001 182.667Z" />
	<path fill="#030303" fill-opacity="0.98823529" transform="matrix(2.21903 0.704065 -1.02311 1.52706 268.054 0)" d="M227.314 52.3175C228.081 52.5114 228.706 52.5454 229.177 53.2739C229.938 54.4524 230.13 56.4595 231.758 56.8377C231.879 56.8659 231.927 56.8682 232.042 56.8806C232.001 57.2181 231.865 57.5491 231.705 57.8493C231.48 58.2708 231.386 58.4692 230.928 58.587C230.631 58.5288 230.444 58.4549 230.187 58.2896C228.224 57.0307 227.768 54.4079 227.314 52.3175Z" />
</svg>