<svg xmlns="http://www.w3.org/2000/svg" width="1634" height="779">
    <path fill="#221300" d="M802.908 19.54c7.966-.898 16.325-.652 24.132 1.236 16.44 3.975 32.216 15.097 41.009 29.616 11.666 19.26 13.586 41.65 8.262 63.265-16.128 65.476-92.195 133.208-145.04 170.897-14.878 10.611-30.481 20.004-46.1 29.464 22.919 11.708 46.592 21.333 70.505 30.768 9.124-3.653 19.082-6.084 28.487-9.033a2255 2255 0 0 0 53.851-17.472L952.1 278.364c36.832-12.575 74-24.167 110.64-37.302 33.45-11.989 66.38-25.39 99.69-37.752 30.6-11.357 61.59-21.624 92-33.533q22.98-9.072 45.75-18.665c10.39-4.48 20.63-9.487 31.26-13.376 4.92-1.799 11.07-3.902 16.36-3.616 2.13.114 4.2.836 5.56 2.556 3.44 4.323 4.35 17.577 3.96 23.049-.12 1.668-.06 2.346-1.38 3.468-3.93-5.641.37-14.179-2.98-19.176-3.53-1.793-8.37-.416-11.98.615-21.33 6.084-42.46 17.137-62.93 25.772-22.21 9.364-44.97 17.346-67.63 25.497-49.19 17.688-97.74 36.982-146.87 54.785-37.94 13.75-76.594 25.588-114.764 38.708-59.779 20.549-119.01 41.898-179.33 60.889 40.655 13.8 80.636 30.582 120.213 47.187 27.86 11.69 58.428 22.981 83.803 39.444 10.353 6.717 19.438 14.947 26.275 25.283 5.323 8.052 12.503 22.834 10.453 32.766 8.78-2.717 41.3-11.187 47.12-14.904.04-2.995-2.46-6.477-3.3-9.471-2.53-8.951-3.01-23.97 1.74-32.213 2.56-4.443 6.97-7.377 11.88-8.673 3.23-.853 6.9-.605 9.79 1.157 2.28 1.386 4.17 3.838 4.72 6.472.41 1.988-.18 2.894-1.22 4.45l-1.66.306c-2.67-1.191-3.34-3.703-5.64-5.514-2.74 1.293-5.49 2.59-7.87 4.482-5.98 4.756-7.46 13.301-8.18 20.505-.51 5.078-.68 10.248 2.69 14.391 2.02 1.004 3.16 1.521 5.44.994 7.4-1.713 21.7-19.02 25.45-25.425.07-1.418-1.14-2.866-1.77-4.106-1.08-2.123-.84-3.58-.07-5.739.67-1.851 2.12-3.43 3.94-4.184 2.83-1.174 6.64-.544 9.32.766 3.55 1.733 4.36 5.141 5.53 8.616 6.42.182 12.82-1.272 19.13-.623 2.15 1.045 2.83 2.878 3.8 4.918-2.05-14.191.18-20.521-4.31-35.367-1.59-5.241-3.82-24.411-1.35-29.042l1.24-.008c2.05 1.443 3.14 3.273 4.08 5.568 3.31 8.103 6.72 53.639 3.57 61.059 4.24-2.383 7.01-7.87 11.8-9.25 6.26-1.805 5.84 5.018 9.97 6.872 5.58 2.499 40.03-7.756 47.24-10.23-.06-3.807-5.74-11.232-8.52-13.955 4.65.256 12.41.485 15.84 3.981 1.72 1.754 2.43 4.095 2.47 6.492-2.58-.75-5.79-2.068-8.46-1.751.49 1.676 1.86 2.512 3.16 3.567 5.81.598 33.27-7.764 40.05-10.162 1.29-5.154-1.15-14.4-1.42-20.007-.44-9.118.87-43.644-.98-49.025-2.34 1.044-1.27 10.412-2.4 13.155-.18-.136-.37-.265-.54-.409-2.38-1.959-4.07-9.423-4.21-12.423-.18-3.748.96-7.797 3.6-10.517 1.5-1.546 1.79-1.605 3.95-1.633a7.6 7.6 0 0 1 1.53 1.677c2.37 3.487 3.24 9.16 3.65 13.318.47 4.768.96 63.125.58 64.838 9.1-1.349 18.49-4.728 27.4-7.169l54.81-14.892c76.05-20.14 155.22-39.594 234.14-42.454 10.67-.386 24.19-1.646 34.34 1.742.59.048 1.19.105 1.78.194 5.4.815 12.1 3.51 15.3 8.116 1.99 2.854 2.41 6.29 1.76 9.634.24 1.057.45 2.182.3 3.267-.72 5.292-6 9.866-10.01 12.99-5.91 4.6-41.5 25.437-47.09 24.749-1.55-1.564-1.95-1.884-2.34-4.145.9-2.371 2.06-3.73 4.09-5.241 13.61-10.131 35.75-14.902 48.15-28.071 1.72-1.815 2.62-3.284 2.57-5.884-1.01-2.399-2.95-3.515-5.26-4.459-12.71-5.192-29.76-4.144-43.32-3.681-87.97 3.003-182.44 28.379-267.29 52.027-13.77 3.837-32.24 6.809-44.9 12.297l-.15.964c1.25 1.883 2.44 3.536 4.39 4.745 8.65 5.37 15.44-1.598 23.5-3.258 1.93-.396 2.02-.101 3.63.935.85 1.704 1.32 2.917 1.5 4.832l.03.482c-.36.449-.69.832-1.13 1.217-4.18 3.697-9.56 6.66-15.3 6.109-10.17-.978-14.68-8.225-20.54-15.333-3.96 2.687-29.32 7.918-35.91 9.566-.87 1.466.28 3.439.55 5.183l-1.12.043c-1.09-1.423-2.1-2.596-3.5-3.741-11.92.589-24.75 7.516-36.36 10.399-8.01 1.99-16.25 3.08-24.3 5.051-25.54 6.257-50.98 13.53-76.24 20.844-21.51 6.228-45.63 15.55-67.08 19.972.73 3.41-2.14 7.945-3.91 10.748-12.416 19.677-34.299 36.272-53.871 48.616-29.916 18.87-63.214 32.53-95.544 46.657a2140.6 2140.6 0 0 1-373.163 122.719c-100.746 22.346-263.621 39.909-362.928 21.421-25.48-4.743-51.68-12.818-73.598-26.857-14.79-9.472-29.241-22.354-33.118-40.232-3.602-16.615 2.752-33.327 11.761-47.122 13.792-21.114 35.816-37.09 56.528-50.973a561 561 0 0 1 77.009-43.658c24.535-11.317 50.289-20.344 75.902-28.879a1465 1465 0 0 1 168.205-44.768c-.569-2.069-1.509-5.044-1.012-7.175 1.309-5.615 12.248-11.891 16.856-14.764 13.601-8.479 28.524-14.982 42.553-22.75a3518 3518 0 0 1 92.914-50.545c38.986-20.5 79.006-40.711 115.943-64.755a1170 1170 0 0 1-11.526-6.597c-28.351-16.472-60.622-35.677-69.46-69.509-6.992-26.761 1.982-50.464 15.47-73.448 24.732-42.145 97.143-106.371 142.027-126.494 13.199-5.917 27.872-11.152 41.981-14.316 5.102-1.145 10.512-1.276 15.522-2.617q.194-.054.387-.109M638.876 680.578a2224 2224 0 0 0 117.797-39.198 1976 1976 0 0 0 93.278-38.578c46.798-20.299 96.159-39.979 133.684-75.701 5.069-4.825 11.607-10.57 14.73-16.889.375-.761.489-1.386.531-2.221-6.344 4.078-24.213 8.419-32.03 10.956L889.11 544.26a1101 1101 0 0 0-106.523 40.568c-32.238 14.225-64.72 29-96.041 45.138-19.486 10.04-38.307 21.647-58.082 31.055-4.63 2.203-9.763 4.732-14.928 5.2-1.943-.76-2.95-1.329-3.745-3.383-.896-2.311-1.417-5.036-1.941-7.453 9.665-17.58 26.544-33.629 40.974-47.44 21.565-20.641 100.738-83.787 91.717-114.362-2.855-9.679-14.153-17.548-22.72-22.05-34.029-17.879-86.73-16.257-124.743-14.5-111.182 4.66-223.75 27.536-329.892 60.476-34.185 10.609-68.473 22.183-101.106 36.949a533.5 533.5 0 0 0-72.915 40.601c-17.671 11.566-36.116 24.363-50.457 39.974-11.603 12.631-25.108 32.853-24.228 50.859.45 9.211 6.886 16.451 13.448 22.289 59.222 52.691 182.263 47.469 256.754 42.888a1271.7 1271.7 0 0 0 291.224-51.313c20.853-6.055 42.628-11.609 62.97-19.177m489.584-226.827c-8.04 2.815-19.78.931-28.18.409-.49 4.433-13.13 14.858-12.51 17.168l.67-.285c8.06-1.798 40.04-8.781 44.72-13.11-.29-1.601-.94-2.624-1.82-3.978zm-695.972 12.869c65.17-13.069 173.857-25.02 238.052-16.481 17.754 2.361 36.926 6.657 52.023 16.78 10.849 7.274 19.222 17.872 21.835 30.867 2.804 13.945-2.935 26.102-10.554 37.364-20.603 30.455-52.681 52.288-78.12 78.336-13.963 13.32-27.717 27.037-39.196 42.606 17.205-7.264 33.356-17.01 49.774-25.871 15.894-8.579 32.078-16.434 48.355-24.242 33.957-16.291 68.263-32.371 103.315-46.179 34.489-13.585 69.781-25.028 105.005-36.528 10.604-3.462 79.493-23.989 83.063-28.68 2.05-9.008-.26-16.65-5.07-24.321-6.21-9.887-15.226-18.01-24.961-24.321-27.35-17.731-61.176-30.139-91.276-42.69a2140 2140 0 0 0-91.108-36.147c-11.931-4.49-23.872-9.413-35.955-13.45a2861 2861 0 0 0-71.685 23.03c-36.476 12.562-72.539 26.25-108.91 39.092-31.829 11.239-64.024 21.427-95.876 32.601-16.366 5.742-32.463 12.179-48.711 18.234m245.107-148.263a3121 3121 0 0 1-67.252 38.909c-44.291 24.354-89.361 47.237-133.601 71.73-6.897 3.818-58.175 30.31-59.965 33.034 3.962.034 42.191-15.59 49.268-18.243 32.583-11.795 65.638-22.207 98.356-33.605 39.732-13.841 79.1-28.704 118.867-42.443 20.049-6.927 40.339-12.994 60.47-19.651-17.459-7.122-34.66-14.535-51.526-22.981-2.729-1.367-12.159-7.129-14.617-6.75M807.668 28.324C753.028 35.06 714.131 63 673.757 97.682c-19.153 16.453-37.581 33.601-53.138 53.577-16.638 21.366-34.89 51.685-31.411 79.909 2.321 18.834 14.887 31.197 29.258 42.29 14.085 10.872 29.649 19.912 45.024 28.804l11.775 6.794c62.022-37.181 119.589-79.991 163.194-138.415 14.762-19.78 27.815-40.491 33.869-64.719 3.885-15.546 5.374-33.377-3.206-47.7-8.383-13.995-23.745-24.651-39.487-28.563-7.265-1.805-14.537-2.019-21.967-1.335" />
    <path fill="#fff" d="M1433.21 444.971a10.2 10.2 0 0 1 3.05.059c.66.103 1.21 1.228 1.61 1.771.34 2.387.11 4.302-.3 6.663-3.36 2.377-26.52 6.032-32.16 7.34-41.7 9.672-119.23 25.515-153.6 45.627l-.29.5-1.03-.489c-.85-2.572-1.83-5.609-.33-8.177 9.6-16.454 156.96-45.845 183.05-53.294" />
</svg>