<svg xmlns="http://www.w3.org/2000/svg" width="800" height="800" fill="none" viewBox="0 0 64 64"><path fill="#00599C" d="M47.593 41.008c.251-.435.407-.925.407-1.365V24.367c0-.44-.156-.93-.407-1.364L32 32.005z"/><path fill="#004482" d="m33.386 49.68 13.228-7.637c.381-.22.728-.6.979-1.035L32 32.005l-15.593 9.003c.251.435.598.815.979 1.035l13.228 7.637c.762.44 2.01.44 2.772 0"/><path fill="#659AD2" d="M47.593 23.003c-.251-.436-.598-.815-.979-1.035L33.386 14.33c-.762-.44-2.01-.44-2.772 0l-13.228 7.638c-.762.44-1.386 1.52-1.386 2.4v15.275c0 .44.156.93.407 1.365L32 32.005z"/><path fill="#fff" d="M32 42.672c-5.882 0-10.667-4.785-10.667-10.667S26.118 21.338 32 21.338c3.795 0 7.335 2.043 9.237 5.33l-4.616 2.672A5.36 5.36 0 0 0 32 26.672a5.34 5.34 0 0 0-5.333 5.333A5.34 5.34 0 0 0 32 37.34a5.36 5.36 0 0 0 4.621-2.669l4.616 2.671A10.7 10.7 0 0 1 32 42.671z"/><path fill="#fff" d="M42.667 31.413H41.48v-1.186h-1.185v1.186H39.11v1.185h1.185v1.185h1.185v-1.185h1.186zm4.444 0h-1.185v-1.186H44.74v1.186h-1.185v1.185h1.185v1.185h1.185v-1.185h1.185z"/></svg>