<svg xmlns="http://www.w3.org/2000/svg" xmlns:xlink="http://www.w3.org/1999/xlink" xmlns:lucid="lucid" width="1922" height="1082"><g transform="translate(-159 51)" lucid:page-tab-id="0_0"><path d="M160-44a6 6 0 0 1 6-6h1908a6 6 0 0 1 6 6v1068a6 6 0 0 1-6 6H166a6 6 0 0 1-6-6z" stroke="#000" stroke-width="2" fill-opacity="0"/><path d="M1520 226a6 6 0 0 1 6-6h208a6 6 0 0 1 6 6v528a6 6 0 0 1-6 6h-208a6 6 0 0 1-6-6zM220 6a6 6 0 0 1 6-6h1208a6 6 0 0 1 6 6v968a6 6 0 0 1-6 6H226a6 6 0 0 1-6-6z" stroke="#000" stroke-width="2" fill="#dfe3e8"/><path d="M720 26a6 6 0 0 1 6-6h368a6 6 0 0 1 6 6v888a6 6 0 0 1-6 6H726a6 6 0 0 1-6-6z" stroke="#000" stroke-width="2" fill="#979ea8"/><path d="M740 515.65c-.12 1.28.96 2.57 3.24 3.56l48.84 19.94c4.32 1.8 11.52 1.8 15.84 0l48.84-19.93c2.28-.98 3.36-2.27 3.24-3.55v-11.43c.12 1.24-.96 2.53-3.24 3.48l-48.84 19.94c-4.32 1.8-11.52 1.8-15.84 0l-48.84-19.94c-2.52-1.06-3.6-2.5-3.12-3.85l-.12 11.8z" stroke="#000" stroke-opacity="0" fill="#ba141a"/><path d="M856.76 501.2c4.32 1.77 4.32 4.72 0 6.48l-48.84 20c-4.32 1.76-11.52 1.76-15.84 0l-48.84-20c-4.32-1.76-4.32-4.7 0-6.48l48.84-19.98c4.32-1.77 11.52-1.77 15.84 0l48.84 19.98z" stroke="#000" stroke-opacity="0" fill="#ba141a"/><path d="M740 495.46c-.12 1.28.96 2.56 3.24 3.55l48.84 19.95c4.32 1.8 11.52 1.8 15.84 0L856.76 499c2.28-.98 3.36-2.26 3.24-3.54v-11.44c.12 1.25-.96 2.53-3.24 3.48l-48.84 19.94c-4.32 1.8-11.52 1.8-15.84 0l-48.84-19.94c-2.52-1.06-3.6-2.5-3.12-3.84l-.12 11.8z" stroke="#000" stroke-opacity="0" fill="#ba141a"/><path d="M856.76 481c4.32 1.77 4.32 4.72 0 6.5l-48.84 19.97c-4.32 1.77-11.52 1.77-15.84 0l-48.84-19.98c-4.32-1.78-4.32-4.73 0-6.5l48.84-19.98c4.32-1.77 11.52-1.77 15.84 0l48.84 20z" stroke="#000" stroke-opacity="0" fill="#ba141a"/><path d="M740 475.26c-.12 1.28.96 2.57 3.24 3.56l48.84 19.93c4.32 1.8 11.52 1.8 15.84 0l48.84-19.93c2.28-1 3.36-2.28 3.24-3.56v-11.43c.12 1.24-.96 2.53-3.24 3.48l-48.84 19.94c-4.32 1.8-11.52 1.8-15.84 0l-48.84-19.93c-2.52-1.06-3.6-2.48-3.12-3.84l-.12 11.8z" stroke="#000" stroke-opacity="0" fill="#ba141a"/><path d="M740 515.65c-.12 1.28.96 2.57 3.24 3.56l48.84 19.94c4.32 1.8 11.52 1.8 15.84 0l48.84-19.93c2.28-.98 3.36-2.27 3.24-3.55v-11.43c.12 1.24-.96 2.53-3.24 3.48l-48.84 19.94c-4.32 1.8-11.52 1.8-15.84 0l-48.84-19.94c-2.52-1.06-3.6-2.5-3.12-3.85l-.12 11.8z" stroke="#000" stroke-opacity="0" fill="#93171b"/><path d="M740 495.46c-.12 1.28.96 2.56 3.24 3.55l48.84 19.95c4.32 1.8 11.52 1.8 15.84 0L856.76 499c2.28-.98 3.36-2.26 3.24-3.54v-11.44c.12 1.25-.96 2.53-3.24 3.48l-48.84 19.94c-4.32 1.8-11.52 1.8-15.84 0l-48.84-19.94c-2.52-1.06-3.6-2.5-3.12-3.84l-.12 11.8z" stroke="#000" stroke-opacity="0" fill="#93171b"/><path d="M740 475.26c-.12 1.28.96 2.57 3.24 3.56l48.84 19.93c4.32 1.8 11.52 1.8 15.84 0l48.84-19.93c2.28-1 3.36-2.28 3.24-3.56v-11.43c.12 1.24-.96 2.53-3.24 3.48l-48.84 19.94c-4.32 1.8-11.52 1.8-15.84 0l-48.84-19.93c-2.52-1.06-3.6-2.48-3.12-3.84l-.12 11.8z" stroke="#000" stroke-opacity="0" fill="#93171b"/><path d="M856.76 460.8c4.32 1.78 4.32 4.72 0 6.5l-48.84 19.98c-4.32 1.77-11.52 1.77-15.84 0l-48.84-20c-4.32-1.75-4.32-4.7 0-6.47l48.84-19.97c4.32-1.77 11.52-1.77 15.84 0l48.84 19.98z" stroke="#000" stroke-opacity="0" fill="#ba141a"/><path d="M785 467.82c-5.6 2.47-14.6 2.47-20.2 0-5.54-2.48-5.54-6.48 0-8.97 5.6-2.46 14.6-2.46 20.2 0 5.54 2.5 5.54 6.5 0 8.97zM781.2 474.18l28.55-3.4-7.65 12.68-20.9-9.28z" stroke="#000" stroke-opacity="0" fill="#fff"/><path d="M825.94 471l-17.07-7.6 17.07-7.58V471z" stroke="#000" stroke-opacity="0" fill="#76191c"/><path d="M794.53 454.13l-11.16-1 9.92-2.5-1.32-5 8.4 3.4 10.34-2.1-4.73 4.6 7.7 3.73-11.32-.58-5.6 4.4-2.25-4.95z" stroke="#000" stroke-opacity="0" fill="#fff"/><path d="M843.02 463.4l-17.08-7.58V471l17.08-7.6z" fill="#93171b"/><use xlink:href="#a" transform="matrix(1,0,0,1,710,549.5) translate(24.299045138888886 21.52777777777778)"/><use xlink:href="#b" transform="matrix(1,0,0,1,710,549.5) translate(88.19878472222221 21.52777777777778)"/><path d="M935.72 36.1h120v117h-120z" fill-opacity="0"/><path d="M1048.64 111.9c-8.22 22.96-28.7 37.45-52.97 37.45-5.55.04-10.28-.64-15.55-2.2.82-1.84 1.16-3.57 1.23-5.6 0 0 .14.1.2.1 4.87 1.4 9.12 2 14.12 2 19.94-.03 36.87-10.66 45.64-28.67l.08-.08zM959.56 128.62c-1.75.98-3.05 2.14-4.25 3.76-4.85-5.02-8.23-10-11.1-16.38l6.9 1.54v1.76c0 1.9 1.27 3.53 3.15 3.96l.92.2c1.32 1.83 2.55 3.3 4.13 4.9zM1018 40.7c-.94 1.76-1.53 3.44-1.75 5.42-.15-.06-.37-.13-.52-.2-6.63-2.93-12.9-4.22-20.2-4.22-15.76.03-29.24 6.47-39.26 18.74l-1.9.43c-1.93.37-3.18 1.95-3.26 3.86v3.07l-6.77 1.3c9.43-20.67 28.67-33 51.2-33 8.12 0 15.04 1.4 22.48 4.6zM1048.16 72.48l-7.25-2.54c-1.38-2.9-2.82-5.23-4.77-7.8-.13-.18-.27-.32-.33-.46 1.88-.7 3.34-1.6 4.78-3 3.38 4.4 5.66 8.58 7.58 13.8z" fill="#32bedd"/><path d="M1002.9 113.98l16.94 3.77-26.27 10.94c-.12 0-.2.06-.34.06-.53 0-1-.44-1-1.02v-70.4c0-.57.47-1 1-1 .13 0 .22 0 .34.07l29.75 10.43-20.36 3.84c-1.7.37-2.9 1.9-2.92 3.63v36.13c0 1.74 1.18 3.26 2.86 3.55z" fill="#fff"/><path d="M943.03 72.26l8.05-1.54v43.88l-8.17-1.8-6.58-1.5c-.37-.03-.63-.38-.6-.78v-36.2c-.02-.35.23-.7.6-.8z" fill="#a67af4"/><path d="M1002.9 113.98l16.94 3.77-26.27 10.94c-.12 0-.2.06-.34.06-.53 0-1-.44-1-1.02v-70.4c0-.57.47-1 1-1 .13 0 .22 0 .34.07l29.75 10.43-20.36 3.84c-1.7.37-2.9 1.9-2.92 3.63v36.13c0 1.74 1.18 3.26 2.86 3.55z" fill="url(#c)"/><path d="M992.9 56.45l-38 7.24c-.58.07-.94.57-.94 1.15v54.46c0 .6.36 1.1.92 1.17l38 8.4h.23c.65 0 1.18-.5 1.18-1.16v-70.1c0-.57-.5-1.15-1.13-1.15z" fill="url(#d)"/><path d="M975.32 67.25v50.64l13.2 2.2V64.88l-13.2 2.37zM959.12 70.03v44.35l11.53 2.44v-48.8l-11.53 2z" fill="#b796f9" fill-opacity=".5"/><path d="M1042.4 48c-.03 6.52-5.27 11.77-11.73 11.74-6.48-.02-11.7-5.3-11.67-11.78.02-6.5 5.22-11.7 11.67-11.73 6.46-.03 11.7 5.24 11.73 11.73V48zM978.44 141.34c0 6.48-5.24 11.75-11.7 11.75-6.46 0-11.7-5.28-11.7-11.76 0-6.5 5.24-11.76 11.7-11.76 6.46 0 11.7 5.26 11.7 11.75z" fill="#32bedd"/><path d="M1055.72 79.08v25.77c0 .63-.33 1.1-.88 1.35l-5.1 2.1-20.5 8.52h-.34c-.36 0-.66-.28-.66-.67V69.3c0-.23.13-.42.36-.56h.23c.1 0 .18 0 .26.04h.13l20.14 7.03 5.36 1.88c.6.2 1 .77 1 1.4z" fill="#773adc"/><path d="M1028.76 68.74l-25.34 4.82c-.38.05-.62.38-.62.77v36.25c0 .38.24.67.62.77l25.34 5.6c.43.04.84-.2.92-.64V69.52c0-.43-.35-.76-.78-.76h-.14z" fill="#a67af4"/><use xlink:href="#e" transform="matrix(1,0,0,1,905.7180277384887,162.09314172495965) translate(14.370659722222229 21.52777777777778)"/><use xlink:href="#f" transform="matrix(1,0,0,1,905.7180277384887,162.09314172495965) translate(89.8046875 21.52777777777778)"/><path d="M620 418.8c0 18.96-11.04 23.28-14.88 23.28h-4.2v-5.4h4.2c2.04 0 9.48-3.12 9.48-17.88 0-13.68-11.64-17.16-16.68-18-1.44-.36-2.4-1.68-2.16-3.12 0-6-2.52-10.32-6.96-11.76-3.84-1.32-8.16.12-10.68 3.48-.6.84-1.56 1.2-2.52 1.08-1.08-.12-1.8-.84-2.16-1.8-1.8-4.8-4.2-8.88-7.44-12.12-3.84-3.84-14.52-12.24-29.52-5.88-8.76 3.72-15.6 14.28-15.6 24.12l.24 3.48c.12 1.32-.72 2.4-2.04 2.76-5.04 1.32-13.68 5.28-13.68 17.52 0 9.24 5.04 14.28 9.24 16.92 1.32.84 2.52 1.2 4.44 1.2v5.4c-2.88 0-5.16-.6-7.32-1.92-4.44-2.76-11.76-9.24-11.76-21.6 0-14.52 9.6-20.04 15.6-22.08l-.12-1.44c0-12.24 8.04-24.84 18.84-29.4 12.6-5.28 25.8-2.64 35.64 7.08 2.76 2.88 5.16 6.36 6.96 10.2 3.84-2.76 8.88-3.72 13.56-2.16 6.12 2.04 10.08 7.56 10.56 15.12 9.6 2.28 18.96 9.36 18.96 22.92zm-57.24 56.76v-31.92L590 427.68v31.92l-27.24 15.96zM530 427.8l27.24 15.84v31.92L530 459.6v-31.8zm30-20.76L587.36 423 560 438.96 532.76 423 560 407.04zm34.08 13.56l-32.64-19.08c-.96-.48-1.92-.48-2.76 0l-32.52 19.08c-.72.24-1.32.96-1.56 1.68 0 .36-.12.72 0 1.08v37.8c0 .96.48 1.92 1.32 2.4l32.76 19.08c.36.24.84.36 1.32.36.48 0 .96-.12 1.44-.36l32.64-19.08c.84-.48 1.32-1.44 1.32-2.4V423c0-.96-.48-1.92-1.32-2.4z" stroke="#000" stroke-opacity="0" fill="#01a88d"/><use xlink:href="#g" transform="matrix(1,0,0,1,470,492) translate(64.74500868055556 21.52777777777778)"/><path d="M620.5 423h598.83" stroke="#3a414a" fill="none"/><path d="M620.5 423.48h-.97l.1-.96h.88z" stroke="#3a414a" stroke-width=".05" fill="#3a414a"/><path d="M1234.1 423l-14.27 4.63v-9.26z" stroke="#3a414a" fill="#3a414a"/><path d="M935.72 720h120v114h-120z" fill-opacity="0"/><path d="M1037.72 720c2.28 0 4.68.46 6.84 1.37 2.28.8 4.2 2.16 5.88 3.87 3.48 3.54 5.28 7.76 5.28 12.54v12.1c0 1.8-.6 3.3-1.8 4.55-1.2 1.02-2.64 1.48-4.2 1.48s-3.12-.45-4.32-1.47c-.48-.57-.96-1.37-1.32-2.05-.24-.8-.36-1.7-.36-2.5v-12.1c0-.68-.12-1.48-.48-2.16-.24-.7-.72-1.37-1.32-1.83-.48-.58-1.2-1.03-1.92-1.26-.72-.34-1.56-.46-2.28-.46h-84c-.72 0-1.56.12-2.28.46-.72.23-1.44.68-1.92 1.25-.6.45-1.08 1.13-1.32 1.82-.36.68-.48 1.48-.48 2.16v6.05h30.12c1.68 0 3.12.57 4.2 1.82.6.57 1.08 1.14 1.32 1.94.36.67.48 1.47.48 2.27 0 1.82-.6 3.3-1.8 4.56-1.2 1.02-2.64 1.48-4.2 1.48h-30.12v54.27c0 1.6.6 3.08 1.8 4.22.48.56 1.2 1.02 1.92 1.36.72.23 1.56.46 2.28.46h15.12c1.68 0 3 .57 4.2 1.7 1.2 1.03 1.8 2.4 1.8 4.22 0 .8-.12 1.6-.48 2.4-.24.68-.72 1.37-1.32 1.94-1.2 1.02-2.64 1.48-4.2 1.48h-15.12c-4.8 0-9.12-1.7-12.72-5.25-1.68-1.58-3-3.52-3.96-5.7-.84-2.15-1.32-4.55-1.32-6.83v-72.4c0-4.77 1.8-9 5.28-12.53 3.6-3.53 7.92-5.24 12.72-5.24h84zm-23.64 29.87c5.88 0 11.28 1.14 16.32 3.53 5.04 2.17 9.36 5.13 13.08 9 3.84 3.88 6.84 8.33 9 13.35 2.16 5 3.24 10.48 3.24 16.3 0 5.58-1.08 11.17-3.24 16.3-2.16 5.02-5.16 9.58-9 13.34-3.96 3.86-8.52 6.94-13.56 9-5.16 2.27-10.68 3.3-16.32 3.3-5.52 0-11.04-1.14-16.2-3.3-5.04-2.06-9.48-5.14-13.32-9-3.84-3.77-6.84-8.33-9-13.35-2.16-5.13-3.36-10.72-3.24-16.3 0-5.82 1.08-11.3 3.24-16.3 2.04-5.02 4.92-9.47 8.76-13.34 3.84-3.75 8.28-6.83 13.2-9 5.16-2.28 10.68-3.53 16.32-3.53h.72zm23.64 24.17c-3.24-4.1-6.84-6.96-11.04-8.9.84 1.37 1.44 2.85 2.04 4.34.6 1.36 1.32 2.85 1.92 4.56h7.08zm-24.12-7.64c-1.08 2.05-2.4 4.56-3.72 7.64h7.8c-1.32-3.42-2.76-5.93-4.08-7.64zm-29.76 25.65v3.08l.48 2.96h9.72c-.12-1.04-.24-2.06-.24-2.97V789.08c0-1.02.12-2.05.24-3.07h-9.72l-.48 3.08v2.97zm6 18.12c3.12 4 6.84 6.96 11.04 8.78-.84-1.37-1.56-2.62-2.28-4-.48-1.7-1.08-3.18-1.8-4.78h-6.96zm6.96-36.13c.72-1.7 1.32-3.2 1.8-4.56.6-1.5 1.44-2.97 2.28-4.34-4.2 1.94-7.92 4.8-11.04 8.9h6.96zm16.8 43.66c.84-1.14 1.56-2.4 2.04-3.54l2.04-4h-7.8l3.72 7.54zm7.56-19.6c.36-1.04.48-2.06.48-2.97V789.08c0-1.02-.12-2.05-.48-3.07h-14.76c-.36 1.03-.48 2.06-.48 3.08v6.05c0 .9.12 1.93.48 2.96h14.76zm5.52 20.85c4.2-1.82 7.8-4.8 11.04-8.78h-7.08c-.6 1.6-1.32 3.2-1.92 4.8-.6 1.36-1.2 2.73-2.04 3.98zm16.56-20.86c.12-1.04.24-2.06.24-2.97.24-2.06.24-4.1 0-6.05 0-1.02-.12-2.05-.24-3.07h-9.84c.24 1.03.24 2.06.24 3.08v6.05c0 .9 0 1.93-.24 2.96h9.84z" fill="url(#h)"/><use xlink:href="#i" transform="matrix(1,0,0,1,905.7180277384887,843) translate(22.17230902777777 21.52777777777778)"/><use xlink:href="#j" transform="matrix(1,0,0,1,905.7180277384887,843) translate(23.39301215277777 53.79340277777778)"/><path d="M1219.33 423.48h-67.6l-.88.06-.84.2-.8.34-.73.45-.66.56-.55.65-.45.74-.34.8-.2.84-.07.88v342l-.1 1-.22.98-.4.94-.52.87-.66.78-.77.66-.87.53-.94.4-1 .23-.98.08h-83.52v-.96h83.48l.88-.06.85-.2.8-.34.73-.45.66-.56.57-.65.44-.74.33-.8.2-.84.07-.88v-342l.08-1 .24-.98.4-.94.52-.87.66-.78.77-.66.88-.53.94-.4.98-.23 1-.08h67.63z" stroke="#3a414a" stroke-width=".05" fill="#3a414a"/><path d="M1056.23 777.48h-.5v-.96h.5z" fill="#3a414a"/><path stroke="#3a414a" stroke-width=".05" fill="#3a414a"/><path d="M1234.1 423l-14.27 4.63v-9.26z" fill="#3a414a"/><path d="M1235.64 423l-16.28 5.3v-10.6zm-15.33 3.98l12.26-3.98-12.25-3.98z" stroke="#3a414a" stroke-width=".05" fill="#3a414a"/><path d="M935.72 496.1h120v120h-120z" fill-opacity="0"/><path d="M977.72 580.1h36v36h-36zm-42-48h36v-36h-30.96c-2.76 0-5.04 2.27-5.04 5.03zm5.04 84h30.96v-36h-36v30.95c0 2.76 2.28 5.04 5.04 5.04zm-5.04-42h36v-36h-36zm84 42h30.96c2.76 0 5.04-2.3 5.04-5.05V580.1h-36zm-42-42h36v-36h-36zm42 0h36v-36h-36zm0-78v36h36v-30.97c0-2.76-2.28-5.04-5.04-5.04zm-42 36h36v-36h-36z" fill="url(#k)"/><use xlink:href="#l" transform="matrix(1,0,0,1,905.7180277384887,625.0931417249597) translate(59.82421875 21.52777777777778)"/><path d="M1057.22 295.1h83a6 6 0 0 1 6 6V417a6 6 0 0 0 6 6h67.1" stroke="#3a414a" fill="none"/><path d="M1057.23 295.57h-.53l.02-.47-.02-.48h.53z" stroke="#3a414a" stroke-width=".05" fill="#3a414a"/><path d="M1234.1 423l-14.27 4.63v-9.26z" stroke="#3a414a" fill="#3a414a"/><path d="M1140.73 94.2l1 .23.93.4.87.52.77.66.66.8.53.85.38.94.23.98.1 1v316.4l.06.88.2.85.34.8.45.75.56.66.67.57.74.45.8.33.85.2.9.07h67.58v.96h-67.63l-1-.08-.98-.24-.94-.4-.87-.52-.76-.66-.66-.77-.53-.86-.4-.94-.23-1-.08-.98v-316.4l-.07-.9-.2-.83-.33-.8-.45-.75-.58-.66-.65-.58-.74-.45-.8-.33-.85-.2-.88-.07h-83.48v-.95h83.52z" stroke="#3a414a" stroke-width=".05" fill="#3a414a"/><path d="M1056.23 95.07h-.5v-.95h.5z" fill="#3a414a"/><path stroke="#3a414a" stroke-width=".05" fill="#3a414a"/><path d="M1234.1 423l-14.27 4.63v-9.26z" fill="#3a414a"/><path d="M1235.64 423l-16.28 5.3v-10.6zm-15.33 3.98l12.26-3.98-12.25-3.98z" stroke="#3a414a" stroke-width=".05" fill="#3a414a"/><path d="M935.72 235.1h120v120h-120z" fill-opacity="0"/><path d="M1055.72 295.1c0 33.1-26.88 60-60 60-33.12 0-60-26.9-60-60 0-33.13 26.88-60 60-60 33.12 0 60 26.87 60 60z" stroke="#d5dadd" stroke-width="2" fill="url(#m)"/><path d="M1002.13 297.13h-11.8l5.77-15.72h.23l5.8 15.73z" fill="url(#n)"/><path d="M993.1 333.25h5.23c1.76 0 3.4-.6 4.8-1.75 1.34-1.15 2.25-2.6 2.68-4.35l.86-4.96 6.56-3.83 4.5 1.9c.93.3 1.85.47 2.83.47 1.42 0 2.7-.38 3.9-1.07 1.26-.7 2.24-1.76 2.95-3.13l2.68-5.5c.64-1.06.92-2.2.92-3.43 0-2.43-1.06-4.5-3.1-6.1l-3.6-2.5v-7.8l3.6-2.67c2.04-1.45 3.1-3.5 3.1-5.95 0-1.3-.28-2.45-.92-3.44l-2.68-5.5c-.7-1.37-1.7-2.44-2.96-3.12-1.2-.7-2.47-1.07-3.9-1.07-1.04 0-2.03.23-2.8.6l-4.52 1.77-6.57-3.82-.84-4.96c-.4-1.76-1.33-3.2-2.67-4.35-1.4-1.16-3.04-1.77-4.8-1.77h-5.22c-1.76 0-3.38.6-4.8 1.76-1.33 1.13-2.25 2.58-2.67 4.34l-1.06 4.96-6.35 3.82-4.52-1.76c-.77-.38-1.76-.6-2.82-.6-1.4 0-2.75.37-4.02 1.06-1.2.7-2.12 1.75-2.82 3.13l-2.83 5.5c-.48 1.2-.76 2.28-.76 3.27 0 2.6 1 4.66 2.96 6.1l3.6 2.68v7.8l-3.46 2.5c-2.04 1.6-3.1 3.67-3.1 6.26 0 1 .28 2.06.77 3.28l2.84 5.5c.7 1.37 1.62 2.44 2.82 3.13 1.27.7 2.6 1.07 4.02 1.07.92 0 1.84-.16 2.82-.46l4.52-1.9 6.35 3.8 1.06 4.97c.35 1.75 1.2 3.2 2.54 4.35 1.48 1.14 3.17 1.75 4.94 1.75zm-11.63-26.86l10.93-27.5c.28-.67.85-1.36 1.63-1.9.7-.53 1.48-.76 2.32-.76.78 0 1.55.23 2.33.76.78.54 1.27 1.23 1.62 1.9l10.73 27.34c.42 1 .35 1.83-.14 2.6-.5.75-1.28 1.06-2.34 1.06-.56 0-1.06-.15-1.48-.46-.5-.3-.78-.7-.92-1.14l-2.54-7.03h-14.9l-2.6 7.03c-.2.45-.5.84-1 1.14-.4.3-.9.46-1.4.46-1 0-1.7-.3-2.2-1.07-.4-.7-.48-1.53-.05-2.44z" fill="url(#o)"/><use xlink:href="#p" transform="matrix(1,0,0,1,905.7180277384887,364.09314172495965) translate(65.55881076388889 21.52777777777778)"/><path d="M1301.9 359c4.6 0 8.44 2.56 11.5 6.78 2.57 3.46 4.88 8.2 6.67 14.08 3.58 11.4 5.63 26.76 5.63 43.14s-2.05 31.74-5.63 43.14c-1.8 5.88-4.1 10.62-6.66 14.08-3.06 4.22-6.9 6.78-11.5 6.78-10.37 0-16.77-9.1-20.23-24.45-.13-.5-.13-1.02 0-1.4h10.37c1.4 6.14 3.2 12.28 5.12 14.33 1.28 1.4 2.7 1.92 4.73 1.92.12 0 .12 0 .25-.13.13 0 .26-.13.5-.25.65-.4 1.42-1.16 2.2-2.18 1.78-2.56 3.57-6.4 5.24-11.4 3.2-10.5 5.1-24.95 5.1-40.44 0-15.5-1.9-29.95-5.1-40.45-1.68-5-3.47-8.83-5.26-11.4-.77-1-1.54-1.78-2.18-2.17-.25-.12-.38-.25-.5-.25-.14-.13-.14-.13-.27-.13-1.67 0-3.2.9-4.74 2.94-2.18 2.82-3.97 7.3-5.38 13.7h-10.62c1.66-8.58 4.1-14.85 7.42-19.2 3.46-4.6 8.07-7.04 13.3-7.04zm1.4 79.87v9.6h-50.7c-2.67 0-4.85-2.17-4.85-4.86 0-2.68 2.18-4.73 4.86-4.73h50.7zm55.55-10.24c2.7 0 4.87 2.05 4.87 4.74 0 2.7-2.18 4.86-4.87 4.86h-23.93c.38-3.2.64-6.4.9-9.6h23.03zm-55.55-10.24v9.6h-62.72c-2.7 0-4.86-2.18-4.86-4.87 0-2.7 2.17-4.74 4.86-4.74h62.72zm32-10.38l23.55.13c2.7 0 4.87 2.05 4.87 4.74 0 2.42-1.8 4.47-4.23 4.72l-.65.13h-22.9c-.14-3.33-.4-6.53-.65-9.73zm-32-10.1v9.6h-50.7c-2.67 0-4.85-2.18-4.85-4.87 0-2.43 1.92-4.48 4.22-4.74h51.34z" stroke="#000" stroke-opacity="0" fill="#4285f4"/><path d="M1235.72 397.4v51.2h128v-51.2z" stroke="#000" stroke-opacity="0" fill-opacity="0"/><path d="M1299.72 359c7.06 0 12.8 28.67 12.8 64s-5.74 64-12.8 64c-7.07 0-12.8-28.67-12.8-64s5.73-64 12.8-64z" fill-opacity="0"/><use xlink:href="#q" transform="matrix(1,0,0,1,1235.7180277384887,492) translate(1.2721354166666572 20.616319444444443)"/><use xlink:href="#r" transform="matrix(1,0,0,1,1235.7180277384887,492) translate(41.33289930555555 20.616319444444443)"/><path d="M740 235.1h120v120H740v-120z" stroke="#000" stroke-opacity="0" fill="#7aa116"/><path d="M831.24 299.46l.56-4.1c5.33 3.18 5.4 4.52 5.4 4.52s-.96.76-5.96-.42zm-2.9-.84c-9.22-2.77-21.98-8.65-27.15-11.1v-.07c0-1.93-1.62-3.6-3.64-3.6s-3.63 1.67-3.63 3.6c0 2 1.6 3.6 3.63 3.6.9 0 1.7-.32 2.26-.83 6.14 2.86 18.82 8.65 28.1 11.42l-3.7 25.8v.25c0 2.25-10.1 6.37-26.5 6.37-16.64 0-26.8-4.12-26.8-6.38v-.27l-7.68-55.77c6.62 4.53 20.83 6.97 34.48 6.97 13.57 0 27.78-2.44 34.4-6.97l-3.8 26.96zm-65.9-32.84c.15-1.93 11.46-9.66 35.28-9.66s35.13 7.73 35.3 9.66v.67c-1.38 4.45-16.08 9.16-35.3 9.16-19.3 0-34-4.7-35.3-9.15v-.67zm73.56.08c0-5.2-14.94-12.77-38.28-12.77-23.34 0-38.28 7.55-38.28 12.76l.16 1.1 8.32 60.8c.16 6.8 18.33 9.33 29.8 9.33 14.2 0 29.32-3.28 29.48-9.33l3.63-25.37c2.02.5 3.64.76 4.93.76 1.77 0 3-.42 3.7-1.35.66-.66.82-1.5.66-2.42-.32-2.1-2.83-4.37-7.83-7.23l3.54-25.1.16-1.2z" stroke="#000" stroke-opacity="0" fill="#fff"/><use xlink:href="#s" transform="matrix(1,0,0,1,710,364.09314172495965) translate(31.85112847222223 21.52777777777778)"/><use xlink:href="#t" transform="matrix(1,0,0,1,710,364.09314172495965) translate(66.08506944444446 21.52777777777778)"/><path d="M460 150.7c-30.12 0-54.6-24.5-54.6-54.6 0-30.13 24.48-54.6 54.6-54.6s54.6 24.47 54.6 54.6c0 30.1-24.48 54.6-54.6 54.6zm0-114.6c-33.12 0-60 26.87-60 60 0 33.1 26.88 60 60 60 33.12 0 60-26.9 60-60 0-33.13-26.88-60-60-60zm-18.48 90.7h-14.64l17.4-36.23 7.32 15-10.08 21.24zm5.16-43.8c-.48-.95-1.44-1.55-2.52-1.55-.96 0-1.92.6-2.4 1.56l-21.6 45.37c-.36.84-.36 1.8.12 2.64.48.73 1.44 1.2 2.28 1.2h20.76c.96 0 1.92-.6 2.4-1.55L457 106.77c.36-.72.36-1.56 0-2.4L446.68 83zm46.44 43.8h-14.88l-27.12-58.07c-.36-.96-1.32-1.56-2.4-1.56h-9.84V55.9h19.68l26.88 58.07c.48.96 1.44 1.56 2.52 1.56h5.16v11.28zm2.64-16.8h-6.12l-26.88-57.95c-.48-1.08-1.44-1.68-2.4-1.68h-24.24c-1.44 0-2.64 1.2-2.64 2.76l-.12 16.68c0 .73.36 1.45.84 1.93.48.6 1.2.84 1.92.84h10.8l27.12 58.08c.36.96 1.32 1.56 2.4 1.56h19.32c1.56 0 2.76-1.2 2.76-2.75v-16.68c0-1.44-1.2-2.76-2.76-2.76z" stroke="#000" stroke-opacity="0" fill="#ed7100"/><use xlink:href="#u" transform="matrix(1,0,0,1,370,165.09314172495965) translate(47.89930555555556 21.52777777777778)"/><use xlink:href="#v" transform="matrix(1,0,0,1,370,165.09314172495965) translate(44.779730902777786 53.79340277777778)"/><path d="M560 33.1h120v120H560v-120z" stroke="#000" stroke-opacity="0" fill="#ed7100"/><path d="M652.98 111.66l-9.72 5.6 1.5 2.58 10.52-6c.43-.23.72-.8.72-1.3v-10.52h-3.02v9.64zM639.5 80.4L620 69.22 600.5 80.4v23.8l19.5 12.57 19.5-12.56V80.4zm16.5-6.9v10.54h-3.02v-8.18l-10.44 4.62v24.54c0 .5-.3.97-.72 1.3l-20.3 13.04v10.12l8.27-4.6 1.43 2.66-10.5 5.83c-.23.08-.5.16-.73.16-.22 0-.5-.08-.72-.16l-10.5-5.83 1.43-2.67 8.3 4.6v-10.1l-20.32-13.05c-.43-.33-.72-.8-.72-1.3V80.48l-10.44-4.62v8.18H584V73.5c0-.47.3-1.04.8-1.28l10.43-6 1.5 2.6-7.9 4.53 10.07 4.54 20.38-11.68c.43-.24 1-.24 1.44 0L641.1 77.9l10.08-4.55-7.92-4.54 1.5-2.58 10.52 6c.43.24.72.8.72 1.3zm-36 12.24l-5.98 3.65v7.28l5.98 3.64 5.98-3.64v-7.3L620 85.75zm.8-3l6.76 4.06 5.26-2.6 1.36 2.68-5.18 2.6v8.1c0 .48-.3.96-.72 1.2l-6.77 4.14v6.64h-3v-6.64l-6.78-4.14c-.43-.24-.72-.72-.72-1.2v-8.1l-5.18-2.6 1.36-2.68 5.26 2.6 6.77-4.05c.5-.33 1.1-.33 1.6 0zm-.8-26.97l9.8 5.43 1.43-2.67-10.5-5.84c-.44-.25-1.02-.25-1.45 0l-10.5 5.83 1.43 2.67 9.8-5.43zm-32.98 55.9l9.72 5.58-1.5 2.6-10.45-6c-.5-.24-.8-.8-.8-1.3v-10.53h3.02v9.64z" stroke="#000" stroke-opacity="0" fill="#fff"/><use xlink:href="#w" transform="matrix(1,0,0,1,530,162.09314172495965) translate(10.518663194444443 21.52777777777778)"/><use xlink:href="#x" transform="matrix(1,0,0,1,530,162.09314172495965) translate(66.99652777777777 21.52777777777778)"/><use xlink:href="#y" transform="matrix(1,0,0,1,530,162.09314172495965) translate(16.074218750000014 53.79340277777778)"/><path d="M260 220h120v120H260V220z" stroke="#000" stroke-opacity="0" fill="#7aa116"/><path d="M351.24 284.37l.56-4.12c5.33 3.2 5.4 4.54 5.4 4.54s-.96.74-5.96-.43zm-2.9-.84c-9.22-2.77-21.98-8.65-27.15-11.1v-.07c0-1.94-1.62-3.62-3.64-3.62s-3.63 1.68-3.63 3.62c0 2 1.6 3.6 3.63 3.6.9 0 1.7-.33 2.26-.83 6.14 2.85 18.82 8.65 28.1 11.42l-3.7 25.8v.24c0 2.26-10.1 6.38-26.5 6.38-16.64 0-26.8-4.12-26.8-6.4v-.24l-7.68-55.78c6.62 4.54 20.83 6.98 34.48 6.98 13.57 0 27.78-2.44 34.4-6.98l-3.8 26.97zm-65.9-32.85c.15-1.93 11.46-9.66 35.28-9.66s35.13 7.73 35.3 9.66v.68c-1.38 4.45-16.08 9.15-35.3 9.15-19.3 0-34-4.7-35.3-9.14v-.68zm73.56.1c0-5.22-14.94-12.78-38.28-12.78-23.34 0-38.28 7.56-38.28 12.77l.16 1.1 8.32 60.8c.16 6.8 18.33 9.33 29.8 9.33 14.2 0 29.32-3.28 29.48-9.32l3.63-25.37c2.02.5 3.64.76 4.93.76 1.78 0 3-.42 3.7-1.34.66-.67.82-1.5.66-2.44-.32-2.1-2.83-4.36-7.83-7.22l3.54-25.12.16-1.17z" stroke="#000" stroke-opacity="0" fill="#fff"/><use xlink:href="#s" transform="matrix(1,0,0,1,230,349) translate(31.85112847222223 21.52777777777778)"/><use xlink:href="#t" transform="matrix(1,0,0,1,230,349) translate(66.08506944444446 21.52777777777778)"/><path d="M260 700h120v120H260V700z" stroke="#000" stroke-opacity="0" fill="#ed7100"/><path d="M358.98 769.42l-15.7-9.06 15.7-9.07v18.13zM311 775.27v-29.82l25.8 14.9-25.8 14.92zm-3-35l-15.72-9.05 15.7-9.15v18.2zm0 58.38l-15.72-9.06 15.7-9.16v18.2zm53.24-51.25c-.42-.26-1-.26-1.5 0l-19.66 11.35L311 741.98v-22.46c0-.6-.32-1-.74-1.35-.5-.25-1-.25-1.52 0l-20.24 11.7c-.42.25-.76.75-.76 1.35 0 .5.34 1 .76 1.27l19.5 11.25v33.22l-19.5 11.26c-.42.26-.76.76-.76 1.36 0 .5.34 1 .76 1.26l20.24 11.7c.26.08.5.16.76.16.25 0 .5-.1.76-.17.42-.34.75-.76.75-1.35v-22.46l29.08-16.77 19.65 11.35c.5.26 1.1.26 1.5 0 .52-.25.77-.76.77-1.27v-23.38c0-.5-.25-1.02-.76-1.27zM332 798.65v-18.2l15.72 9.05-15.7 9.15zm19.5-10.42l-20.24-11.7c-.5-.24-1-.24-1.52 0-.42.27-.75.77-.75 1.37v23.3c0 .6.32 1 .74 1.35.26.1.5.17.76.17.25 0 .5-.1.76-.17l20.24-11.7c.42-.25.76-.75.76-1.35 0-.5-.34-1-.76-1.27zm-70.48-18.8V751.3l15.7 9.06-15.7 9.06zm20.16-9.07c0-.5-.25-1.02-.75-1.27l-20.16-11.7c-.5-.26-1.1-.26-1.5 0-.52.25-.77.76-.77 1.27v23.38c0 .5.25 1.02.76 1.27.25.17.5.17.75.17.26 0 .52 0 .77-.18l20.16-11.7c.5-.24.75-.75.75-1.26zm30.83-38.3l15.72 9.16-15.7 9.06v-18.2zm-2.26 22.12c.26.08.5.17.76.17.25 0 .5-.1.76-.17l20.24-11.7c.42-.25.76-.75.76-1.26 0-.6-.34-1.1-.76-1.36l-20.24-11.7c-.5-.25-1-.25-1.52 0-.42.35-.75.77-.75 1.37v23.3c0 .6.32 1 .74 1.35z" stroke="#000" stroke-opacity="0" fill="#fff"/><use xlink:href="#z" transform="matrix(1,0,0,1,230,829) translate(47.16145833333334 21.52777777777778)"/><use xlink:href="#A" transform="matrix(1,0,0,1,230,829) translate(1.4203559027777715 53.79340277777778)"/><use xlink:href="#B" transform="matrix(1,0,0,1,230,829) translate(117.978515625 53.79340277777778)"/><use xlink:href="#C" transform="matrix(1,0,0,1,230,829) translate(50.27560763888889 86.05902777777777)"/><path d="M740 700h120v120H740V700z" stroke="#fff" stroke-opacity="0" stroke-width="2" fill="#3b48cc"/><path d="M817.53 745.17c0-4.63-9.1-6.8-17.6-6.8-8.5 0-17.6 2.17-17.6 6.8 0 .26.02.43.06.7v28.85c-.08 4.83 9.06 6.86 17.6 6.86 8.57 0 17.6-2.1 17.6-6.74v-29.67zm-17.57-3.6c9.3 0 14.4 2.56 14.4 3.6 0 1.03-5.05 3.58-14.4 3.58-9.38 0-14.4-2.5-14.4-3.58 0-1.04 5.05-3.6 14.4-3.6zm14.4 33.27c0 1.04-5.05 3.55-14.4 3.55-9.35 0-14.4-2.52-14.4-3.55v-5.06c3.36 1.85 9.04 2.7 14.4 2.7 5.36 0 10.97-.85 14.4-2.67zm0-9.1c0 1.03-5.05 3.58-14.4 3.58-9.38 0-14.4-2.55-14.4-3.6h.04v-6.08c3.4 1.8 9.03 2.68 14.4 2.68 5.36 0 10.97-.87 14.4-2.64zm0-10.2c0 1.03-5.05 3.62-14.4 3.62-9.38 0-14.4-2.6-14.4-3.63h.04v-6.22c3.42 1.83 9 2.65 14.4 2.65s11.07-.87 14.4-2.72zM765.46 796.82H776v3.2h-14.4c-.88 0-1.6-.72-1.6-1.6V784h3.2v10.5l12-11.98 2.24 2.26zM840 784.02v14.4c0 .9-.7 1.6-1.6 1.6H824v-3.2h10.54l-11.82-11.85 2.26-2.25 11.82 11.8v-10.5zM840 721.62v14.4h-3.2v-10.57l-11.82 11.83-2.26-2.26 11.8-11.8H824V720h14.4c.9 0 1.6.7 1.6 1.6zM777.44 735.2l-2.23 2.24-12-12V736H760v-14.4c0-.9.72-1.62 1.6-1.62H776v3.2h-10.54zM775.46 774.34c-9.78-3.5-15.38-8.9-15.38-14.74s5.6-11.2 15.38-14.74l1.08 3c-8.3 3.02-13.27 7.38-13.27 11.74s4.98 8.72 13.27 11.73zM823.65 774.7l-1.03-3.06c8.88-3 14.18-7.48 14.18-12.04 0-4.56-5.3-9.05-14.18-12.07l1.03-3.02c10.4 3.5 16.35 9.03 16.35 15.1 0 6.06-5.96 11.56-16.35 15.1z" stroke="#fff" stroke-opacity="0" stroke-width="2" fill="#fff"/><use xlink:href="#D" transform="matrix(1,0,0,1,710,829) translate(21.738281250000014 21.52777777777778)"/><use xlink:href="#E" transform="matrix(1,0,0,1,710,829) translate(113.66536458333333 21.52777777777778)"/><path d="M1570 280h120v120h-120V280z" stroke="#000" stroke-opacity="0" fill="#8c4fff"/><path d="M1643.02 341c-1.1-1-2.6-1.5-4.45-1.5H1637.98l5.88-6.22V331h-11.68v2.36h8.5l-6.06 6.56v1.93c.92-.17 1.85-.17 2.77-.17 2.93 0 4.36 1.18 4.36 3.44 0 1.26-.34 2.2-1.18 2.78-.75.67-1.93 1-3.36 1-1.42 0-3.27-.33-5.3-1v2.26c1.78.76 3.54 1.18 5.3 1.18 2.27 0 4.12-.6 5.46-1.68 1.35-1.18 2.02-2.6 2.02-4.54 0-1.68-.6-3.1-1.68-4.1zm-16.63-.5c-1.2-1.1-2.78-1.6-4.88-1.6-.84 0-1.77.1-2.86.26l.42-5.8h8.06V331h-10.5l-.58 8.58v1.85c1.84-.17 3.27-.25 4.45-.25 1.7 0 2.86.33 3.62.92.67.6 1.1 1.6 1.1 2.94 0 1.26-.43 2.18-1.18 2.86-.76.67-1.94 1-3.36 1-1.52 0-3.36-.33-5.46-1v2.26c1.68.76 3.52 1.18 5.46 1.18 2.26 0 4.03-.6 5.37-1.76 1.35-1.18 2.1-2.7 2.1-4.54 0-1.93-.6-3.44-1.76-4.54zm21.58 21.1c-7.3 1.25-13.7 4.27-17.98 6.62-4.28-2.35-10.67-5.37-17.98-6.63-2-.43-12.18-2.53-12.18-8.4 0-2.78.93-4.55 2.86-7.82 2.18-3.87 5.04-8.74 5.04-15.63 0-4.95-1.34-9.74-3.86-14.2l.84-1.1c3.86 1.86 7.8 2.87 11.84 2.87 4.87 0 9.4-1.34 13.44-3.86 4.03 2.52 8.57 3.86 13.44 3.86 4.03 0 7.98-1 11.84-2.86.26.34.6.76.84 1.1-2.52 4.45-3.86 9.24-3.86 14.2 0 6.88 2.86 11.75 5.04 15.62 1.93 3.27 2.86 5.04 2.86 7.8 0 5.9-10.17 8-12.18 8.4zm7.3-31.85c0-4.8 1.35-9.32 3.95-13.52.34-.5.34-1.26-.08-1.77-.76-.92-1.6-1.84-2.35-2.85-.42-.58-1.26-.75-1.85-.4-3.7 2.1-7.56 3.1-11.5 3.1-4.7 0-8.83-1.26-12.6-3.87-.5-.33-1.2-.33-1.7 0-3.77 2.6-7.9 3.87-12.6 3.87-3.94 0-7.8-1-11.5-3.1-.6-.35-1.43-.18-1.85.4-.75 1.02-1.6 1.94-2.35 2.86-.42.5-.42 1.26-.08 1.77 2.6 4.2 3.95 8.73 3.95 13.52 0 6.13-2.6 10.6-4.62 14.1-2.02 3.54-3.28 5.8-3.28 9.34 0 8.05 11.26 10.74 14.7 11.33 7.3 1.34 13.7 4.37 17.72 6.72.26.17.5.25.76.25.25 0 .5-.08.76-.25 4.03-2.35 10.4-5.38 17.72-6.72 3.44-.6 14.7-3.28 14.7-11.34 0-3.54-1.26-5.8-3.28-9.34-2-3.52-4.62-7.98-4.62-14.1zm-5.8 40.5c-9.15 1.67-16.88 6.63-19.48 8.4-2.6-1.77-10.33-6.73-19.5-8.4-18.13-3.3-19.48-13.87-19.48-17.06 0-5.3 2.02-8.83 4.04-12.28 1.84-3.27 3.86-6.63 3.86-11.17 0-7.22-4.2-12.35-6.22-14.45 2.1-2.6 7.65-9.32 10.34-12.76 4.03 3.86 8.82 5.96 13.52 5.96 5.2 0 9.5-2.1 13.44-6.64 3.95 4.54 8.23 6.64 13.44 6.64 4.7 0 9.5-2.1 13.52-5.96 2.7 3.44 8.24 10.16 10.34 12.76-2.02 2.1-6.22 7.23-6.22 14.45 0 4.54 2.02 7.9 3.86 11.17 2.02 3.45 4.04 6.98 4.04 12.27 0 3.18-1.35 13.76-19.5 17.04zm18.07-30.84c-1.85-3.18-3.45-5.87-3.45-9.65 0-7.98 6.14-13.1 6.22-13.1.34-.25.5-.67.6-1 0-.43-.1-.85-.35-1.2-.17-.07-10-12-12.18-15.1-.34-.34-.68-.6-1.18-.6-.42 0-.84.17-1.18.5-3.78 4.04-8.23 6.23-12.6 6.23-4.8 0-8.57-2.1-12.26-6.9-.6-.75-1.77-.75-2.36 0-3.7 4.8-7.47 6.9-12.26 6.9-4.37 0-8.82-2.2-12.6-6.22-.34-.34-.76-.5-1.18-.5-.5 0-.84.25-1.17.58-2.18 3.1-12.1 15.04-12.17 15.12-.25.34-.34.76-.34 1.18.08.34.24.76.58 1 .08 0 6.22 5.13 6.22 13.1 0 3.8-1.6 6.48-3.45 9.67-2.1 3.62-4.45 7.74-4.45 13.8 0 10.07 8.23 17.54 22 19.98 10.34 1.85 19 8.48 19.08 8.48.25.26.58.34.92.34.34 0 .67-.08.92-.34.1 0 8.74-6.63 19.07-8.48 13.77-2.44 22-9.9 22-20 0-6.04-2.35-10.16-4.45-13.77z" stroke="#000" stroke-opacity="0" fill="#fff"/><use xlink:href="#D" transform="matrix(1,0,0,1,1540,409) translate(13.811848958333343 21.52777777777778)"/><use xlink:href="#F" transform="matrix(1,0,0,1,1540,409) translate(105.73893229166666 21.52777777777778)"/><use xlink:href="#G" transform="matrix(1,0,0,1,1540,409) translate(76.38237847222223 53.79340277777778)"/><path d="M1280 20h120v120h-120V20z" stroke="#000" stroke-opacity="0" fill="#ed7100"/><path d="M1371.85 112.1l-32.28-.1c-3.85 0-7.2-2.85-7.6-6.55v-1c0-5.05 3.5-6.73 5.6-7.3.66-.18 1.25-.77 1.25-1.53 0 0-.1-.08-.1-.16 0-.42-.07-.93-.07-1.35 0-4.2 2.93-8.64 6.6-10.24 6.36-2.68 10.88.84 12.55 2.52 1.34 1.35 2.35 3.1 3.1 5.13.16.5.67.93 1.17 1.02.58.08 1.1-.17 1.42-.6 1-1.25 2.5-1.84 3.92-1.42 1.76.5 2.93 2.35 3.18 4.87-.08.76.42 1.5 1.25 1.6 2 .33 6.78 1.85 6.78 7.56 0 6.72-6.2 7.47-6.78 7.56zm-35.7 6.7L1301 100.1V59.84l29.95-17.72v14.53l-15.72 10.08c-.5.25-.75.75-.75 1.26v24c0 .6.33 1.1.83 1.36l14.07 7.3.16.1c-.33 1.16-.58 2.34-.58 3.68 0 .42 0 .84.08 1.26.5 5.2 5.1 9.33 10.54 9.33h3.43l-6.86 3.78zm22.57-52.07l-17.23-10.08V42.12l30.02 17.72v29.82c-.92-.92-1.92-1.68-3.26-2.02-1.84-.58-3.85-.25-5.44.84-.75-1.6-1.75-3.02-2.93-4.2-.17-.16-.26-.25-.43-.33V68c0-.52-.25-1.02-.75-1.27zm15.73 27.9V59c0-.5-.25-1-.67-1.26l-33.04-19.57c-.42-.25-1-.25-1.5 0-.42.33-.76.75-.76 1.34v18c0 .5.34 1 .75 1.33l17.23 10v12.85c-3.76-2.1-8.2-2.35-12.37-.6-1.52.68-2.86 1.7-4.03 2.87l-4.6-5.3 10.3-11.84h-4.03L1332.46 77v-10.5h-2.93V92h2.93V80l5.52 6.47c-1.42 2.27-2.26 4.95-2.26 7.64v.52c-2.1.67-3.68 1.93-4.77 3.52l-13.46-7.05V68.82l15.8-10.08c.4-.25.66-.76.66-1.26v-18c0-.58-.25-1-.75-1.33-.4-.25-1-.25-1.5 0l-32.95 19.57c-.5.25-.75.76-.75 1.26v42c0 .6.34 1.1.84 1.34l36.63 19.5c.25.08.5.16.67.16.25 0 .5-.08.75-.17l12.3-6.8h22.74c3.34-.25 9.7-2.77 9.7-10.5 0-5.55-3.43-8.65-7.2-9.9z" stroke="#000" stroke-opacity="0" fill="#fff"/><use xlink:href="#D" transform="matrix(1,0,0,1,1250,149) translate(22.872178819444457 21.52777777777778)"/><use xlink:href="#H" transform="matrix(1,0,0,1,1250,149) translate(114.79926215277777 21.52777777777778)"/><use xlink:href="#I" transform="matrix(1,0,0,1,1250,149) translate(59.156901041666664 53.79340277777778)"/><path d="M1570 540.5h120v120h-120v-120z" stroke="#fff" stroke-opacity="0" fill="#693cc5"/><path d="M1643.82 637.57l-2.85-1.5c1.6-3.02 2.7-5.73 3.64-9.04l3.1.9c-1.03 3.54-2.17 6.4-3.88 9.64zm2.98-29.3c-.57-9.4-3.23-17.23-8.43-25.06l2.66-1.72c5.55 8.28 8.37 16.64 8.97 26.58zm-21.1-38.62c-2.45-1.8-4.67-3.16-7.4-4.5l1.46-2.87c2.92 1.43 5.26 2.86 7.86 4.82zM1638.8 612.34c-5.3-5.27-10.82-8.73-17.87-11.2l1-3.04c7.5 2.63 13.38 6.3 19.03 11.92zM1652 631.44c-.6-1.6-1.28-3.07-2.02-4.56l2.87-1.42c.83 1.65 1.46 3.08 2.13 4.8z" stroke="#fff" stroke-opacity="0" fill="#fff"/><path d="M1642.9 638.34l-1-3.02c4.02-1.37 7.24-3.1 10.6-5.72l1.96 2.53c-3.66 2.85-7.15 4.73-11.55 6.2zM1592.04 599.7l-.73-3.1c3.76-.92 7-1.35 10.85-1.43l.07 3.2c-3.6.08-6.66.47-10.18 1.33zM1618.3 589.52l-2.7-1.75c2.47-4 5.06-7.1 8.6-10.23l2.1 2.42c-3.3 2.92-5.7 5.8-8 9.56zM1642.08 570.55l-1.1-3c2.55-.96 4.76-1.6 7.42-2.12l.6 3.2c-2.5.47-4.55 1.04-6.92 1.92zM1610.4 634.9c-2.75-6.38-4-12.25-4.1-19.2.05-2.67.34-4.95.98-7.54.1-.57.24-1.14.35-1.74l3.2.63c-.1.6-.23 1.16-.35 1.76-.6 2.38-.87 4.46-.92 6.9.07 6.53 1.23 12.05 3.8 18.06z" stroke="#fff" stroke-opacity="0" fill="#fff"/><path d="M1630 640.5c-22.08 0-40-17.94-40-39.97 0-.88 0-1.6.08-2.5 1.04-17.05 12.08-31 28.48-35.87 10.8-3.2 21.2-2.1 30.96 3.44 19.28 10.8 26.16 35.17 15.36 54.47-2.72 4.9-5.92 8.65-10.4 12.1-7.36 5.6-15.2 8.33-24.48 8.33zm0-76.82c-3.76 0-6.96.48-10.48 1.6-15.12 4.57-25.28 17.3-26.24 33 0 .8-.08 1.53-.08 2.25 0 20.26 16.48 36.77 36.8 36.77 4.24 0 7.84-.56 11.84-2 4.08-1.37 7.28-3.05 10.64-5.7 9.36-7.2 14.32-17.3 14.32-29.07 0-20.35-16.48-36.85-36.8-36.85z" stroke="#fff" stroke-opacity="0" fill="#fff"/><path d="M1633.9 582c-3.93 0-7.1-3.2-7.1-7.1 0-3.9 3.17-7.1 7.1-7.1 3.9 0 7.08 3.2 7.08 7.1 0 3.93-3.16 7.1-7.08 7.1zm0-10.97c-2.15 0-3.9 1.74-3.9 3.88 0 2.17 1.75 3.9 3.9 3.9 2.13 0 3.87-1.73 3.87-3.9 0-2.13-1.74-3.87-3.88-3.87zM1612.06 604.3c-3.9 0-7.08-3.17-7.08-7.08 0-3.9 3.17-7.1 7.08-7.1 3.92 0 7.1 3.2 7.1 7.1-.02 3.9-3.18 7.07-7.1 7.1zm0-10.96c-2.14 0-3.88 1.74-3.88 3.88 0 2.14 1.74 3.88 3.88 3.88 2.14 0 3.9-1.74 3.9-3.88v-.03c0-2.16-1.76-3.9-3.9-3.9zM1647.25 624.82c-3.92 0-7.1-3.16-7.1-7.07-.02-3.92 3.15-7.1 7.07-7.1 3.9-.02 7.1 3.15 7.1 7.07v.03c0 3.9-3.16 7.07-7.07 7.07zm0-10.96h-.02c-2.14 0-3.88 1.75-3.88 3.9 0 2.14 1.74 3.87 3.88 3.87 2.14 0 3.9-1.73 3.9-3.88 0-2.14-1.74-3.9-3.88-3.9z" stroke="#fff" stroke-opacity="0" fill="#fff"/><use xlink:href="#z" transform="matrix(1,0,0,1,1540,669.5) translate(47.16145833333334 21.52777777777778)"/><use xlink:href="#J" transform="matrix(1,0,0,1,1540,669.5) translate(32.06271701388889 53.79340277777778)"/><path d="M1415 802.36c0 31.8-25.76 57.63-57.5 57.63s-57.5-25.83-57.5-57.64c0-31.8 25.76-57.63 57.5-57.63s57.5 25.82 57.5 57.63z" fill="#9d5025"/><path d="M1415 797.63c0 31.8-25.76 57.63-57.5 57.63s-57.5-25.82-57.5-57.63c0-31.8 25.76-57.63 57.5-57.63s57.5 25.82 57.5 57.63z" fill="#f58536"/><path d="M1374.27 751.08V772h-33.56v-20.92h33.57zM1400.22 811.64v17.04h-17v-17.04h17zM1378.73 811.64v17.04h-17v-17.04h17zM1352.56 811.64v17.04h-17v-17.04h17zM1331.05 811.64v17.04h-17v-17.04h17z" fill="#fff"/><path d="M1321.02 796.9h3.06v16.7h-3.06v-16.7z" fill="#fff"/><path d="M1321.02 796.9h24.57v3.05H1321v-3.06z" fill="#fff"/><path d="M1342.53 796.9h3.06v16.7h-3.07v-16.7zM1368.7 796.9h3.06v16.7h-3.06v-16.7z" fill="#fff"/><path d="M1368.7 796.9h24.57v3.05h-24.57v-3.06z" fill="#fff"/><path d="M1390.2 796.9h3.07v16.7h-3.06v-16.7zM1331.8 784.95h3.06v13.47h-3.06v-13.47zM1355.96 768.92h3.06v16.28h-3.06v-16.28z" fill="#fff"/><path d="M1331.8 783.67h50.77v3.06h-50.77v-3.06z" fill="#fff"/><path d="M1379.5 784.95h3.07v13.47h-3.06v-13.47z" fill="#fff"/><use xlink:href="#K" transform="matrix(1,0,0,1,1300,860) translate(-1.40299479166665 21.52777777777778)"/><use xlink:href="#L" transform="matrix(1,0,0,1,1300,860) translate(31.404079861111114 53.79340277777778)"/><use xlink:href="#M" transform="matrix(1,0,0,1,1300,860) translate(11.487630208333329 86.05902777777777)"/><path d="M1800 6a6 6 0 0 1 6-6h208a6 6 0 0 1 6 6v968a6 6 0 0 1-6 6h-208a6 6 0 0 1-6-6z" stroke="#000" stroke-width="2" fill="#f2f3f5"/><use xlink:href="#N" transform="matrix(1,0,0,1,1805,5) translate(58.16840277777778 491.37152777777777)"/><path d="M1865.46 719.46h109.08v109.08h-109.08V719.46z" stroke="#000" stroke-opacity="0" fill="#dd344c"/><path d="M1860 714h120v120h-120V714z" stroke="#879196" stroke-width="2" fill-opacity="0"/><path d="M1936.33 805.37v-2.75h9.54v2.75h-9.54zm-9.54 4.04h28.6v-10.9h-28.6v10.9zm0-51.73v38.16h28.6v-38.16h-28.6zm31.36 0v51.74c0 1.54-1.22 2.76-2.75 2.76h-28.6c-1.46 0-2.68-1.22-2.68-2.75v-51.73c0-1.53 1.22-2.75 2.67-2.75h28.6c1.54 0 2.76 1.22 2.76 2.75zm-65.4-10.92h32.66v5.42h2.75v-6.8c0-.75-.6-1.36-1.38-1.36h-35.42c-.76 0-1.37.62-1.37 1.38v51.82c0 .7.62 1.3 1.38 1.3h30v-2.67h-28.63v-49.08zm-5.73 57.24h34.34v2.74h-34.34c-2.82 0-5.2-2.37-5.2-5.26V741.1c0-2.9 2.38-5.26 5.2-5.26h44.1c2.9 0 5.2 2.37 5.2 5.27v11.07h-2.67V741.1c0-1.37-1.14-2.5-2.52-2.5h-44.1c-1.38 0-2.45 1.13-2.45 2.5v60.38c0 1.37 1.06 2.5 2.43 2.5z" stroke="#000" stroke-opacity="0" fill="#fff"/><use xlink:href="#O" transform="matrix(1,0,0,1,1830,843) translate(27.07682291666667 21.52777777777778)"/><use xlink:href="#P" transform="matrix(1,0,0,1,1830,843) translate(115.70529513888889 21.52777777777778)"/><path d="M1860 140h120v80h-120z" fill-opacity="0"/><path d="M1975.08 210.16c3.24 0 4.92 1.6 4.92 4.88s-1.68 4.96-4.92 4.96h-110.16c-1.44 0-2.52-.4-3.48-1.2-.96-.88-1.44-2.16-1.44-3.76 0-1.52.48-2.72 1.44-3.52.96-.88 2.04-1.36 3.48-1.36h6.12c0-.32-.12-.56-.24-.72v-.24c-.48-1.36-.72-2.8-.72-4.24v-49.92c0-4.24 1.44-7.76 4.2-10.56 2.88-2.96 6.48-4.48 10.8-4.48h69.84c4.32 0 7.92 1.52 10.8 4.48 2.76 2.8 4.2 6.32 4.2 10.56v49.92c0 1.76-.36 3.44-.96 5.2h6.12zm-95.16-5.2h80.16v-49.92c0-3.28-1.68-4.96-5.16-4.96h-69.84c-3.48 0-5.16 1.68-5.16 4.96v49.92z" fill="url(#Q)"/><use xlink:href="#R" transform="matrix(1,0,0,1,1830,229) translate(66.33463541666666 21.52777777777778)"/><path d="M500 700h120v120H500V700z" stroke="#000" stroke-opacity="0" fill="#e7157b"/><path d="M525.6 757.04c1.64 0 2.96 1.32 2.96 2.96s-1.32 2.96-2.97 2.96c-1.66 0-3.07-1.32-3.07-2.96s1.4-2.96 3.06-2.96zm35.98 39c-17.5 0-32.6-12.87-35.75-30.03 2.65-.15 4.88-2.02 5.54-4.52h9.24v-2.96h-9.23c-.66-2.5-2.9-4.37-5.53-4.53 3.13-16.93 18.5-30.04 35.74-30.04 6.52 0 13.3 2.5 20.15 7.26l1.73-2.42c-7.43-5.15-14.78-7.8-21.88-7.8-19.07 0-36.08 14.82-38.88 33.77-1.9 1.02-3.14 2.97-3.14 5.23 0 2.26 1.24 4.2 3.14 5.23 2.8 19.26 19.48 33.77 38.88 33.77 8.1 0 16.43-2.73 23.37-7.8l-1.74-2.42c-6.43 4.68-14.1 7.26-21.62 7.26zm-16.34-41.34c2.8.62 6.27.78 8.83.78 2.48 0 5.78-.16 8.5-.7l-6.85 13.57c-.08.15-.16.4-.16.62v6.7c-1.16.8-3.22 2.04-4.46 2.27v-8.97c0-.16-.1-.4-.17-.55l-5.7-13.72zm8.83-5.23c6.03 0 9.25.94 10.32 1.56-1.08.55-4.3 1.48-10.33 1.48s-9.25-.92-10.24-1.47c1-.62 4.2-1.56 10.24-1.56zm-4.46 31.5h1.66c1.82-.22 4.2-1.63 6.2-2.95l.4-.24c.5-.3.75-.78.75-1.24v-7.18l8.35-16.7c.4-.46.66-1 .66-1.63 0-3.98-8.5-4.52-13.53-4.52-5.04 0-13.46.55-13.46 4.53 0 .55.18 1 .43 1.4l7 16.85v10.22c0 .86.76 1.48 1.58 1.48zm43.52-1.47c1.65 0 2.97 1.33 2.97 2.96 0 1.72-1.33 3.05-2.98 3.05s-2.97-1.32-2.97-3.04c0-1.63 1.32-2.96 2.97-2.96zm0-45c1.65 0 2.97 1.32 2.97 3.04 0 1.63-1.33 2.96-2.98 2.96s-2.97-1.33-2.97-2.96c0-1.72 1.32-3.05 2.97-3.05zm2.97 22.54c1.64 0 3.05 1.32 3.05 2.96s-1.4 2.96-3.06 2.96c-1.66 0-2.98-1.32-2.98-2.96s1.32-2.96 2.97-2.96zm-15.03 4.44h9.24c.67 2.58 3 4.53 5.8 4.53 3.3 0 6.02-2.72 6.02-6s-2.72-6-6.03-6c-2.8 0-5.13 1.94-5.8 4.52h-9.23v-19.5h6.27c.66 2.57 2.97 4.44 5.78 4.44 3.3 0 6.03-2.65 6.03-5.92 0-3.36-2.73-6-6.03-6-2.8 0-5.12 1.86-5.78 4.44h-7.76c-.82 0-1.5.7-1.5 1.56v20.98h-10.47v2.96h10.5v20.98c0 .86.66 1.56 1.48 1.56h7.76c.66 2.58 2.97 4.45 5.78 4.45 3.3 0 6.03-2.65 6.03-6 0-3.28-2.73-5.93-6.03-5.93-2.8 0-5.12 1.87-5.78 4.44h-6.27v-19.5z" stroke="#000" stroke-opacity="0" fill="#fff"/><use xlink:href="#D" transform="matrix(1,0,0,1,470,829) translate(8.511284722222229 21.52777777777778)"/><use xlink:href="#S" transform="matrix(1,0,0,1,470,829) translate(100.43836805555554 21.52777777777778)"/><use xlink:href="#T" transform="matrix(1,0,0,1,470,829) translate(29.588758680555564 53.79340277777778)"/><use xlink:href="#U" transform="matrix(1,0,0,1,470,829) translate(0.25933159722222854 86.05902777777777)"/><use xlink:href="#V" transform="matrix(1,0,0,1,470,829) translate(85.95811631944444 86.05902777777777)"/><use xlink:href="#W" transform="matrix(1,0,0,1,470,829) translate(63.318142361111114 118.32465277777777)"/><path d="M1920.47 954.02l-.07 1-.24.98-.4.94-.52.87-.66.78-.77.66-.86.53-.94.4-1 .23-.98.08H565.98l-1-.08-.98-.24-.94-.4-.87-.52-.78-.66-.66-.77-.53-.86-.4-.94-.23-1-.08-.98v-1.22h.96v1.18l.06.88.2.85.34.8.45.75.56.66.65.57.74.45.8.33.84.2.88.07h1347.96l.88-.06.85-.2.8-.34.75-.45.66-.56.57-.65.45-.74.33-.8.2-.84.08-.88V867h.94zM560.47 831h-.95v-10.5h.96z" stroke="#3a414a" stroke-width=".05" fill="#3a414a"/><path d="M560.48 820.5h-.96v-.5h.96z" fill="#3a414a"/><path stroke="#3a414a" stroke-width=".05" fill="#3a414a"/><path d="M1923.05 845h-6.1l3.05-9.38z" fill="#3a414a"/><path d="M1923.55 845h-1l-2.55-7.85-2.55 7.85h-1l3.55-10.92z" stroke="#3a414a" stroke-width=".05" fill="#3a414a"/><path d="M1441.5 490h61.12" stroke="#3a414a" fill="none"/><path d="M1441.5 490.48h-.5v-.96h.5z" stroke="#3a414a" stroke-width=".05" fill="#3a414a"/><path d="M1517.38 490l-14.26 4.63v-9.26z" stroke="#3a414a" fill="#3a414a"/><path d="M1798.5 490h-41.12" stroke="#3a414a" fill="none"/><path d="M1799 490.48h-.5v-.96h.5z" stroke="#3a414a" stroke-width=".05" fill="#3a414a"/><path d="M1742.62 490l14.26-4.63v9.26z" stroke="#3a414a" fill="#3a414a"/><path d="M560.48 683.62h-.96V516h.96zm0-188.62h-.96v-11.5h.96z" stroke="#3a414a" stroke-width=".05" fill="#3a414a"/><path d="M560 483l.48-.06v.57h-.96v-.56z" fill="#3a414a"/><path stroke="#3a414a" stroke-width=".05" fill="#3a414a"/><path d="M560 698.38l-4.63-14.26h9.26z" fill="#3a414a"/><path d="M560 699.92l-5.3-16.28h10.6zm-3.98-15.33l3.98 12.25 3.98-12.26zM320.48 416.98l.06.88.2.85.34.8.45.75.56.66.65.57.74.45.8.33.84.2.88.07H499.5v.96H325.98l-1-.08-.98-.24-.94-.4-.87-.52-.78-.66-.66-.77-.53-.86-.4-.94-.23-1-.08-.98V378h.96z" stroke="#3a414a" stroke-width=".05" fill="#3a414a"/><path d="M500.58 423.48h-1.1v-.96h.9z" fill="#3a414a"/><path stroke="#3a414a" stroke-width=".05" fill="#3a414a"/><path d="M323.37 352h-6.74l3.37-10.38z" fill="#3a414a"/><path d="M323.87 352h-1l-2.87-8.85-2.87 8.85h-1l3.87-11.92z" stroke="#3a414a" stroke-width=".05" fill="#3a414a"/><path d="M499.5 423H326a6 6 0 0 0-6 6v254.62" stroke="#3a414a" fill="none"/><path d="M500.58 423.48h-1.1v-.96h.9z" stroke="#3a414a" stroke-width=".05" fill="#3a414a"/><path d="M320 698.38l-4.63-14.26h9.26z" stroke="#3a414a" fill="#3a414a"/><path d="M320 219.5V102.1a6 6 0 0 1 6-6h57.62" stroke="#3a414a" fill="none"/><path d="M320.48 220h-.96v-.5h.96z" stroke="#3a414a" stroke-width=".05" fill="#3a414a"/><path d="M398.38 96.1l-14.26 4.63v-9.27z" stroke="#3a414a" fill="#3a414a"/><path d="M520.5 96.1h23.12" stroke="#3a414a" fill="none"/><path d="M520.5 96.57H520l.02-.48-.02-.48h.53z" stroke="#3a414a" stroke-width=".05" fill="#3a414a"/><path d="M558.38 96.1l-14.26 4.63v-9.27z" stroke="#3a414a" fill="#3a414a"/><path d="M795 92.7l1 .23.94.4.87.52.78.66.66.8.53.85.4.94.23.98.08 1V218.7h-.96V99.1l-.06-.87-.2-.84-.34-.8-.45-.75-.56-.66-.65-.58-.74-.45-.8-.33-.84-.2-.88-.07H680.5v-.95h113.52z" stroke="#3a414a" stroke-width=".05" fill="#3a414a"/><path d="M680.5 93.57h-.5v-.95h.5z" fill="#3a414a"/><path stroke="#3a414a" stroke-width=".05" fill="#3a414a"/><path d="M800 233.47l-4.63-14.26h9.26z" fill="#3a414a"/><path d="M800 235l-5.3-16.27h10.6zm-3.98-15.32l3.98 12.26 3.98-12.26z" stroke="#3a414a" stroke-width=".05" fill="#3a414a"/><path d="M420 235.55a6 6 0 0 1 6-6h228a6 6 0 0 1 6 6v48a6 6 0 0 1-6 6H426a6 6 0 0 1-6-6z" fill="none"/><g><use xlink:href="#X" transform="matrix(1,0,0,1,420,229.54657086247983) translate(62.27430555555556 38.083767361111114)"/></g><defs><path d="M180 0v-1490h510c348 0 508 194 508 460 0 198-88 351-276 417L1256 0h-220L726-579c-117 2-238 0-356 1V0H180zm190-747h312c235 0 327-108 327-283 0-177-92-293-329-293H370v576" id="Y"/><path d="M628 24c-324 0-524-230-524-574 0-343 198-582 503-582 237 0 487 146 487 559v75H286c9 234 145 362 343 362 132 0 231-58 273-172l174 48C1024-91 857 24 628 24zM287-650h624c-17-190-120-322-304-322-192 0-309 151-320 322" id="Z"/><path d="M577 24c-279 0-473-224-473-580 0-354 195-576 474-576 218 0 287 134 324 193h14v-551h180V0H922v-173h-20C865-111 790 24 577 24zm27-161c203 0 314-172 314-421 0-247-108-413-314-413-212 0-317 181-317 413 0 235 108 421 317 421" id="aa"/><path d="M158 0v-1118h180V0H158zm91-1301c-68 0-125-53-125-119s57-119 125-119c69 0 126 53 126 119s-57 119-126 119" id="ab"/><path d="M538 24C308 24 148-78 108-271l171-41c32 123 123 178 257 178 156 0 256-77 256-169 0-77-54-128-164-154l-186-44c-203-48-300-148-300-305 0-192 176-326 414-326 230 0 351 112 402 269l-163 42c-31-80-94-158-238-158-133 0-233 69-233 162 0 83 57 129 188 160l169 40c203 48 298 149 298 302 0 196-179 339-441 339" id="ac"/><g id="a"><use transform="matrix(0.010850694444444444,0,0,0.010850694444444444,0,0)" xlink:href="#Y"/><use transform="matrix(0.010850694444444444,0,0,0.010850694444444444,13.975694444444445,0)" xlink:href="#Z"/><use transform="matrix(0.010850694444444444,0,0,0.010850694444444444,26.931423611111104,0)" xlink:href="#aa"/><use transform="matrix(0.010850694444444444,0,0,0.010850694444444444,40.53819444444444,0)" xlink:href="#ab"/><use transform="matrix(0.010850694444444444,0,0,0.010850694444444444,45.920138888888886,0)" xlink:href="#ac"/></g><path d="M783 20c-382 0-661-292-661-764 0-473 279-766 661-766 302 0 548 182 601 489h-190c-42-204-217-313-411-313-268 0-476 208-476 590 0 381 209 588 476 588 195 0 369-110 411-313h190c-52 303-296 489-601 489" id="ad"/><path d="M471 26C259 26 90-98 90-318c0-256 228-303 435-329 202-27 287-16 287-108 0-139-79-219-234-219-161 0-248 86-283 164l-173-57c86-203 278-265 451-265 150 0 419 46 419 395V0H815v-152h-12C765-73 660 26 471 26zm31-159c199 0 310-134 310-271v-155c-30 35-226 55-295 64-131 17-246 59-246 186 0 116 97 176 231 176" id="ae"/><path d="M613 24c-304 0-509-231-509-576 0-350 205-580 509-580 216 0 392 114 453 309l-173 49c-33-115-133-197-280-197-223 0-326 196-326 419 0 220 103 415 326 415 150 0 252-85 285-206l172 49C1010-95 832 24 613 24" id="af"/><path d="M338-670V0H158v-1490h180v566c73-149 190-208 336-208 226 0 379 139 379 422V0H872v-695c0-172-96-275-252-275-161 0-282 109-282 300" id="ag"/><g id="b"><use transform="matrix(0.010850694444444444,0,0,0.010850694444444444,0,0)" xlink:href="#ad"/><use transform="matrix(0.010850694444444444,0,0,0.010850694444444444,16.23263888888889,0)" xlink:href="#ae"/><use transform="matrix(0.010850694444444444,0,0,0.010850694444444444,28.7109375,0)" xlink:href="#af"/><use transform="matrix(0.010850694444444444,0,0,0.010850694444444444,41.40625,0)" xlink:href="#ag"/><use transform="matrix(0.010850694444444444,0,0,0.010850694444444444,54.54644097222222,0)" xlink:href="#Z"/></g><linearGradient gradientUnits="userSpaceOnUse" id="c" x1="994.41" y1="92.54" x2="1033.66" y2="92.54"><stop offset=".1%" stop-color="#773adc"/><stop offset="100%" stop-color="#552f99"/></linearGradient><linearGradient gradientUnits="userSpaceOnUse" id="d" x1="974.11" y1="59.65" x2="974.11" y2="126.71"><stop offset="0%" stop-color="#a67af4"/><stop offset="99.9%" stop-color="#773adc"/></linearGradient><path d="M784 20c-382 0-662-292-662-764 0-473 280-766 662-766s660 293 660 766c0 282-99 499-260 629l192 255h-198L1049-33C969 2 880 20 784 20zm-62-486h198l156 205c112-98 183-261 183-483 0-383-209-590-475-590-268 0-477 208-477 590 0 380 209 588 477 588 54 0 106-9 154-25" id="ah"/><path d="M537 14c-226 0-379-139-379-422v-710h180v695c0 172 97 275 253 275 160 0 281-109 281-300v-670h181V0H879v-209C806-46 684 14 537 14" id="ai"/><g id="e"><use transform="matrix(0.010850694444444444,0,0,0.010850694444444444,0,0)" xlink:href="#ah"/><use transform="matrix(0.010850694444444444,0,0,0.010850694444444444,16.9921875,0)" xlink:href="#ai"/><use transform="matrix(0.010850694444444444,0,0,0.010850694444444444,30.13237847222222,0)" xlink:href="#Z"/><use transform="matrix(0.010850694444444444,0,0,0.010850694444444444,43.088107638888886,0)" xlink:href="#ai"/><use transform="matrix(0.010850694444444444,0,0,0.010850694444444444,56.22829861111111,0)" xlink:href="#Z"/></g><path d="M458 0L52-1490h194c108 439 233 855 324 1313 92-459 221-873 331-1313h216c110 438 234 854 330 1307 92-455 216-869 323-1307h196L1558 0h-221l-256-944c-26-95-50-200-73-331-22 122-44 223-73 331L680 0H458" id="aj"/><path d="M613 24c-304 0-509-231-509-576 0-350 205-580 509-580 305 0 511 230 511 580 0 345-206 576-511 576zm0-161c226 0 329-195 329-415 0-222-103-419-329-419-223 0-326 196-326 419 0 220 103 415 326 415" id="ak"/><path d="M158 0v-1118h174v172h12c41-113 157-188 290-188 26 0 70 2 91 3v181c-11-2-60-10-108-10-161 0-279 109-279 260V0H158" id="al"/><path d="M158 0v-1490h180v865h22l478-493h223L593-638 1096 0H865L456-523 338-412V0H158" id="am"/><g id="f"><use transform="matrix(0.010850694444444444,0,0,0.010850694444444444,0,0)" xlink:href="#aj"/><use transform="matrix(0.010850694444444444,0,0,0.010850694444444444,20.768229166666668,0)" xlink:href="#ak"/><use transform="matrix(0.010850694444444444,0,0,0.010850694444444444,34.09288194444444,0)" xlink:href="#al"/><use transform="matrix(0.010850694444444444,0,0,0.010850694444444444,42.80598958333333,0)" xlink:href="#am"/><use transform="matrix(0.010850694444444444,0,0,0.010850694444444444,54.50303819444444,0)" xlink:href="#Z"/><use transform="matrix(0.010850694444444444,0,0,0.010850694444444444,67.45876736111111,0)" xlink:href="#al"/></g><g id="g"><use transform="matrix(0.010850694444444444,0,0,0.010850694444444444,0,0)" xlink:href="#ad"/><use transform="matrix(0.010850694444444444,0,0,0.010850694444444444,16.23263888888889,0)" xlink:href="#ak"/><use transform="matrix(0.010850694444444444,0,0,0.010850694444444444,29.557291666666664,0)" xlink:href="#al"/><use transform="matrix(0.010850694444444444,0,0,0.010850694444444444,37.55425347222222,0)" xlink:href="#Z"/></g><linearGradient gradientUnits="userSpaceOnUse" id="h" x1="935.72" y1="720" x2="1055.72" y2="834"><stop offset="0%" stop-color="#5b738b"/><stop offset="100%" stop-color="#223548"/></linearGradient><path d="M180 0v-1490h190v1322h690V0H180" id="an"/><path d="M180 0v-1490h528c311 0 458 177 458 395 0 191-114 278-244 313v14c139 9 302 137 302 371 0 225-148 397-499 397H180zm190-168h350c232 0 321-102 321-231 0-149-120-277-311-277H370v508zm0-668h328c160 0 286-101 286-255 0-129-87-231-280-231H370v486" id="ao"/><g id="i"><use transform="matrix(0.010850694444444444,0,0,0.010850694444444444,0,0)" xlink:href="#an"/><use transform="matrix(0.010850694444444444,0,0,0.010850694444444444,12.565104166666666,0)" xlink:href="#Z"/><use transform="matrix(0.010850694444444444,0,0,0.010850694444444444,25.73784722222222,0)" xlink:href="#ae"/><use transform="matrix(0.010850694444444444,0,0,0.010850694444444444,38.21614583333333,0)" xlink:href="#aa"/><use transform="matrix(0.010850694444444444,0,0,0.010850694444444444,51.82291666666666,0)" xlink:href="#Z"/><use transform="matrix(0.010850694444444444,0,0,0.010850694444444444,64.77864583333333,0)" xlink:href="#al"/><use transform="matrix(0.010850694444444444,0,0,0.010850694444444444,73.49175347222223,0)" xlink:href="#ao"/><use transform="matrix(0.010850694444444444,0,0,0.010850694444444444,88.03168402777779,0)" xlink:href="#ak"/><use transform="matrix(0.010850694444444444,0,0,0.010850694444444444,101.57335069444444,0)" xlink:href="#ae"/><use transform="matrix(0.010850694444444444,0,0,0.010850694444444444,114.05164930555556,0)" xlink:href="#al"/><use transform="matrix(0.010850694444444444,0,0,0.010850694444444444,122.0486111111111,0)" xlink:href="#aa"/></g><path d="M218-607c0-325 108-727 258-974h175c-155 315-250 682-250 974 0 265 78 531 250 886H476C306-10 218-315 218-607" id="ap"/><path d="M677 24c-213 0-288-135-325-197h-20V0H158v-1490h180v551h14c37-59 106-193 324-193 279 0 474 222 474 576 0 356-194 580-473 580zm-27-161c209 0 317-186 317-421 0-232-105-413-317-413-206 0-314 166-314 413 0 249 111 421 314 421" id="aq"/><path d="M598-1118v154H368v674c0 100 37 144 132 144 23 0 62-6 92-12L629-6c-37 13-88 20-134 20-193 0-307-107-307-290v-688H20v-154h168v-266h180v266h230" id="ar"/><path d="M96 279C273-86 346-350 346-607c0-292-95-659-250-974h175c150 246 258 650 258 974 0 297-91 602-258 886H96" id="as"/><g id="j"><use transform="matrix(0.010850694444444444,0,0,0.010850694444444444,0,0)" xlink:href="#ap"/><use transform="matrix(0.010850694444444444,0,0,0.010850694444444444,8.10546875,0)" xlink:href="#aj"/><use transform="matrix(0.010850694444444444,0,0,0.010850694444444444,28.873697916666664,0)" xlink:href="#Z"/><use transform="matrix(0.010850694444444444,0,0,0.010850694444444444,41.829427083333336,0)" xlink:href="#aq"/><use transform="matrix(0.010850694444444444,0,0,0.010850694444444444,55.43619791666667,0)" xlink:href="#ac"/><use transform="matrix(0.010850694444444444,0,0,0.010850694444444444,67.16579861111111,0)" xlink:href="#ak"/><use transform="matrix(0.010850694444444444,0,0,0.010850694444444444,80.49045138888889,0)" xlink:href="#af"/><use transform="matrix(0.010850694444444444,0,0,0.010850694444444444,93.18576388888889,0)" xlink:href="#am"/><use transform="matrix(0.010850694444444444,0,0,0.010850694444444444,104.8828125,0)" xlink:href="#Z"/><use transform="matrix(0.010850694444444444,0,0,0.010850694444444444,117.83854166666666,0)" xlink:href="#ar"/><use transform="matrix(0.010850694444444444,0,0,0.010850694444444444,125.10850694444444,0)" xlink:href="#as"/></g><linearGradient gradientUnits="userSpaceOnUse" id="k" x1="995.72" y1="616.09" x2="995.72" y2="496.09"><stop offset="0%" stop-color="#0078d4"/><stop offset="16%" stop-color="#1380da"/><stop offset="53%" stop-color="#3c91e5"/><stop offset="82%" stop-color="#559cec"/><stop offset="100%" stop-color="#5ea0ef"/></linearGradient><path d="M338-1490V0H158v-1490h180" id="at"/><path d="M338-670V0H158v-1118h173l1 207c72-158 192-221 342-221 226 0 378 139 378 422V0H872v-695c0-172-96-275-252-275-161 0-282 109-282 300" id="au"/><g id="l"><use transform="matrix(0.010850694444444444,0,0,0.010850694444444444,0,0)" xlink:href="#ad"/><use transform="matrix(0.010850694444444444,0,0,0.010850694444444444,16.23263888888889,0)" xlink:href="#at"/><use transform="matrix(0.010850694444444444,0,0,0.010850694444444444,21.614583333333336,0)" xlink:href="#ab"/><use transform="matrix(0.010850694444444444,0,0,0.010850694444444444,26.99652777777778,0)" xlink:href="#Z"/><use transform="matrix(0.010850694444444444,0,0,0.010850694444444444,39.95225694444444,0)" xlink:href="#au"/><use transform="matrix(0.010850694444444444,0,0,0.010850694444444444,53.08159722222222,0)" xlink:href="#ar"/></g><linearGradient gradientUnits="userSpaceOnUse" id="m" x1="945.71" y1="251.34" x2="1039.16" y2="346.62"><stop offset="0%" stop-color="#fff"/><stop offset="100%" stop-color="#eaecee"/></linearGradient><linearGradient gradientUnits="userSpaceOnUse" id="n" x1="971.05" y1="268.31" x2="1024.37" y2="317.73"><stop offset="0%" stop-color="#0195ff"/><stop offset="99.1%" stop-color="#1147e9"/></linearGradient><linearGradient gradientUnits="userSpaceOnUse" id="o" x1="971.02" y1="268.35" x2="1024.33" y2="317.58"><stop offset="0%" stop-color="#0195ff"/><stop offset="99.1%" stop-color="#1147e9"/></linearGradient><path d="M52 0l541-1490h220L1361 0h-200l-149-416H398L254 0H52zm404-582h497c-103-290-145-390-251-756-108 377-145 460-246 756" id="av"/><g id="p"><use transform="matrix(0.010850694444444444,0,0,0.010850694444444444,0,0)" xlink:href="#av"/><use transform="matrix(0.010850694444444444,0,0,0.010850694444444444,15.33203125,0)" xlink:href="#ai"/><use transform="matrix(0.010850694444444444,0,0,0.010850694444444444,28.47222222222222,0)" xlink:href="#ar"/><use transform="matrix(0.010850694444444444,0,0,0.010850694444444444,35.7421875,0)" xlink:href="#ag"/></g><path d="M973-380H363L226 0H28l556-1456h168L1309 0h-197zM421-538h495l-248-681" id="aw"/><path d="M1216-1011c-1 297-202 441-512 441H361V0H169v-1456h537c297-6 510 164 510 445zm-192 2c1-178-126-288-307-289H361v571h345c196 1 318-92 318-282" id="ax"/><path d="M375 0H183v-1456h192V0" id="ay"/><g id="q"><use transform="matrix(0.010850694444444444,0,0,0.010850694444444444,0,0)" xlink:href="#aw"/><use transform="matrix(0.010850694444444444,0,0,0.010850694444444444,14.496527777777777,0)" xlink:href="#ax"/><use transform="matrix(0.010850694444444444,0,0,0.010850694444444444,28.515625,0)" xlink:href="#ay"/></g><path d="M730-137c145 0 253-29 323-105v-327H716v-156h528v534C1148-51 964 20 729 20c-394 0-598-279-607-678v-127c-5-410 194-690 585-691 310-1 499 171 537 447h-192c-36-193-151-289-344-289-285 0-393 220-393 528v119c-5 296 140 534 415 534" id="az"/><path d="M561-1102c238-4 403 126 403 351v498c0 99 13 178 38 237V0H808c-11-21-19-59-26-114C696-25 593 20 474 20c-199 0-368-130-365-320 4-251 214-359 490-356h180v-85c-1-135-86-212-229-212-115 0-232 67-233 171H131c20-205 206-316 430-320zM294-326c0 117 90 185 207 185 122 0 239-75 278-162v-222H634c-227 0-340 66-340 199" id="aA"/><path d="M456 20C285 20 205-92 206-268v-671H9v-143h197v-262h185v262h202v143H391v671c-9 125 92 149 207 118V0c-49 13-96 20-142 20" id="aB"/><path d="M599-131c141 0 220-65 285-146l113 88C906-50 770 20 589 20 281 21 93-214 93-545c0-223 93-397 233-485 74-48 154-72 240-72 300 2 449 218 445 537v77H278c0 197 129 357 321 357zm227-509c-3-180-88-310-260-310-170 0-264 140-282 310h542" id="aC"/><path d="M1098-255l208-827h185L1176 0h-150L763-820 507 0H357L43-1082h184l213 810 252-810h149" id="aD"/><path d="M494-271l252-811h198L509 167C425 381 299 474 84 421V271c167 16 242-37 283-173l41-110L22-1082h202" id="aE"/><g id="r"><use transform="matrix(0.010850694444444444,0,0,0.010850694444444444,0,0)" xlink:href="#az"/><use transform="matrix(0.010850694444444444,0,0,0.010850694444444444,15.13671875,0)" xlink:href="#aA"/><use transform="matrix(0.010850694444444444,0,0,0.010850694444444444,27.22439236111111,0)" xlink:href="#aB"/><use transform="matrix(0.010850694444444444,0,0,0.010850694444444444,34.48350694444444,0)" xlink:href="#aC"/><use transform="matrix(0.010850694444444444,0,0,0.010850694444444444,46.256510416666664,0)" xlink:href="#aD"/><use transform="matrix(0.010850694444444444,0,0,0.010850694444444444,62.955729166666664,0)" xlink:href="#aA"/><use transform="matrix(0.010850694444444444,0,0,0.010850694444444444,74.88064236111111,0)" xlink:href="#aE"/></g><path d="M657 26c-323 0-524-166-541-416h195c15 169 171 246 346 246 202 0 356-106 356-265 5-203-294-238-475-293-239-73-380-191-380-389 0-252 224-419 512-419 294 0 499 171 508 396H992c-17-145-151-228-328-228-193 0-321 102-321 242 0 156 175 211 284 241l149 41c160 44 422 134 422 412 0 244-197 432-541 432" id="aF"/><path d="M635 20c-292 0-500-160-510-396h192c11 142 145 229 315 229 187 0 323-105 323-260 0-161-125-274-346-274H488v-165h121c174 0 294-100 294-254 0-148-104-245-266-245-152 0-291 85-297 230H157c8-234 222-395 484-395 278 0 448 188 448 400 0 168-95 291-247 336v12c190 31 301 169 301 357 0 244-216 425-508 425" id="aG"/><g id="s"><use transform="matrix(0.010850694444444444,0,0,0.010850694444444444,0,0)" xlink:href="#aF"/><use transform="matrix(0.010850694444444444,0,0,0.010850694444444444,14.2578125,0)" xlink:href="#aG"/></g><path d="M611 442c-248 0-391-105-460-228l146-94c47 65 117 165 314 165 178 0 307-82 307-266v-224h-17C863-141 792-18 576-18c-268 0-472-195-472-546 0-346 197-568 476-568 216 0 288 133 326 193h17v-179h175V29c0 289-215 413-487 413zm-5-620c203 0 314-146 314-390 0-237-108-403-314-403-213 0-319 180-319 403 0 230 109 390 319 390" id="aH"/><g id="t"><use transform="matrix(0.010850694444444444,0,0,0.010850694444444444,0,0)" xlink:href="#aF"/><use transform="matrix(0.010850694444444444,0,0,0.010850694444444444,14.2578125,0)" xlink:href="#ar"/><use transform="matrix(0.010850694444444444,0,0,0.010850694444444444,21.31076388888889,0)" xlink:href="#ak"/><use transform="matrix(0.010850694444444444,0,0,0.010850694444444444,34.635416666666664,0)" xlink:href="#al"/><use transform="matrix(0.010850694444444444,0,0,0.010850694444444444,43.00130208333333,0)" xlink:href="#ae"/><use transform="matrix(0.010850694444444444,0,0,0.010850694444444444,55.47960069444444,0)" xlink:href="#aH"/><use transform="matrix(0.010850694444444444,0,0,0.010850694444444444,69.10807291666666,0)" xlink:href="#Z"/></g><path d="M158 0v-1118h175l1 205c55-151 181-225 313-225 147 0 245 90 285 228 53-141 190-228 352-228 194 0 352 125 352 384V0h-181v-749c0-161-105-225-225-225-151 0-243 103-243 244V0H807v-767c0-124-93-207-219-207-131 0-250 92-250 270V0H158" id="aI"/><g id="u"><use transform="matrix(0.010850694444444444,0,0,0.010850694444444444,0,0)" xlink:href="#an"/><use transform="matrix(0.010850694444444444,0,0,0.010850694444444444,12.565104166666666,0)" xlink:href="#ae"/><use transform="matrix(0.010850694444444444,0,0,0.010850694444444444,25.04340277777778,0)" xlink:href="#aI"/><use transform="matrix(0.010850694444444444,0,0,0.010850694444444444,44.50954861111111,0)" xlink:href="#aq"/><use transform="matrix(0.010850694444444444,0,0,0.010850694444444444,58.11631944444444,0)" xlink:href="#aa"/><use transform="matrix(0.010850694444444444,0,0,0.010850694444444444,71.72309027777777,0)" xlink:href="#ae"/></g><path d="M180 0v-1490h901v168H370v510h643v168H370V0H180" id="aJ"/><g id="v"><use transform="matrix(0.010850694444444444,0,0,0.010850694444444444,0,0)" xlink:href="#aJ"/><use transform="matrix(0.010850694444444444,0,0,0.010850694444444444,12.369791666666666,0)" xlink:href="#ai"/><use transform="matrix(0.010850694444444444,0,0,0.010850694444444444,25.50998263888889,0)" xlink:href="#au"/><use transform="matrix(0.010850694444444444,0,0,0.010850694444444444,38.639322916666664,0)" xlink:href="#af"/><use transform="matrix(0.010850694444444444,0,0,0.010850694444444444,51.334635416666664,0)" xlink:href="#ar"/><use transform="matrix(0.010850694444444444,0,0,0.010850694444444444,58.60460069444444,0)" xlink:href="#ab"/><use transform="matrix(0.010850694444444444,0,0,0.010850694444444444,63.986545138888886,0)" xlink:href="#ak"/><use transform="matrix(0.010850694444444444,0,0,0.010850694444444444,77.31119791666666,0)" xlink:href="#au"/></g><g id="w"><use transform="matrix(0.010850694444444444,0,0,0.010850694444444444,0,0)" xlink:href="#av"/><use transform="matrix(0.010850694444444444,0,0,0.010850694444444444,14.073350694444445,0)" xlink:href="#aj"/><use transform="matrix(0.010850694444444444,0,0,0.010850694444444444,35.970052083333336,0)" xlink:href="#aF"/></g><path d="M180 0v-1490h908v168H370v486h669v168H370v500h727V0H180" id="aK"/><g id="x"><use transform="matrix(0.010850694444444444,0,0,0.010850694444444444,0,0)" xlink:href="#aK"/><use transform="matrix(0.010850694444444444,0,0,0.010850694444444444,13.35720486111111,0)" xlink:href="#at"/><use transform="matrix(0.010850694444444444,0,0,0.010850694444444444,18.739149305555557,0)" xlink:href="#Z"/><use transform="matrix(0.010850694444444444,0,0,0.010850694444444444,31.69487847222222,0)" xlink:href="#aI"/><use transform="matrix(0.010850694444444444,0,0,0.010850694444444444,51.16102430555556,0)" xlink:href="#Z"/><use transform="matrix(0.010850694444444444,0,0,0.010850694444444444,64.11675347222223,0)" xlink:href="#au"/><use transform="matrix(0.010850694444444444,0,0,0.010850694444444444,77.24609375,0)" xlink:href="#ar"/><use transform="matrix(0.010850694444444444,0,0,0.010850694444444444,84.62456597222221,0)" xlink:href="#ae"/><use transform="matrix(0.010850694444444444,0,0,0.010850694444444444,97.10286458333333,0)" xlink:href="#at"/></g><path d="M180 0v-1490h270l367 940c28 72 75 218 110 339 35-117 81-264 110-339l362-940h271V0h-187c2-448-5-837 7-1287-157 497-311 829-483 1287H842C666-458 514-784 354-1284c12 438 5 843 7 1284H180" id="aL"/><path d="M481 0L54-1118h197c107 314 236 620 325 951 87-331 217-637 324-951h197L670 0H481" id="aM"/><g id="y"><use transform="matrix(0.010850694444444444,0,0,0.010850694444444444,0,0)" xlink:href="#aL"/><use transform="matrix(0.010850694444444444,0,0,0.010850694444444444,20.07378472222222,0)" xlink:href="#Z"/><use transform="matrix(0.010850694444444444,0,0,0.010850694444444444,33.029513888888886,0)" xlink:href="#aa"/><use transform="matrix(0.010850694444444444,0,0,0.010850694444444444,46.63628472222221,0)" xlink:href="#ab"/><use transform="matrix(0.010850694444444444,0,0,0.010850694444444444,52.01822916666666,0)" xlink:href="#ae"/><use transform="matrix(0.010850694444444444,0,0,0.010850694444444444,64.49652777777777,0)" xlink:href="#ad"/><use transform="matrix(0.010850694444444444,0,0,0.010850694444444444,80.72916666666666,0)" xlink:href="#ak"/><use transform="matrix(0.010850694444444444,0,0,0.010850694444444444,94.05381944444441,0)" xlink:href="#au"/><use transform="matrix(0.010850694444444444,0,0,0.010850694444444444,106.85763888888887,0)" xlink:href="#aM"/><use transform="matrix(0.010850694444444444,0,0,0.010850694444444444,118.91276041666666,0)" xlink:href="#Z"/><use transform="matrix(0.010850694444444444,0,0,0.010850694444444444,131.86848958333331,0)" xlink:href="#al"/><use transform="matrix(0.010850694444444444,0,0,0.010850694444444444,140.5815972222222,0)" xlink:href="#ar"/></g><path d="M126 0v-134l627-806v-11H146v-167h839v143L376-178v11h629V0H126" id="aN"/><g id="z"><use transform="matrix(0.010850694444444444,0,0,0.010850694444444444,0,0)" xlink:href="#av"/><use transform="matrix(0.010850694444444444,0,0,0.010850694444444444,15.33203125,0)" xlink:href="#aI"/><use transform="matrix(0.010850694444444444,0,0,0.010850694444444444,34.79817708333333,0)" xlink:href="#ae"/><use transform="matrix(0.010850694444444444,0,0,0.010850694444444444,47.27647569444444,0)" xlink:href="#aN"/><use transform="matrix(0.010850694444444444,0,0,0.010850694444444444,59.22309027777778,0)" xlink:href="#ak"/><use transform="matrix(0.010850694444444444,0,0,0.010850694444444444,72.54774305555554,0)" xlink:href="#au"/></g><path d="M370-1490V0H180v-1490h190" id="aO"/><g id="A"><use transform="matrix(0.010850694444444444,0,0,0.010850694444444444,0,0)" xlink:href="#aO"/><use transform="matrix(0.010850694444444444,0,0,0.010850694444444444,5.967881944444445,0)" xlink:href="#au"/><use transform="matrix(0.010850694444444444,0,0,0.010850694444444444,19.09722222222222,0)" xlink:href="#ar"/><use transform="matrix(0.010850694444444444,0,0,0.010850694444444444,26.15017361111111,0)" xlink:href="#Z"/><use transform="matrix(0.010850694444444444,0,0,0.010850694444444444,39.10590277777778,0)" xlink:href="#al"/><use transform="matrix(0.010850694444444444,0,0,0.010850694444444444,47.47178819444444,0)" xlink:href="#ae"/><use transform="matrix(0.010850694444444444,0,0,0.010850694444444444,59.95008680555555,0)" xlink:href="#af"/><use transform="matrix(0.010850694444444444,0,0,0.010850694444444444,72.64539930555556,0)" xlink:href="#ar"/><use transform="matrix(0.010850694444444444,0,0,0.010850694444444444,79.91536458333333,0)" xlink:href="#ab"/><use transform="matrix(0.010850694444444444,0,0,0.010850694444444444,85.29730902777777,0)" xlink:href="#aM"/><use transform="matrix(0.010850694444444444,0,0,0.010850694444444444,97.35243055555556,0)" xlink:href="#Z"/></g><path d="M600 0L52-1490h200c166 485 304 806 458 1336 156-533 285-846 449-1336h202L819 0H600" id="aP"/><g id="B"><use transform="matrix(0.010850694444444444,0,0,0.010850694444444444,0,0)" xlink:href="#aP"/><use transform="matrix(0.010850694444444444,0,0,0.010850694444444444,15.33203125,0)" xlink:href="#ab"/><use transform="matrix(0.010850694444444444,0,0,0.010850694444444444,20.713975694444443,0)" xlink:href="#aa"/><use transform="matrix(0.010850694444444444,0,0,0.010850694444444444,34.32074652777777,0)" xlink:href="#Z"/><use transform="matrix(0.010850694444444444,0,0,0.010850694444444444,47.276475694444436,0)" xlink:href="#ak"/></g><g id="C"><use transform="matrix(0.010850694444444444,0,0,0.010850694444444444,0,0)" xlink:href="#aF"/><use transform="matrix(0.010850694444444444,0,0,0.010850694444444444,14.2578125,0)" xlink:href="#Z"/><use transform="matrix(0.010850694444444444,0,0,0.010850694444444444,27.213541666666664,0)" xlink:href="#al"/><use transform="matrix(0.010850694444444444,0,0,0.010850694444444444,35.92664930555555,0)" xlink:href="#aM"/><use transform="matrix(0.010850694444444444,0,0,0.010850694444444444,48.41579861111111,0)" xlink:href="#ab"/><use transform="matrix(0.010850694444444444,0,0,0.010850694444444444,53.79774305555556,0)" xlink:href="#af"/><use transform="matrix(0.010850694444444444,0,0,0.010850694444444444,66.49305555555554,0)" xlink:href="#Z"/></g><g id="D"><use transform="matrix(0.010850694444444444,0,0,0.010850694444444444,0,0)" xlink:href="#av"/><use transform="matrix(0.010850694444444444,0,0,0.010850694444444444,15.33203125,0)" xlink:href="#aI"/><use transform="matrix(0.010850694444444444,0,0,0.010850694444444444,34.79817708333333,0)" xlink:href="#ae"/><use transform="matrix(0.010850694444444444,0,0,0.010850694444444444,47.27647569444444,0)" xlink:href="#aN"/><use transform="matrix(0.010850694444444444,0,0,0.010850694444444444,59.22309027777778,0)" xlink:href="#ak"/><use transform="matrix(0.010850694444444444,0,0,0.010850694444444444,72.54774305555554,0)" xlink:href="#au"/></g><path d="M645 0H180v-1490h484c435 0 692 280 692 742 0 466-257 748-711 748zM370-168h263c363 0 539-218 539-580 0-358-176-574-521-574H370v1154" id="aQ"/><g id="E"><use transform="matrix(0.010850694444444444,0,0,0.010850694444444444,0,0)" xlink:href="#Y"/><use transform="matrix(0.010850694444444444,0,0,0.010850694444444444,14.301215277777777,0)" xlink:href="#aQ"/><use transform="matrix(0.010850694444444444,0,0,0.010850694444444444,30.338541666666664,0)" xlink:href="#aF"/></g><g id="F"><use transform="matrix(0.010850694444444444,0,0,0.010850694444444444,0,0)" xlink:href="#Y"/><use transform="matrix(0.010850694444444444,0,0,0.010850694444444444,13.975694444444445,0)" xlink:href="#ak"/><use transform="matrix(0.010850694444444444,0,0,0.010850694444444444,27.30034722222222,0)" xlink:href="#ai"/><use transform="matrix(0.010850694444444444,0,0,0.010850694444444444,40.44053819444444,0)" xlink:href="#ar"/><use transform="matrix(0.010850694444444444,0,0,0.010850694444444444,47.49348958333333,0)" xlink:href="#Z"/></g><path d="M626 20c-262 0-458-168-468-396h184c12 133 134 229 284 229 180 0 311-137 311-326 0-192-136-335-323-335-92 0-196 33-255 78l-178-22 88-738h784v167H429l-51 435h8c61-51 160-87 263-87 273 0 474 211 474 499 0 286-210 496-497 496" id="aR"/><g id="G"><use transform="matrix(0.010850694444444444,0,0,0.010850694444444444,0,0)" xlink:href="#aR"/><use transform="matrix(0.010850694444444444,0,0,0.010850694444444444,13.509114583333332,0)" xlink:href="#aG"/></g><path d="M180 0v-1490h190c0 262 1 526-3 784 217-279 467-523 702-784h249L716-845 1319 0h-225L585-716 370-489V0H180" id="aS"/><g id="H"><use transform="matrix(0.010850694444444444,0,0,0.010850694444444444,0,0)" xlink:href="#aK"/><use transform="matrix(0.010850694444444444,0,0,0.010850694444444444,13.35720486111111,0)" xlink:href="#aS"/><use transform="matrix(0.010850694444444444,0,0,0.010850694444444444,28.070746527777775,0)" xlink:href="#aF"/></g><g id="I"><use transform="matrix(0.010850694444444444,0,0,0.010850694444444444,0,0)" xlink:href="#ad"/><use transform="matrix(0.010850694444444444,0,0,0.010850694444444444,16.23263888888889,0)" xlink:href="#at"/><use transform="matrix(0.010850694444444444,0,0,0.010850694444444444,21.614583333333336,0)" xlink:href="#ak"/><use transform="matrix(0.010850694444444444,0,0,0.010850694444444444,34.939236111111114,0)" xlink:href="#ai"/><use transform="matrix(0.010850694444444444,0,0,0.010850694444444444,48.07942708333333,0)" xlink:href="#aa"/></g><g id="J"><use transform="matrix(0.010850694444444444,0,0,0.010850694444444444,0,0)" xlink:href="#ad"/><use transform="matrix(0.010850694444444444,0,0,0.010850694444444444,16.23263888888889,0)" xlink:href="#at"/><use transform="matrix(0.010850694444444444,0,0,0.010850694444444444,21.614583333333336,0)" xlink:href="#ak"/><use transform="matrix(0.010850694444444444,0,0,0.010850694444444444,34.939236111111114,0)" xlink:href="#ai"/><use transform="matrix(0.010850694444444444,0,0,0.010850694444444444,48.07942708333333,0)" xlink:href="#aa"/><use transform="matrix(0.010850694444444444,0,0,0.010850694444444444,61.68619791666667,0)" xlink:href="#aJ"/><use transform="matrix(0.010850694444444444,0,0,0.010850694444444444,74.15364583333334,0)" xlink:href="#al"/><use transform="matrix(0.010850694444444444,0,0,0.010850694444444444,82.1506076388889,0)" xlink:href="#ak"/><use transform="matrix(0.010850694444444444,0,0,0.010850694444444444,95.47526041666666,0)" xlink:href="#au"/><use transform="matrix(0.010850694444444444,0,0,0.010850694444444444,108.60460069444444,0)" xlink:href="#ar"/></g><path d="M158 418v-1536h174v179h20c37-59 106-193 324-193 279 0 474 222 474 576 0 356-194 580-473 580-213 0-288-135-325-197h-14v591H158zm492-555c209 0 317-186 317-421 0-232-105-413-317-413-206 0-314 166-314 413 0 249 111 421 314 421" id="aT"/><g id="K"><use transform="matrix(0.010850694444444444,0,0,0.010850694444444444,0,0)" xlink:href="#av"/><use transform="matrix(0.010850694444444444,0,0,0.010850694444444444,15.33203125,0)" xlink:href="#aT"/><use transform="matrix(0.010850694444444444,0,0,0.010850694444444444,28.938802083333332,0)" xlink:href="#aT"/><use transform="matrix(0.010850694444444444,0,0,0.010850694444444444,42.545572916666664,0)" xlink:href="#at"/><use transform="matrix(0.010850694444444444,0,0,0.010850694444444444,47.92751736111111,0)" xlink:href="#ab"/><use transform="matrix(0.010850694444444444,0,0,0.010850694444444444,53.30946180555556,0)" xlink:href="#af"/><use transform="matrix(0.010850694444444444,0,0,0.010850694444444444,66.22178819444443,0)" xlink:href="#ae"/><use transform="matrix(0.010850694444444444,0,0,0.010850694444444444,78.70008680555554,0)" xlink:href="#ar"/><use transform="matrix(0.010850694444444444,0,0,0.010850694444444444,85.97005208333331,0)" xlink:href="#ab"/><use transform="matrix(0.010850694444444444,0,0,0.010850694444444444,91.35199652777776,0)" xlink:href="#ak"/><use transform="matrix(0.010850694444444444,0,0,0.010850694444444444,104.67664930555553,0)" xlink:href="#au"/></g><g id="L"><use transform="matrix(0.010850694444444444,0,0,0.010850694444444444,0,0)" xlink:href="#an"/><use transform="matrix(0.010850694444444444,0,0,0.010850694444444444,12.565104166666666,0)" xlink:href="#ak"/><use transform="matrix(0.010850694444444444,0,0,0.010850694444444444,26.106770833333332,0)" xlink:href="#ae"/><use transform="matrix(0.010850694444444444,0,0,0.010850694444444444,38.58506944444444,0)" xlink:href="#aa"/></g><g id="M"><use transform="matrix(0.010850694444444444,0,0,0.010850694444444444,0,0)" xlink:href="#ao"/><use transform="matrix(0.010850694444444444,0,0,0.010850694444444444,14.539930555555555,0)" xlink:href="#ae"/><use transform="matrix(0.010850694444444444,0,0,0.010850694444444444,27.018229166666664,0)" xlink:href="#at"/><use transform="matrix(0.010850694444444444,0,0,0.010850694444444444,32.40017361111111,0)" xlink:href="#ae"/><use transform="matrix(0.010850694444444444,0,0,0.010850694444444444,44.87847222222221,0)" xlink:href="#au"/><use transform="matrix(0.010850694444444444,0,0,0.010850694444444444,58.007812499999986,0)" xlink:href="#af"/><use transform="matrix(0.010850694444444444,0,0,0.010850694444444444,70.703125,0)" xlink:href="#Z"/><use transform="matrix(0.010850694444444444,0,0,0.010850694444444444,83.65885416666667,0)" xlink:href="#al"/></g><g id="N"><use transform="matrix(0.010850694444444444,0,0,0.010850694444444444,0,0)" xlink:href="#aJ"/><use transform="matrix(0.010850694444444444,0,0,0.010850694444444444,12.467447916666666,0)" xlink:href="#al"/><use transform="matrix(0.010850694444444444,0,0,0.010850694444444444,20.46440972222222,0)" xlink:href="#ak"/><use transform="matrix(0.010850694444444444,0,0,0.010850694444444444,33.7890625,0)" xlink:href="#au"/><use transform="matrix(0.010850694444444444,0,0,0.010850694444444444,46.91840277777778,0)" xlink:href="#ar"/><use transform="matrix(0.010850694444444444,0,0,0.010850694444444444,53.97135416666667,0)" xlink:href="#Z"/><use transform="matrix(0.010850694444444444,0,0,0.010850694444444444,66.92708333333334,0)" xlink:href="#au"/><use transform="matrix(0.010850694444444444,0,0,0.010850694444444444,80.05642361111111,0)" xlink:href="#aa"/></g><g id="O"><use transform="matrix(0.010850694444444444,0,0,0.010850694444444444,0,0)" xlink:href="#av"/><use transform="matrix(0.010850694444444444,0,0,0.010850694444444444,15.33203125,0)" xlink:href="#au"/><use transform="matrix(0.010850694444444444,0,0,0.010850694444444444,28.461371527777775,0)" xlink:href="#aa"/><use transform="matrix(0.010850694444444444,0,0,0.010850694444444444,42.068142361111114,0)" xlink:href="#al"/><use transform="matrix(0.010850694444444444,0,0,0.010850694444444444,50.065104166666664,0)" xlink:href="#ak"/><use transform="matrix(0.010850694444444444,0,0,0.010850694444444444,63.38975694444444,0)" xlink:href="#ab"/><use transform="matrix(0.010850694444444444,0,0,0.010850694444444444,68.77170138888889,0)" xlink:href="#aa"/></g><path d="M784 20c-382 0-662-292-662-764 0-473 280-766 662-766s660 293 660 766c0 472-278 764-660 764zm0-176c266 0 475-207 475-588 0-383-209-590-475-590-268 0-477 208-477 590 0 380 209 588 477 588" id="aU"/><g id="P"><use transform="matrix(0.010850694444444444,0,0,0.010850694444444444,0,0)" xlink:href="#aO"/><use transform="matrix(0.010850694444444444,0,0,0.010850694444444444,5.967881944444445,0)" xlink:href="#aU"/><use transform="matrix(0.010850694444444444,0,0,0.010850694444444444,22.960069444444443,0)" xlink:href="#aF"/></g><linearGradient gradientUnits="userSpaceOnUse" id="Q" x1="1860" y1="140" x2="1980" y2="220"><stop offset="0%" stop-color="#5b738b"/><stop offset="100%" stop-color="#223548"/></linearGradient><g id="R"><use transform="matrix(0.010850694444444444,0,0,0.010850694444444444,0,0)" xlink:href="#aj"/><use transform="matrix(0.010850694444444444,0,0,0.010850694444444444,20.768229166666668,0)" xlink:href="#Z"/><use transform="matrix(0.010850694444444444,0,0,0.010850694444444444,33.723958333333336,0)" xlink:href="#aq"/></g><g id="S"><use transform="matrix(0.010850694444444444,0,0,0.010850694444444444,0,0)" xlink:href="#aF"/><use transform="matrix(0.010850694444444444,0,0,0.010850694444444444,14.2578125,0)" xlink:href="#ab"/><use transform="matrix(0.010850694444444444,0,0,0.010850694444444444,19.639756944444443,0)" xlink:href="#aI"/><use transform="matrix(0.010850694444444444,0,0,0.010850694444444444,39.10590277777777,0)" xlink:href="#aT"/><use transform="matrix(0.010850694444444444,0,0,0.010850694444444444,52.7126736111111,0)" xlink:href="#at"/><use transform="matrix(0.010850694444444444,0,0,0.010850694444444444,58.09461805555554,0)" xlink:href="#Z"/></g><path d="M180 0v-1490h224l606 953c40 63 108 177 176 312-27-437-7-821-13-1265h190V0h-226C860-448 622-778 356-1262c27 476 11 792 15 1262H180" id="aV"/><path d="M678-1118v154H420V0H240v-964H20v-154h220v-149c0-194 155-293 318-293 85 0 141 18 168 30l-50 154c-19-6-47-17-97-17-111 0-159 58-159 166v109h258" id="aW"/><g id="T"><use transform="matrix(0.010850694444444444,0,0,0.010850694444444444,0,0)" xlink:href="#aV"/><use transform="matrix(0.010850694444444444,0,0,0.010850694444444444,16.74262152777778,0)" xlink:href="#ak"/><use transform="matrix(0.010850694444444444,0,0,0.010850694444444444,30.06727430555556,0)" xlink:href="#ar"/><use transform="matrix(0.010850694444444444,0,0,0.010850694444444444,37.337239583333336,0)" xlink:href="#ab"/><use transform="matrix(0.010850694444444444,0,0,0.010850694444444444,42.71918402777778,0)" xlink:href="#aW"/><use transform="matrix(0.010850694444444444,0,0,0.010850694444444444,50.94401041666667,0)" xlink:href="#ab"/><use transform="matrix(0.010850694444444444,0,0,0.010850694444444444,56.32595486111112,0)" xlink:href="#af"/><use transform="matrix(0.010850694444444444,0,0,0.010850694444444444,69.23828125,0)" xlink:href="#ae"/><use transform="matrix(0.010850694444444444,0,0,0.010850694444444444,81.71657986111111,0)" xlink:href="#ar"/><use transform="matrix(0.010850694444444444,0,0,0.010850694444444444,88.98654513888889,0)" xlink:href="#ab"/><use transform="matrix(0.010850694444444444,0,0,0.010850694444444444,94.36848958333333,0)" xlink:href="#ak"/><use transform="matrix(0.010850694444444444,0,0,0.010850694444444444,107.69314236111111,0)" xlink:href="#au"/></g><g id="U"><use transform="matrix(0.010850694444444444,0,0,0.010850694444444444,0,0)" xlink:href="#aF"/><use transform="matrix(0.010850694444444444,0,0,0.010850694444444444,14.2578125,0)" xlink:href="#Z"/><use transform="matrix(0.010850694444444444,0,0,0.010850694444444444,27.213541666666664,0)" xlink:href="#al"/><use transform="matrix(0.010850694444444444,0,0,0.010850694444444444,35.92664930555555,0)" xlink:href="#aM"/><use transform="matrix(0.010850694444444444,0,0,0.010850694444444444,48.41579861111111,0)" xlink:href="#ab"/><use transform="matrix(0.010850694444444444,0,0,0.010850694444444444,53.79774305555556,0)" xlink:href="#af"/><use transform="matrix(0.010850694444444444,0,0,0.010850694444444444,66.49305555555554,0)" xlink:href="#Z"/></g><g id="V"><use transform="matrix(0.010850694444444444,0,0,0.010850694444444444,0,0)" xlink:href="#ap"/><use transform="matrix(0.010850694444444444,0,0,0.010850694444444444,8.10546875,0)" xlink:href="#av"/><use transform="matrix(0.010850694444444444,0,0,0.010850694444444444,23.4375,0)" xlink:href="#aI"/><use transform="matrix(0.010850694444444444,0,0,0.010850694444444444,42.90364583333333,0)" xlink:href="#ae"/><use transform="matrix(0.010850694444444444,0,0,0.010850694444444444,55.38194444444444,0)" xlink:href="#aN"/><use transform="matrix(0.010850694444444444,0,0,0.010850694444444444,67.32855902777777,0)" xlink:href="#ak"/><use transform="matrix(0.010850694444444444,0,0,0.010850694444444444,80.65321180555554,0)" xlink:href="#au"/></g><g id="W"><use transform="matrix(0.010850694444444444,0,0,0.010850694444444444,0,0)" xlink:href="#aF"/><use transform="matrix(0.010850694444444444,0,0,0.010850694444444444,14.2578125,0)" xlink:href="#aV"/><use transform="matrix(0.010850694444444444,0,0,0.010850694444444444,31.000434027777775,0)" xlink:href="#aF"/><use transform="matrix(0.010850694444444444,0,0,0.010850694444444444,45.25824652777778,0)" xlink:href="#as"/></g><path d="M75-1237v-253h1217v253H837V0H531v-1237H75" id="aX"/><path d="M128 0v-1118h290v195h12c54-169 184-238 367-200v268c-27-8-86-15-130-15-138 0-239 95-239 234V0H128" id="aY"/><path d="M440 22C227 22 68-92 68-313c0-250 202-322 422-343 195-21 271-24 271-105 0-95-63-149-175-149-116 0-187 57-211 129l-275-46c57-194 237-305 487-305 240 0 474 108 474 379V0H777v-155h-10C713-51 605 22 440 22zm85-211c140 0 238-93 238-211v-121c-37 26-156 42-222 51-111 16-185 59-185 149 0 87 70 132 169 132" id="aZ"/><path d="M428-647V0H128v-1118h283l4 231c63-156 176-245 348-245 232 0 384 159 384 421V0H847v-659c0-139-76-222-202-222-128 0-217 86-217 234" id="ba"/><path d="M572 22C302 22 117-98 78-306l279-48c29 105 101 156 224 156 114 0 185-48 185-115 0-118-228-130-337-155-215-49-322-150-322-317 0-215 187-347 470-347 265 0 424 116 466 298l-266 47c-24-76-87-130-196-130-98 0-174 46-174 113 0 56 38 95 144 117l201 40c216 44 320 143 320 302 0 220-207 367-500 367" id="bb"/><path d="M628 22C291 22 81-210 81-554c0-346 210-578 547-578 265 0 455 142 497 372l-279 52c-25-116-99-188-215-188-160 0-244 139-244 341 0 200 84 341 244 341 116 0 193-74 217-195l279 51C1085-123 896 22 628 22" id="bc"/><path d="M628 22C291 22 81-210 81-554c0-346 210-578 547-578 336 0 547 232 547 578 0 344-211 576-547 576zm0-236c160 0 242-146 242-341 0-197-82-341-242-341S387-753 387-555c0 195 81 341 241 341" id="bd"/><path d="M537 19C279 19 81-185 81-557c0-382 206-575 454-575 190 0 278 113 318 202h10v-560h300V0H868v-179h-15C812-89 719 19 537 19zm92-241c153 0 240-134 240-336 0-203-86-334-240-334-158 0-240 138-240 334 0 197 84 336 240 336" id="be"/><path d="M633 22C291 22 81-200 81-553c0-345 210-579 537-579 292 0 525 185 525 567v84H378c7 183 109 277 260 277 105 0 184-46 216-132l272 51C1071-99 893 22 633 22zM380-669h474c-15-146-94-237-233-237-143 0-229 99-241 237" id="bf"/><g id="X"><use transform="matrix(0.010850694444444444,0,0,0.010850694444444444,0,0)" xlink:href="#aX"/><use transform="matrix(0.010850694444444444,0,0,0.010850694444444444,13.57421875,0)" xlink:href="#aY"/><use transform="matrix(0.010850694444444444,0,0,0.010850694444444444,22.31987847222222,0)" xlink:href="#aZ"/><use transform="matrix(0.010850694444444444,0,0,0.010850694444444444,35.221354166666664,0)" xlink:href="#ba"/><use transform="matrix(0.010850694444444444,0,0,0.010850694444444444,49.05598958333333,0)" xlink:href="#bb"/><use transform="matrix(0.010850694444444444,0,0,0.010850694444444444,61.50173611111111,0)" xlink:href="#bc"/><use transform="matrix(0.010850694444444444,0,0,0.010850694444444444,74.57682291666666,0)" xlink:href="#bd"/><use transform="matrix(0.010850694444444444,0,0,0.010850694444444444,88.20529513888889,0)" xlink:href="#be"/><use transform="matrix(0.010850694444444444,0,0,0.010850694444444444,102.21354166666666,0)" xlink:href="#bf"/><path d="M-1.1 4.54h117.66V6.6H-1.1z"/></g></defs></g></svg>