<svg xmlns="http://www.w3.org/2000/svg" width="120" height="60" preserveAspectRatio="xMidYMid" viewBox="0 0 24.576 12.291"><defs><linearGradient id="a" x1="5.586" x2="5.586" y1="2.286" y2="8.117" gradientUnits="userSpaceOnUse"><stop offset="0%" stop-color="#97d9f6"/><stop offset="92.024%" stop-color="#0f80cc"/><stop offset="100%" stop-color="#0f80cc"/></linearGradient></defs><path fill="#003b57" d="M10.215 5.674q-.414 0-.672.245c-.258.245-.26.378-.26.64q0 .204.064.374c.064.17.11.22.198.315s.268.225.535.4q.49.3.644.488a.62.62 0 0 1 .154.397q.002.277-.186.443c-.188.166-.293.166-.5.166-.22 0-.4-.077-.574-.23s-.247-.357-.25-.612h-.102v.924h.102q.045-.132.13-.132c.027 0 .09.02.2.054q.36.128.594.127a.94.94 0 0 0 .687-.284.94.94 0 0 0 .286-.688q0-.312-.188-.554c-.188-.242-.366-.35-.728-.565q-.466-.28-.606-.458a.62.62 0 0 1-.141-.393.46.46 0 0 1 .17-.374.68.68 0 0 1 .445-.14q.312 0 .518.186a.78.78 0 0 1 .24.518h.102v-.8h-.095q-.018.06-.032.08c-.014.02-.028.018-.055.018a.7.7 0 0 1-.175-.04q-.27-.09-.495-.09zm3.33 0q-.503 0-.917.238a1.75 1.75 0 0 0-.656.658 1.76 1.76 0 0 0-.241.894 1.7 1.7 0 0 0 .42 1.137q.422.499 1.008.62.134.07.384.36.284.33.48.472a1.4 1.4 0 0 0 .422.209 1.7 1.7 0 0 0 .486.068q.316 0 .57-.113l-.038-.093a.822.822 0 0 1-.757-.095q-.225-.147-.56-.56l-.218-.248q.643-.124 1.053-.622a1.73 1.73 0 0 0 .411-1.134 1.7 1.7 0 0 0-.535-1.271 1.82 1.82 0 0 0-1.312-.52m2.08 0 .005.11q.336 0 .377.198.015.072.016.26l-.002 2.412q-.003.27-.077.345c-.074.075-.133.08-.254.093l-.005.11h2.23l.057-.547h-.102q-.044.225-.202.316c-.158.091-.295.09-.567.09h-.21q-.367 0-.424-.266a.6.6 0 0 1-.011-.114l.01-2.44q0-.27.07-.36c.07-.09.133-.092.257-.1l-.005-.11zm-2.044.132a1.13 1.13 0 0 1 .928.451q.359.451.358 1.237 0 .743-.36 1.19a1.17 1.17 0 0 1-.96.447 1.12 1.12 0 0 1-.932-.461q-.357-.462-.356-1.2c0-.505.12-.9.36-1.212s.56-.452.964-.452zm5.13.52a.16.16 0 0 0-.127.055.15.15 0 0 0-.03.136.24.24 0 0 0 .088.138q.07.06.152.06c.082 0 .093-.02.122-.06s.038-.085.027-.138-.04-.1-.084-.136-.094-.055-.147-.055zm1.47.37q-.139.533-.6.58l.004.102h.36L19.94 8.58l.02.413q.053.251.327.252.395 0 .83-.483l-.088-.075q-.314.318-.556.318-.149 0-.184-.17a.4.4 0 0 1-.009-.097l.004-1.364h.55l-.005-.163h-.542v-.518zm2.122.454q-.46.001-.75.445c-.29.444-.253.625-.177.987a.85.85 0 0 0 .27.492.77.77 0 0 0 .515.173c.192 0 .46-.05.572-.147s.217-.257.313-.474l-.077-.08a.83.83 0 0 1-.696.424c-.32 0-.517-.176-.6-.526a1 1 0 0 1-.021-.143q.571-.09.865-.322c.294-.232.39-.32.354-.492a.4.4 0 0 0-.157-.245c-.083-.06-.3-.093-.42-.093zm-3.356.013-.662.152v.118l.23-.03q.165 0 .197.15a1 1 0 0 1 .013.139l-.007 1.082q-.002.225-.052.263c-.05.038-.123.04-.266.04l-.004.102h1.05l-.002-.102q-.219.001-.282-.034c-.063-.035-.07-.063-.082-.125a1.2 1.2 0 0 1-.014-.23l.004-1.527h-.12zm3.188.2q.096 0 .188.073c.092.073.1.102.11.16q.091.431-.77.597c-.016-.2.02-.4.113-.572s.212-.26.358-.26z"/><path fill="#0f80cc" d="M8.324 1.954H2.63a.696.696 0 0 0-.694.694v6.28c0 .382.312.694.694.694h3.75c-.043-1.866.595-5.487 1.944-7.666z"/><path fill="url(#a)" d="M8.117 2.156H2.63a.49.49 0 0 0-.491.491v5.82c1.243-.477 3.107-.888 4.397-.87.26-1.355 1.02-4 1.58-5.442z"/><path fill="#003b57" d="M9.652 1.748c-.4-.348-.862-.208-1.328.205l-.207.202C7.32 3.002 6.58 4.568 6.35 5.764c.1.182.16.413.206.6l.03.124.03.14s-.007-.027-.036-.112l-.02-.055-.012-.03a7 7 0 0 0-.26-.487 12 12 0 0 0-.142.444c.183.334.294.907.294.907s-.01-.037-.056-.167c-.04-.115-.244-.47-.292-.554-.082.304-.115.51-.085.56.057.097.112.264.16.448a10 10 0 0 1 .183.922l.007.085A9 9 0 0 0 6.38 9.62c.036.433.103.805.19 1.005l.058-.032c-.126-.392-.178-.907-.155-1.5.034-.907.243-2 .628-3.14.65-1.72 1.555-3.1 2.382-3.76-.754.68-1.774 2.884-2.08 3.7-.342.914-.584 1.77-.73 2.593.252-.77 1.067-1.1 1.067-1.1s.4-.493.866-1.197l-.893.238-.288.128s.735-.448 1.366-.65c.867-1.366 1.812-3.307.86-4.155"/></svg>