<svg xmlns="http://www.w3.org/2000/svg" xmlns:xlink="http://www.w3.org/1999/xlink" xmlns:lucid="lucid" width="2022" height="1142"><g transform="translate(-1869 -279)" lucid:page-tab-id="0_0"><path d="M1870 286a6 6 0 0 1 6-6h2008a6 6 0 0 1 6 6v1128a6 6 0 0 1-6 6H1876a6 6 0 0 1-6-6z" stroke="#000" stroke-width="2" fill="#dfe3e8"/><path d="M2200 586a6 6 0 0 1 6-6h1348a6 6 0 0 1 6 6v488a6 6 0 0 1-6 6H2206a6 6 0 0 1-6-6z" stroke="#000" stroke-width="2" fill="#979ea8"/><path d="M2908.82 714.65c2.76-2.32 5.4-4.64 8.16-6.98.84-.8 1.9-1.63 2.75-2.46-.72-.9-1.9-1.6-3-1.97-2.03-.8-4.07-.54-6 .57-2.5 1.46-3.6 3.78-3.6 6.67.13 1.15.37 2.23.97 3.2.24.35.48.66.72.98m3.12 2.2c1.32.46 2.88.4 4.2.14.72-.3 2.52-1.06 3.1-.95h.13l.12.06c.35.2.7.47.95.9.48.94.24 1.88-.72 2.43l-.24.2c-3.48 2-7.2 1.7-10.56-.15-1.68-.88-2.88-2.23-3.84-3.83l-.24-.37c-2.16-3.87-1.9-7.9.6-11.56.84-1.26 1.92-2.26 3.24-3l.6-.3c3.24-1.88 6.72-1.76 10.07-.1 1.68.88 3.24 2.2 4.2 3.94l.12.32c.83 1.26-.13 2.37-1.1 3.12-1.2.88-2.27 1.94-3.35 2.86-2.5 2.1-4.9 4.2-7.3 6.3zm25.9-17.5h.36c1.08 0 1.8.74 1.8 1.82 0 1.52-1.44 1.9-2.64 1.9-1.68 0-3.24 1-4.32 2.1-1.43 1.38-2.03 3.16-2.03 5.13v8.8c0 1.04-.6 1.84-1.67 1.84h-.36c-.96 0-1.68-.8-1.68-1.83v-9.32c0-3.57 1.8-6.52 4.66-8.55 1.8-1.23 3.72-1.9 5.88-1.9zm-45.33 6.26c1.45-1.4 2.77-2.83 4.2-4.23.5-.37 1.93-2.03 2.53-2.03h.72v.03c.84.17 1.44.7 1.44 1.57v.38c0 .6-.6 1.3-1.1 1.74-.83.9-1.67 1.75-2.5 2.6l-4.45 4.47c1.92 1.9 3.84 3.8 5.64 5.72.6.54 1.07 1.1 1.55 1.6.24.2.48.43.6.72.24.23.24.5.24.8v.5c-.13.8-.73 1.47-1.57 1.47h-.36c-.6 0-1.32-.68-1.68-1.06-.85-.8-1.7-1.65-2.53-2.5l-2.76-2.73v4.4c0 1-.6 1.84-1.67 1.84h-.24c-1.1 0-1.68-.84-1.68-1.85v-24.77c0-1 .6-1.8 1.67-1.8h.23c1.08 0 1.68.8 1.68 1.8v11.33zm-11.86-2.45c-.48-.26-1.56-.35-2.16-.38-3-.1-5.16 1.6-6.47 4.3-.47.9-.6 1.9-.6 2.94 0 3.13 1.57 5.3 4.32 6.65 1.08.5 2.4.57 3.48.57.96 0 2.4-.6 3.24-1l.12-.08h.72v.02c.84.18 1.56.7 1.56 1.58v.37c0 2.24-4.08 2.73-5.64 2.84-5.5.38-9.6-2.63-11.15-7.84-.24-.88-.36-1.8-.36-2.74v-.72c0-3.95 2.03-7.1 5.4-9.1 1.54-.94 3.22-1.43 5.14-1.43h.72c1.92 0 3.72.58 5.28 1.67l.12.1.12.13c.12.3.36.63.36.97v.35c0 .94-.72 1.43-1.56 1.6l-.12.03h-.24c-.48-.03-1.68-.57-2.28-.8zm-33.1 6.92c0 2.78 1.32 4.8 3.72 6.27 1.08.65 2.28.97 3.6.97 2.64 0 4.67-1.4 6.1-3.7.73-1.1.97-2.33.97-3.6 0-2.6-1.2-4.54-3.36-5.97-1.2-.8-2.4-1.17-3.83-1.17-3 0-5.28 1.55-6.6 4.26-.36.95-.6 1.92-.6 2.95zm6.84-10.87h.48c4.2 0 7.43 2.06 9.47 5.75.84 1.46 1.2 3.06 1.2 4.75v.74c0 3.95-1.92 7.1-5.28 9.1-1.55.92-3.35 1.4-5.15 1.4h-.72c-3.96 0-7.08-1.94-9.12-5.35-.84-1.58-1.32-3.33-1.32-5.16v-.74c0-3.95 1.92-7.07 5.28-9.1 1.56-.94 3.36-1.4 5.16-1.4zm-30.7 10.87c0 2.86 1.44 5 3.96 6.38.96.54 2.04.86 3.23.86 2.76 0 4.8-1.3 6.24-3.68.73-1.12.97-2.32.97-3.6 0-2.5-1.08-4.4-3.12-5.87-1.2-.86-2.52-1.3-4.08-1.3-3 0-5.15 1.56-6.47 4.27-.48.95-.72 1.92-.72 2.95zm14.4-8.15v-7.7c0-1.03.7-1.83 1.67-1.83h.36c1.1 0 1.7.8 1.7 1.82v16.22c0 3.95-1.93 7.1-5.4 9.1-1.57.92-3.25 1.4-5.17 1.4h-.72c-3.94 0-7.06-1.94-8.98-5.35-.96-1.58-1.44-3.33-1.44-5.16v-.74c0-3.95 1.92-7.1 5.4-9.1 1.56-.94 3.24-1.4 5.03-1.4h.73c2.76 0 5.04 1.03 6.84 2.72zM2889.18 641.55H2900v10.98h5.36c2.52 0 5.15-.4 7.46-1.23 1.15-.4 2.52-.95 3.67-1.64-1.58-1.98-2.32-4.5-2.53-6.95-.3-3.4.32-7.77 2.63-10.36l1.15-1.3 1.26 1.03c3.48 2.73 6.32 6.55 6.74 10.9 4.1-1.22 8.93-.88 12.5 1.17l1.47.9-.73 1.5c-3.04 5.92-9.45 7.76-15.65 7.42-9.24 23.25-29.5 34.23-54 34.23-12.7 0-24.36-4.78-30.97-16.03l-.1-.2-.95-2c-2.2-4.96-2.95-10.35-2.53-15.8l.2-1.64h9.15v-10.98h10.72v-10.78h21.53V620h12.8v21.55z" stroke="#000" stroke-opacity="0" fill="#394d54"/><path d="M2924.02 645.6c.7-5.6-3.53-10-6.05-12.1-3.03 3.5-3.53 12.53 1.2 16.4-2.6 2.32-8.16 4.44-13.8 4.44h-68.8c-.52 5.92.5 11.37 2.9 16.03l.72 1.43c.5.84 1.1 1.64 1.7 2.43 2.83.2 5.35.26 7.77.2 4.74-.1 8.48-.68 11.4-1.68.4-.1.9.1 1.1.53.1.42-.1.9-.5 1.06-.4.15-.8.26-1.2.37-2.32.64-4.74 1.12-7.97 1.33h-.2c-.1 0-.2 0-.3.05-1.22.05-2.63.05-3.94.05-1.5 0-3.03 0-4.64-.1l-.1.05c5.75 6.45 14.72 10.32 25.92 10.32 23.8 0 44-10.58 52.87-34.28 6.36.63 12.5-1 15.24-6.4-4.44-2.6-10.1-1.75-13.32-.1z" stroke="#000" stroke-opacity="0" fill="#00aada"/><path d="M2924 645.6c.67-5.6-3.5-10-6.03-12.1-3 3.45-3.52 12.55 1.17 16.37-2.6 2.37-8.12 4.46-13.73 4.46h-64.74c-.25 9.05 3.1 15.97 9.04 20.1 4.7-.1 8.46-.68 11.4-1.68.4-.13.92.1 1 .55.17.4 0 .86-.5 1.04-.34.14-.76.23-1.17.37-2.27.64-4.95 1.14-8.13 1.37l-.08-.1c8.12 4.2 19.85 4.15 33.34-1.04 15.07-5.77 29.06-16.87 38.86-29.52-.17.06-.25.15-.42.2z" stroke="#000" stroke-opacity="0" fill="#24b8eb"/><path d="M2836.73 661.52c.4 3.16 1.38 6.14 2.75 8.85l.73 1.42c.5.84 1.06 1.66 1.63 2.43 2.83.2 5.5.25 7.84.2 4.7-.1 8.5-.65 11.4-1.67.4-.15.9.08 1.06.52.16.43-.08.9-.5 1.05-.4.15-.8.27-1.2.37-2.26.67-4.93 1.12-8.1 1.32-.07.02-.3.02-.4.02-1.2.08-2.58.1-3.96.1-1.45 0-3-.02-4.7-.1 5.76 6.47 14.82 10.35 26.06 10.35 20.3 0 38.02-7.77 48.3-24.88h-80.9z" stroke="#000" stroke-opacity="0" fill="#008bb8"/><path d="M2841.3 661.52c1.2 5.56 4.16 9.93 8.4 12.9 4.63-.08 8.46-.64 11.35-1.66.47-.14.94.1 1.08.5.13.45-.07.92-.47 1.08-.4.12-.8.26-1.2.36-2.3.67-5.05 1.14-8.2 1.33 8.12 4.16 19.8 4.1 33.26-1.08 8.13-3.13 15.93-7.8 22.98-13.43h-67.2z" stroke="#000" stroke-opacity="0" fill="#039bc6"/><path d="M2853.73 644.1h.74v7.78h-.74v-7.78zm-1.4 0h.75v7.78h-.76v-7.78zm-1.42 0h.78v7.78h-.77v-7.78zm-1.4 0h.76v7.78h-.76v-7.78zm-1.4 0h.76v7.78h-.78v-7.78zm-1.4 0h.74v7.78h-.73v-7.78zm-.76-.77h9.3v9.33h-9.3v-9.33zM2864.46 633.33h.74v7.78h-.74v-7.77zm-1.4 0h.75v7.78h-.75v-7.77zm-1.42 0h.77v7.78h-.76v-7.77zm-1.4 0h.75v7.78h-.77v-7.77zm-1.4 0h.75v7.78h-.78v-7.77zm-1.4 0h.73v7.78h-.73v-7.77zm-.77-.77h9.3v9.33h-9.3v-9.34z" stroke="#000" stroke-opacity="0" fill="#00acd3"/><path d="M2864.46 644.1h.74v7.78h-.74v-7.78zm-1.4 0h.75v7.78h-.75v-7.78zm-1.42 0h.77v7.78h-.76v-7.78zm-1.4 0h.75v7.78h-.77v-7.78zm-1.4 0h.75v7.78h-.78v-7.78zm-1.4 0h.73v7.78h-.73v-7.78zm-.77-.77h9.3v9.33h-9.3v-9.33z" stroke="#000" stroke-opacity="0" fill="#20c2ef"/><path d="M2875.2 644.1h.73v7.78h-.73v-7.78zm-1.42 0h.76v7.78h-.76v-7.78zm-1.4 0h.76v7.78h-.76v-7.78zm-1.42 0h.77v7.78h-.77v-7.78zm-1.4 0h.76v7.78h-.76v-7.78zm-1.4 0h.75v7.78h-.73v-7.78zm-.76-.77h9.3v9.33h-9.3v-9.33z" stroke="#000" stroke-opacity="0" fill="#00acd3"/><path d="M2875.2 633.33h.73v7.78h-.73v-7.77zm-1.42 0h.76v7.78h-.76v-7.77zm-1.4 0h.76v7.78h-.76v-7.77zm-1.42 0h.77v7.78h-.77v-7.77zm-1.4 0h.76v7.78h-.76v-7.77zm-1.4 0h.75v7.78h-.73v-7.77zm-.76-.77h9.3v9.33h-9.3v-9.34zM2885.93 644.1h.73v7.78h-.73v-7.78zm-1.42 0h.78v7.78h-.77v-7.78zm-1.4 0h.77v7.78h-.76v-7.78zm-1.4 0h.76v7.78h-.77v-7.78zm-1.4 0h.75v7.78h-.76v-7.78zm-1.4 0h.74v7.78h-.74v-7.78zm-.77-.77h9.3v9.33h-9.3v-9.33z" stroke="#000" stroke-opacity="0" fill="#20c2ef"/><path d="M2885.93 633.33h.73v7.78h-.73v-7.77zm-1.42 0h.78v7.78h-.77v-7.77zm-1.4 0h.77v7.78h-.76v-7.77zm-1.4 0h.76v7.78h-.77v-7.77zm-1.4 0h.75v7.78h-.76v-7.77zm-1.4 0h.74v7.78h-.74v-7.77zm-.77-.77h9.3v9.33h-9.3v-9.34z" stroke="#000" stroke-opacity="0" fill="#00acd3"/><path d="M2885.93 622.57h.73v7.78h-.73v-7.78zm-1.42 0h.78v7.78h-.77v-7.78zm-1.4 0h.77v7.78h-.76v-7.78zm-1.4 0h.76v7.78h-.77v-7.78zm-1.4 0h.75v7.78h-.76v-7.78zm-1.4 0h.74v7.78h-.74v-7.78zm-.77-.78h9.3v9.33h-9.3v-9.34z" stroke="#000" stroke-opacity="0" fill="#20c2ef"/><path d="M2896.66 644.1h.73v7.78h-.74v-7.78zm-1.4 0h.75v7.78h-.76v-7.78zm-1.42 0h.76v7.78h-.76v-7.78zm-1.4 0h.75v7.78h-.77v-7.78zm-1.42 0h.76v7.78h-.76v-7.78zm-1.38 0h.73v7.78h-.73v-7.78zm-.78-.77h9.3v9.33h-9.3v-9.33z" stroke="#000" stroke-opacity="0" fill="#00acd3"/><path d="M2865.4 667.8c1.4 0 2.55 1.14 2.55 2.56 0 1.42-1.15 2.57-2.56 2.57-1.43 0-2.58-1.15-2.58-2.57s1.15-2.57 2.57-2.57" stroke="#000" stroke-opacity="0" fill="#d4edf1"/><path d="M2865.4 668.52c.22 0 .45.04.65.12-.22.13-.37.37-.37.65 0 .4.33.74.75.74.28 0 .53-.15.66-.4.07.23.13.47.13.72 0 1.02-.83 1.85-1.84 1.85-1.03 0-1.85-.82-1.85-1.84s.82-1.84 1.84-1.84M2820 662.45h119.37c-2.63-.66-8.24-1.56-7.28-4.97-4.8 5.5-16.13 3.85-19 1.14-3.22 4.67-21.84 2.9-23.15-.74-4.06 4.73-16.47 4.73-20.53 0-1.32 3.63-19.94 5.4-23.16.74-2.86 2.7-14.2 4.35-18.98-1.14.96 3.42-4.65 4.3-7.28 4.97" stroke="#000" stroke-opacity="0" fill="#394d54"/><path d="M2872.2 686.33c-6.36-3.02-9.83-7.13-11.8-11.62-2.35.7-5.18 1.12-8.48 1.3-1.23.08-2.54.1-3.9.1-1.6 0-3.25-.04-5-.13 5.83 5.84 13 10.34 26.27 10.42.95 0 1.94-.02 2.9-.07z" stroke="#000" stroke-opacity="0" fill="#bfdbe0"/><path d="M2862.78 678.85c-.87-1.2-1.73-2.7-2.35-4.14-2.37.68-5.2 1.12-8.5 1.3 2.27 1.24 5.5 2.38 10.86 2.85z" stroke="#000" stroke-opacity="0" fill="#d4edf1"/><use xlink:href="#a" transform="matrix(1,0,0,1,2790,730) translate(52.46202256944444 21.52777777777778)"/><path d="M2280 786a6 6 0 0 1 6-6h148a6 6 0 0 1 6 6v108a6 6 0 0 1-6 6h-148a6 6 0 0 1-6-6z" stroke="#000" stroke-width="2" fill="#dfe3e8"/><use xlink:href="#b" transform="matrix(1,0,0,1,2292,792.0000000000001) translate(26.246527777777786 24.52777777777778)"/><use xlink:href="#c" transform="matrix(1,0,0,1,2292,792.0000000000001) translate(50.253689236111114 56.79340277777778)"/><use xlink:href="#d" transform="matrix(1,0,0,1,2292,792.0000000000001) translate(14.679687500000007 89.05902777777777)"/><path d="M2500 1126a6 6 0 0 1 6-6h748a6 6 0 0 1 6 6v248a6 6 0 0 1-6 6h-748a6 6 0 0 1-6-6z" stroke="#000" stroke-width="2" fill="#dfe3e8"/><path d="M3064.5 1288.28c0-4.92-2.64-9.48-6.82-11.88-.88-.48-1.43-1.44-1.43-2.4v-67.68c0-3-2.42-5.52-5.5-5.52s-5.5 2.52-5.5 5.52V1274c0 .96-.55 1.92-1.32 2.4-4.3 2.4-6.93 6.96-6.93 11.88 0 7.44 6.16 13.56 13.75 13.56 7.6 0 13.75-6.12 13.75-13.56m5.5 0c0 10.44-8.7 19.08-19.25 19.08-10.56 0-19.25-8.64-19.25-19.08 0-6.36 3.08-12.12 8.25-15.72v-66.24c0-6 4.95-10.92 11-10.92s11 4.92 11 10.92v66.12c5.17 3.6 8.25 9.48 8.25 15.84m-13.75 0c0-3-2.42-5.52-5.5-5.52s-5.5 2.52-5.5 5.52c0 3 2.42 5.4 5.5 5.4s5.5-2.4 5.5-5.4m5.5 0c0 6-4.95 10.92-11 10.92s-11-4.92-11-10.92c0-5.16 3.52-9.36 8.25-10.56v-22.2h5.5v22.2c4.73 1.2 8.25 5.4 8.25 10.56m-33.66 11.16l2.3 4.92c-7.48 3.6-18.92 5.64-31.57 5.64-23.2 0-38.83-6.72-38.83-16.68v-87h.1c.56-9.84 16.4-16.32 39.72-16.32 13.1 0 25.08 2.16 32.78 5.88l-2.42 4.92c-6.93-3.36-18.26-5.28-30.36-5.28-21.23 0-34.32 5.88-34.32 11.4 0 5.52 13.1 11.4 34.32 11.4 12.2 0 23.65-2.04 30.47-5.4l2.4 4.8c-7.7 3.84-19.68 6-32.88 6-15.5 0-27.72-2.88-34.32-7.68v21.24c0 5.4 13.1 11.4 34.32 11.4 12.2 0 23.54-2.04 30.36-5.4l2.42 4.92c-7.7 3.72-19.58 5.88-32.78 5.88-15.5 0-27.72-2.88-34.32-7.68v19.2c0 5.64 12.87 11.4 34.32 11.4 10.67 0 20.68-1.56 27.6-4.2l2 5.16c-7.7 2.88-18.16 4.44-29.6 4.44-15.5 0-27.72-2.88-34.32-7.68v18.6c0 5.52 12.43 11.16 33.33 11.16 11.77 0 22.44-1.8 29.26-5.04" stroke="#000" stroke-opacity="0" fill="#232f3e"/><use xlink:href="#e" transform="matrix(1,0,0,1,2930,1319) translate(8.681640625 21.52777777777778)"/><use xlink:href="#f" transform="matrix(1,0,0,1,2930,1319) translate(112.77235243055556 21.52777777777778)"/><use xlink:href="#g" transform="matrix(1,0,0,1,2930,1319) translate(43.968098958333336 53.79340277777778)"/><path d="M2804 1190c8.84 0 16 26.86 16 60s-7.16 60-16 60h-128c-8.84 0-16-26.86-16-60s7.16-60 16-60z" stroke="#000" stroke-width="2" fill="#fafbfc"/><path d="M2804 1310c-8.84 0-16-26.86-16-60s7.16-60 16-60" stroke="#000" stroke-width="2" fill="none"/><use xlink:href="#h" transform="matrix(1,0,0,1,2665,1195) translate(9.119357638888886 62.77777777777778)"/><use xlink:href="#i" transform="matrix(1,0,0,1,2665,1195) translate(65.96614583333333 62.77777777777778)"/><path d="M2650 1316a6 6 0 0 1 6-6h168a6 6 0 0 1 6 6v48a6 6 0 0 1-6 6h-168a6 6 0 0 1-6-6z" fill="none"/><use xlink:href="#j" transform="matrix(1,0,0,1,2650,1310) translate(39.98914930555556 21.95095486111111)"/><use xlink:href="#k" transform="matrix(1,0,0,1,2650,1310) translate(102.90147569444444 21.95095486111111)"/><use xlink:href="#g" transform="matrix(1,0,0,1,2650,1310) translate(48.968098958333336 54.21657986111111)"/><path d="M3320 786a6 6 0 0 1 6-6h148a6 6 0 0 1 6 6v108a6 6 0 0 1-6 6h-148a6 6 0 0 1-6-6z" stroke="#000" stroke-width="2" fill="#dfe3e8"/><use xlink:href="#l" transform="matrix(1,0,0,1,3332,791.9999999999999) translate(35.751736111111114 39.52777777777778)"/><use xlink:href="#m" transform="matrix(1,0,0,1,3332,791.9999999999999) translate(8.131293402777779 71.79340277777777)"/><path d="M2360 901.5V1004a6 6 0 0 0 6 6h508a6 6 0 0 1 6 6v86.62" stroke="#3a414a" fill="none"/><path d="M2360.47 901.5h-.94v-.5h.94z" stroke="#3a414a" stroke-width=".05" fill="#3a414a"/><path d="M2880 1117.38l-4.64-14.26h9.28z" stroke="#3a414a" fill="#3a414a"/><path d="M2880 1118.5V1016a6 6 0 0 1 6-6h508a6 6 0 0 0 6-6v-86.62" stroke="#3a414a" fill="none"/><path d="M2880.47 1119h-.94v-.5h.94z" stroke="#3a414a" stroke-width=".05" fill="#3a414a"/><path d="M3400 902.62l4.64 14.26h-9.28z" stroke="#3a414a" fill="#3a414a"/><path d="M2915.52 862.32c-12.48 0-18.96-4.08-18.96-5.76v-9.6c4.68 2.52 11.88 3.84 18.96 3.84 7.2 0 14.28-1.32 19.08-3.84v9.6c0 1.68-6.48 5.76-19.08 5.76zm0 16.68c-12.48 0-18.96-4.08-18.96-5.76v-9.36c4.68 2.52 11.88 3.96 18.96 3.96 7.2 0 14.28-1.44 19.08-3.96v9.36c0 1.68-6.48 5.76-19.08 5.76zm0 14.88c-12.48 0-18.96-4.08-18.96-5.76v-7.56c4.68 2.52 11.88 3.84 18.96 3.84 7.2 0 14.28-1.32 19.08-3.84v7.56c0 1.68-6.48 5.76-19.08 5.76zm0-60c12.6 0 19.08 3.96 19.08 5.76 0 1.68-6.48 5.76-19.08 5.76-12.48 0-18.96-4.08-18.96-5.76 0-1.8 6.48-5.76 18.96-5.76zm0-5.52c-12.12 0-24.48 3.84-24.48 11.28v48.48c0 7.32 12.36 11.28 24.48 11.28 12.12 0 24.48-3.96 24.48-11.28v-48.48c0-7.44-12.36-11.28-24.48-11.28zm-79.8 66.12h53.64V900h-53.64c-8.64 0-15.72-7.08-15.72-15.72v-88.56c0-8.64 7.08-15.72 15.72-15.72h88.32c8.64 0 15.6 7.08 15.6 15.72v34.68h-5.4v-34.68c0-5.64-4.56-10.2-10.2-10.2h-88.32c-5.64 0-10.32 4.56-10.32 10.2v88.56c0 5.64 4.68 10.2 10.32 10.2zm89.76-98.64v14.64h6v1.92h-8.4v-16.56h2.4zm-11.76 15c-1.32 0-2.28-.6-2.88-1.68-.72-1.2-.96-2.76-.96-5.04 0-2.16.24-3.84.96-4.92.6-1.08 1.56-1.68 2.88-1.68 1.32 0 2.28.6 2.88 1.68.6 1.08.96 2.76.96 4.92 0 2.28-.36 3.84-.96 5.04-.6 1.08-1.56 1.68-2.88 1.68zm5.04-1.08c.84-1.44 1.2-3.36 1.2-5.64 0-2.64-.6-4.8-1.68-6.24-1.08-1.56-2.64-2.28-4.56-2.28-2.04 0-3.48.72-4.56 2.28-1.2 1.44-1.68 3.6-1.68 6.24 0 1.8.24 3.24.72 4.56.36 1.32 1.08 2.28 1.92 3 .96.6 2.04 1.08 3.24 1.08.96.96 1.92 1.8 3 2.4 1.08.6 2.16.96 3.36 1.08v-2.04c-.72-.12-1.56-.24-2.16-.48-.72-.36-1.44-.72-2.04-1.2 1.44-.48 2.52-1.32 3.24-2.76zm-16.56.36c.48-.48.72-1.2.72-2.04 0-1.08-.72-2.04-1.92-2.64l-1.68-.84c-1.08-.6-1.92-1.2-2.4-1.92s-.72-1.56-.72-2.52c0-1.44.48-2.52 1.32-3.36.84-.84 1.92-1.2 3.36-1.2.96 0 2.16.24 3.48.84v1.8c-1.08-.48-2.16-.72-3.36-.72-.72 0-1.32.24-1.8.72-.36.36-.6.96-.6 1.8 0 .48.12 1.08.36 1.44.36.48.84.84 1.56 1.2l1.68.84c1.08.48 1.8 1.2 2.28 1.8.48.72.72 1.68.72 2.64 0 1.44-.48 2.64-1.32 3.48-.96.84-2.16 1.32-3.6 1.32-.72 0-1.44-.12-2.16-.24-.72-.12-1.2-.36-1.8-.72V810c1.32.48 2.64.84 3.84.84.84 0 1.56-.24 2.04-.72zm-13.8-7.44c.48-.72.96-.96 1.8-.96.6 0 1.08.24 1.44.72.24.48.48 1.2.48 2.28 0 .12 0 .24-.12.36v.24h-4.2c0-1.2.24-2.04.6-2.64zm5.4 7.44c-1.08.6-2.04.84-3 .84-1.08 0-1.8-.36-2.28-.96-.48-.72-.72-1.68-.72-3.12h6c.24-.6.24-1.32.24-2.04 0-1.56-.36-2.76-.96-3.6-.6-.84-1.56-1.2-2.88-1.2-1.44 0-2.52.48-3.36 1.56-.84 1.08-1.2 2.76-1.2 4.8 0 2.16.36 3.72 1.2 4.8.84.96 2.04 1.56 3.6 1.56 1.32 0 2.4-.36 3.36-.96v-1.68zm-11.52-9.48c.36-.24.96-.36 1.56-.36h.72v2.04h-1.08c-.84 0-1.68.24-2.4.84v9.24h-2.28v-12.12h1.92l.12 1.44c.48-.48.96-.84 1.44-1.08zm-10.92 9.72c-.84 0-1.44-.36-1.8-1.08-.36-.72-.6-1.68-.6-3.12 0-1.56.24-2.64.6-3.24.36-.72.96-1.08 1.68-1.08s1.44.24 2.16.84v6.72c-.72.6-1.44.96-2.04.96zm1.44 4.44c-.36.6-1.08.96-2.16.96-.84 0-1.92-.24-3.12-.72v1.68c1.08.6 2.16.96 3.36.96 3.12 0 4.8-2.04 4.8-6v-11.4h-1.92l-.12 1.08c-.96-.96-1.92-1.32-2.88-1.32-1.2 0-2.16.48-2.88 1.68-.72 1.08-1.08 2.52-1.08 4.44 0 1.2.12 2.28.48 3.12.24.96.72 1.68 1.32 2.16.6.48 1.32.72 2.04.72.96 0 1.92-.36 2.76-1.2v.84c0 1.44-.24 2.4-.6 3zm-12.72-5.52v-7.2h-1.68v-1.44l1.8-.24.36-3.48h1.8v3.36h2.76v1.8h-2.76v6.96c0 .6.12 1.08.24 1.32.24.24.6.36 1.08.36.48 0 .96-.12 1.44-.24v1.68c-.6.24-1.32.36-2.16.36-.96 0-1.68-.24-2.16-.72-.48-.6-.72-1.44-.72-2.52zm-4.92 1.2c.24-.24.48-.72.48-1.32 0-.72-.48-1.2-1.32-1.68l-1.56-.72c-1.44-.72-2.16-1.8-2.16-3.36 0-.96.36-1.8.96-2.4.72-.72 1.56-.96 2.64-.96.96 0 1.92.24 2.88.72v1.68c-.84-.48-1.8-.72-2.76-.72-.48 0-.96.24-1.2.48-.36.24-.48.72-.48 1.2 0 .36.12.72.24.96.24.24.6.6 1.08.84l1.56.72c.72.36 1.2.72 1.56 1.32.36.48.48 1.08.48 1.8 0 1.08-.24 2.04-.96 2.64-.72.72-1.56 1.08-2.76 1.08-1.2 0-2.28-.36-3.36-.96v-1.56c1.32.48 2.4.72 3.24.72.6 0 1.08-.12 1.44-.48zm-9.24-.72c-.48.84-1.08 1.2-1.92 1.2-.84 0-1.44-.36-1.8-1.2-.36-.72-.6-1.8-.6-3.36 0-1.56.24-2.76.6-3.48.36-.72.96-1.08 1.8-1.08.84 0 1.44.36 1.92 1.08.36.72.6 1.92.6 3.48s-.24 2.64-.6 3.36zm-1.92-9.72c-1.44 0-2.64.48-3.36 1.56-.84 1.2-1.32 2.76-1.32 4.8s.48 3.6 1.32 4.68c.72 1.08 1.92 1.68 3.36 1.68 1.56 0 2.76-.6 3.48-1.68.84-1.08 1.2-2.64 1.2-4.68 0-2.04-.36-3.6-1.2-4.8-.72-1.08-1.92-1.56-3.48-1.56zm-9.36 3.24c-.48.6-1.08.84-1.8.84h-2.28v-6.36h2.28c.72 0 1.32.24 1.8.84.36.48.6 1.32.6 2.4 0 .96-.24 1.68-.6 2.28zm.84-6.72c-.72-.48-1.44-.72-2.4-.72h-4.8v16.56h2.28v-6.36h2.52c1.32 0 2.4-.48 3.24-1.44.84-.96 1.2-2.16 1.2-3.6 0-1.08-.12-1.92-.48-2.64-.36-.84-.96-1.44-1.56-1.8z" stroke="#000" stroke-opacity="0" fill="#c925d1"/><use xlink:href="#n" transform="matrix(1,0,0,1,2790,909) translate(27.711588541666664 21.52777777777778)"/><use xlink:href="#o" transform="matrix(1,0,0,1,2790,909) translate(45.56098090277778 53.79340277777778)"/><path d="M3318.5 840h-362.12" stroke="#3a414a" fill="none"/><path d="M3319 840.48h-.5v-.96h.5z" stroke="#3a414a" stroke-width=".05" fill="#3a414a"/><path d="M2941.62 840l14.26-4.63v9.26z" stroke="#3a414a" fill="#3a414a"/><path d="M2819.5 840h-362.12" stroke="#3a414a" fill="none"/><path d="M2820 840.48h-.5v-.96h.5z" stroke="#3a414a" stroke-width=".05" fill="#3a414a"/><path d="M2442.62 840l14.26-4.63v9.26z" stroke="#3a414a" fill="#3a414a"/><path d="M2825.46 345.46h109.08v109.08h-109.08V345.46z" stroke="#000" stroke-opacity="0" fill="#dd344c"/><path d="M2820 340h120v120h-120V340z" stroke="#879196" stroke-width="2" fill-opacity="0"/><path d="M2896.33 431.37v-2.75h9.54v2.75h-9.54zm-9.54 4.04h28.6v-10.9h-28.6v10.9zm0-51.73v38.16h28.6v-38.16h-28.6zm31.36 0v51.74c0 1.54-1.22 2.76-2.75 2.76h-28.6c-1.46 0-2.68-1.22-2.68-2.75v-51.73c0-1.53 1.22-2.75 2.67-2.75h28.6c1.54 0 2.76 1.22 2.76 2.75zm-65.4-10.92h32.66v5.42h2.75v-6.8c0-.75-.6-1.36-1.38-1.36h-35.42c-.76 0-1.37.62-1.37 1.38v51.82c0 .7.62 1.3 1.38 1.3h30v-2.67h-28.63v-49.08zm-5.73 57.24h34.34v2.74h-34.34c-2.82 0-5.2-2.37-5.2-5.26V367.1c0-2.9 2.38-5.26 5.2-5.26h44.1c2.9 0 5.2 2.37 5.2 5.27v11.07h-2.67V367.1c0-1.37-1.14-2.5-2.52-2.5h-44.1c-1.38 0-2.45 1.13-2.45 2.5v60.38c0 1.37 1.06 2.5 2.43 2.5z" stroke="#000" stroke-opacity="0" fill="#fff"/><g><use xlink:href="#p" transform="matrix(1,0,0,1,2790,469) translate(8.050130208333343 21.52777777777778)"/><use xlink:href="#q" transform="matrix(1,0,0,1,2790,469) translate(14.300130208333343 21.52777777777778)"/><use xlink:href="#r" transform="matrix(1,0,0,1,2790,469) translate(124.619140625 21.52777777777778)"/><use xlink:href="#s" transform="matrix(1,0,0,1,2790,469) translate(44.35655381944444 53.79340277777778)"/><use xlink:href="#t" transform="matrix(1,0,0,1,2790,469) translate(64.91861979166666 53.79340277777778)"/></g><path d="M2880.47 562.62h-.94v-37.35h.94zm0-90.62h-.94v-11.5h.94z" stroke="#3a414a" stroke-width=".05" fill="#3a414a"/><path fill="#3a414a"/><path stroke="#3a414a" stroke-width=".05" fill="#3a414a"/><path d="M2880 577.38l-4.64-14.26h9.28z" fill="#3a414a"/><path d="M2880 578.92l-5.3-16.28h10.6zm-3.98-15.33l3.98 12.25 3.98-12.26z" stroke="#3a414a" stroke-width=".05" fill="#3a414a"/><defs><path d="M645 0H180v-1490h484c435 0 692 280 692 742 0 466-257 748-711 748zM370-168h263c363 0 539-218 539-580 0-358-176-574-521-574H370v1154" id="u"/><path d="M613 24c-304 0-509-231-509-576 0-350 205-580 509-580 305 0 511 230 511 580 0 345-206 576-511 576zm0-161c226 0 329-195 329-415 0-222-103-419-329-419-223 0-326 196-326 419 0 220 103 415 326 415" id="v"/><path d="M613 24c-304 0-509-231-509-576 0-350 205-580 509-580 216 0 392 114 453 309l-173 49c-33-115-133-197-280-197-223 0-326 196-326 419 0 220 103 415 326 415 150 0 252-85 285-206l172 49C1010-95 832 24 613 24" id="w"/><path d="M158 0v-1490h180v865h22l478-493h223L593-638 1096 0H865L456-523 338-412V0H158" id="x"/><path d="M628 24c-324 0-524-230-524-574 0-343 198-582 503-582 237 0 487 146 487 559v75H286c9 234 145 362 343 362 132 0 231-58 273-172l174 48C1024-91 857 24 628 24zM287-650h624c-17-190-120-322-304-322-192 0-309 151-320 322" id="y"/><path d="M158 0v-1118h174v172h12c41-113 157-188 290-188 26 0 70 2 91 3v181c-11-2-60-10-108-10-161 0-279 109-279 260V0H158" id="z"/><g id="a"><use transform="matrix(0.010850694444444444,0,0,0.010850694444444444,0,0)" xlink:href="#u"/><use transform="matrix(0.010850694444444444,0,0,0.010850694444444444,16.03732638888889,0)" xlink:href="#v"/><use transform="matrix(0.010850694444444444,0,0,0.010850694444444444,29.361979166666664,0)" xlink:href="#w"/><use transform="matrix(0.010850694444444444,0,0,0.010850694444444444,42.057291666666664,0)" xlink:href="#x"/><use transform="matrix(0.010850694444444444,0,0,0.010850694444444444,53.75434027777778,0)" xlink:href="#y"/><use transform="matrix(0.010850694444444444,0,0,0.010850694444444444,66.71006944444444,0)" xlink:href="#z"/></g><path d="M180 0v-1490h908v168H370v486h669v168H370v500h727V0H180" id="A"/><path d="M65 0l393-574-370-544h210c88 136 192 297 267 435 67-142 176-302 264-435h206L661-564 1053 0H844c-94-144-206-310-287-458C484-308 366-142 273 0H65" id="B"/><path d="M158 418v-1536h174v179h20c37-59 106-193 324-193 279 0 474 222 474 576 0 356-194 580-473 580-213 0-288-135-325-197h-14v591H158zm492-555c209 0 317-186 317-421 0-232-105-413-317-413-206 0-314 166-314 413 0 249 111 421 314 421" id="C"/><path d="M538 24C308 24 148-78 108-271l171-41c32 123 123 178 257 178 156 0 256-77 256-169 0-77-54-128-164-154l-186-44c-203-48-300-148-300-305 0-192 176-326 414-326 230 0 351 112 402 269l-163 42c-31-80-94-158-238-158-133 0-233 69-233 162 0 83 57 129 188 160l169 40c203 48 298 149 298 302 0 196-179 339-441 339" id="D"/><g id="b"><use transform="matrix(0.010850694444444444,0,0,0.010850694444444444,0,0)" xlink:href="#A"/><use transform="matrix(0.010850694444444444,0,0,0.010850694444444444,13.35720486111111,0)" xlink:href="#B"/><use transform="matrix(0.010850694444444444,0,0,0.010850694444444444,25.48828125,0)" xlink:href="#C"/><use transform="matrix(0.010850694444444444,0,0,0.010850694444444444,39.09505208333333,0)" xlink:href="#z"/><use transform="matrix(0.010850694444444444,0,0,0.010850694444444444,47.09201388888888,0)" xlink:href="#y"/><use transform="matrix(0.010850694444444444,0,0,0.010850694444444444,60.04774305555554,0)" xlink:href="#D"/><use transform="matrix(0.010850694444444444,0,0,0.010850694444444444,71.77734374999999,0)" xlink:href="#D"/></g><path d="M52 0l541-1490h220L1361 0h-200l-149-416H398L254 0H52zm404-582h497c-103-290-145-390-251-756-108 377-145 460-246 756" id="E"/><path d="M180 0v-1490h510c348 0 508 209 508 474 0 266-160 477-507 477H370V0H180zm190-706h312c236 0 327-133 327-310 0-176-91-307-329-307H370v617" id="F"/><path d="M370-1490V0H180v-1490h190" id="G"/><g id="c"><use transform="matrix(0.010850694444444444,0,0,0.010850694444444444,0,0)" xlink:href="#E"/><use transform="matrix(0.010850694444444444,0,0,0.010850694444444444,15.33203125,0)" xlink:href="#F"/><use transform="matrix(0.010850694444444444,0,0,0.010850694444444444,29.524739583333332,0)" xlink:href="#G"/></g><path d="M789 20c-398 0-667-293-667-764 0-473 273-766 655-766 315 0 558 198 612 487h-196c-61-191-204-311-415-311-262 0-471 207-471 590 0 380 208 588 482 588 249 0 420-165 425-427H828v-166h572v163c0 370-256 606-611 606" id="H"/><path d="M98-1322v-168h1126v168H757V0H567v-1322H98" id="I"/><path d="M458 0L52-1490h194c108 439 233 855 324 1313 92-459 221-873 331-1313h216c110 438 234 854 330 1307 92-455 216-869 323-1307h196L1558 0h-221l-256-944c-26-95-50-200-73-331-22 122-44 223-73 331L680 0H458" id="J"/><path d="M600 0v-610L52-1490h220l295 481c50 82 90 150 130 243 40-96 80-164 128-243l294-481h219L790-610V0H600" id="K"/><g id="d"><use transform="matrix(0.010850694444444444,0,0,0.010850694444444444,0,0)" xlink:href="#H"/><use transform="matrix(0.010850694444444444,0,0,0.010850694444444444,16.080729166666668,0)" xlink:href="#E"/><use transform="matrix(0.010850694444444444,0,0,0.010850694444444444,29.524739583333336,0)" xlink:href="#I"/><use transform="matrix(0.010850694444444444,0,0,0.010850694444444444,43.86935763888889,0)" xlink:href="#A"/><use transform="matrix(0.010850694444444444,0,0,0.010850694444444444,57.2265625,0)" xlink:href="#J"/><use transform="matrix(0.010850694444444444,0,0,0.010850694444444444,77.86458333333333,0)" xlink:href="#E"/><use transform="matrix(0.010850694444444444,0,0,0.010850694444444444,91.55815972222221,0)" xlink:href="#K"/></g><path d="M338-1490V0H158v-1490h180" id="L"/><path d="M611 442c-248 0-391-105-460-228l146-94c47 65 117 165 314 165 178 0 307-82 307-266v-224h-17C863-141 792-18 576-18c-268 0-472-195-472-546 0-346 197-568 476-568 216 0 288 133 326 193h17v-179h175V29c0 289-215 413-487 413zm-5-620c203 0 314-146 314-390 0-237-108-403-314-403-213 0-319 180-319 403 0 230 109 390 319 390" id="M"/><path d="M471 26C259 26 90-98 90-318c0-256 228-303 435-329 202-27 287-16 287-108 0-139-79-219-234-219-161 0-248 86-283 164l-173-57c86-203 278-265 451-265 150 0 419 46 419 395V0H815v-152h-12C765-73 660 26 471 26zm31-159c199 0 310-134 310-271v-155c-30 35-226 55-295 64-131 17-246 59-246 186 0 116 97 176 231 176" id="N"/><path d="M158 0v-1118h175l1 205c55-151 181-225 313-225 147 0 245 90 285 228 53-141 190-228 352-228 194 0 352 125 352 384V0h-181v-749c0-161-105-225-225-225-151 0-243 103-243 244V0H807v-767c0-124-93-207-219-207-131 0-250 92-250 270V0H158" id="O"/><g id="e"><use transform="matrix(0.010850694444444444,0,0,0.010850694444444444,0,0)" xlink:href="#I"/><use transform="matrix(0.010850694444444444,0,0,0.010850694444444444,12.608506944444445,0)" xlink:href="#y"/><use transform="matrix(0.010850694444444444,0,0,0.010850694444444444,25.56423611111111,0)" xlink:href="#L"/><use transform="matrix(0.010850694444444444,0,0,0.010850694444444444,30.94618055555556,0)" xlink:href="#y"/><use transform="matrix(0.010850694444444444,0,0,0.010850694444444444,43.90190972222222,0)" xlink:href="#M"/><use transform="matrix(0.010850694444444444,0,0,0.010850694444444444,57.53038194444444,0)" xlink:href="#z"/><use transform="matrix(0.010850694444444444,0,0,0.010850694444444444,65.89626736111111,0)" xlink:href="#N"/><use transform="matrix(0.010850694444444444,0,0,0.010850694444444444,78.37456597222223,0)" xlink:href="#O"/></g><path d="M783 20c-382 0-661-292-661-764 0-473 279-766 661-766 302 0 548 182 601 489h-190c-42-204-217-313-411-313-268 0-476 208-476 590 0 381 209 588 476 588 195 0 369-110 411-313h190c-52 303-296 489-601 489" id="P"/><path d="M577 24c-279 0-473-224-473-580 0-354 195-576 474-576 218 0 287 134 324 193h14v-551h180V0H922v-173h-20C865-111 790 24 577 24zm27-161c203 0 314-172 314-421 0-247-108-413-314-413-212 0-317 181-317 413 0 235 108 421 317 421" id="Q"/><g id="f"><use transform="matrix(0.010850694444444444,0,0,0.010850694444444444,0,0)" xlink:href="#P"/><use transform="matrix(0.010850694444444444,0,0,0.010850694444444444,16.23263888888889,0)" xlink:href="#v"/><use transform="matrix(0.010850694444444444,0,0,0.010850694444444444,29.557291666666664,0)" xlink:href="#L"/><use transform="matrix(0.010850694444444444,0,0,0.010850694444444444,34.93923611111111,0)" xlink:href="#Q"/></g><path d="M657 26c-323 0-524-166-541-416h195c15 169 171 246 346 246 202 0 356-106 356-265 5-203-294-238-475-293-239-73-380-191-380-389 0-252 224-419 512-419 294 0 499 171 508 396H992c-17-145-151-228-328-228-193 0-321 102-321 242 0 156 175 211 284 241l149 41c160 44 422 134 422 412 0 244-197 432-541 432" id="R"/><path d="M598-1118v154H368v674c0 100 37 144 132 144 23 0 62-6 92-12L629-6c-37 13-88 20-134 20-193 0-307-107-307-290v-688H20v-154h168v-266h180v266h230" id="S"/><g id="g"><use transform="matrix(0.010850694444444444,0,0,0.010850694444444444,0,0)" xlink:href="#R"/><use transform="matrix(0.010850694444444444,0,0,0.010850694444444444,14.2578125,0)" xlink:href="#S"/><use transform="matrix(0.010850694444444444,0,0,0.010850694444444444,21.31076388888889,0)" xlink:href="#v"/><use transform="matrix(0.010850694444444444,0,0,0.010850694444444444,34.635416666666664,0)" xlink:href="#z"/><use transform="matrix(0.010850694444444444,0,0,0.010850694444444444,43.00130208333333,0)" xlink:href="#N"/><use transform="matrix(0.010850694444444444,0,0,0.010850694444444444,55.47960069444444,0)" xlink:href="#M"/><use transform="matrix(0.010850694444444444,0,0,0.010850694444444444,69.10807291666666,0)" xlink:href="#y"/></g><path d="M180 0v-1490h190v644h782v-644h190V0h-190v-678H370V0H180" id="T"/><g id="h"><use transform="matrix(0.010850694444444444,0,0,0.010850694444444444,0,0)" xlink:href="#T"/><use transform="matrix(0.010850694444444444,0,0,0.010850694444444444,16.514756944444443,0)" xlink:href="#N"/><use transform="matrix(0.010850694444444444,0,0,0.010850694444444444,28.993055555555554,0)" xlink:href="#z"/><use transform="matrix(0.010850694444444444,0,0,0.010850694444444444,36.99001736111111,0)" xlink:href="#Q"/></g><path d="M158 0v-1118h180V0H158zm91-1301c-68 0-125-53-125-119s57-119 125-119c69 0 126 53 126 119s-57 119-126 119" id="U"/><g id="i"><use transform="matrix(0.010850694444444444,0,0,0.010850694444444444,0,0)" xlink:href="#Q"/><use transform="matrix(0.010850694444444444,0,0,0.010850694444444444,13.606770833333332,0)" xlink:href="#U"/><use transform="matrix(0.010850694444444444,0,0,0.010850694444444444,18.98871527777778,0)" xlink:href="#D"/><use transform="matrix(0.010850694444444444,0,0,0.010850694444444444,30.71831597222222,0)" xlink:href="#x"/></g><path d="M180 0v-1490h190v1322h690V0H180" id="V"/><g id="j"><use transform="matrix(0.010850694444444444,0,0,0.010850694444444444,0,0)" xlink:href="#V"/><use transform="matrix(0.010850694444444444,0,0,0.010850694444444444,12.565104166666666,0)" xlink:href="#v"/><use transform="matrix(0.010850694444444444,0,0,0.010850694444444444,25.889756944444443,0)" xlink:href="#w"/><use transform="matrix(0.010850694444444444,0,0,0.010850694444444444,38.80208333333333,0)" xlink:href="#N"/><use transform="matrix(0.010850694444444444,0,0,0.010850694444444444,51.28038194444444,0)" xlink:href="#L"/></g><g id="k"><use transform="matrix(0.010850694444444444,0,0,0.010850694444444444,0,0)" xlink:href="#T"/><use transform="matrix(0.010850694444444444,0,0,0.010850694444444444,16.514756944444443,0)" xlink:href="#v"/><use transform="matrix(0.010850694444444444,0,0,0.010850694444444444,29.83940972222222,0)" xlink:href="#S"/></g><path d="M180 0v-1490h270l367 940c28 72 75 218 110 339 35-117 81-264 110-339l362-940h271V0h-187c2-448-5-837 7-1287-157 497-311 829-483 1287H842C666-458 514-784 354-1284c12 438 5 843 7 1284H180" id="W"/><g id="l"><use transform="matrix(0.010850694444444444,0,0,0.010850694444444444,0,0)" xlink:href="#W"/><use transform="matrix(0.010850694444444444,0,0,0.010850694444444444,20.07378472222222,0)" xlink:href="#y"/><use transform="matrix(0.010850694444444444,0,0,0.010850694444444444,33.029513888888886,0)" xlink:href="#Q"/><use transform="matrix(0.010850694444444444,0,0,0.010850694444444444,46.63628472222221,0)" xlink:href="#U"/><use transform="matrix(0.010850694444444444,0,0,0.010850694444444444,52.01822916666666,0)" xlink:href="#N"/></g><path d="M338-670V0H158v-1118h173l1 207c72-158 192-221 342-221 226 0 378 139 378 422V0H872v-695c0-172-96-275-252-275-161 0-282 109-282 300" id="X"/><g id="m"><use transform="matrix(0.010850694444444444,0,0,0.010850694444444444,0,0)" xlink:href="#I"/><use transform="matrix(0.010850694444444444,0,0,0.010850694444444444,13.0859375,0)" xlink:href="#z"/><use transform="matrix(0.010850694444444444,0,0,0.010850694444444444,21.451822916666664,0)" xlink:href="#N"/><use transform="matrix(0.010850694444444444,0,0,0.010850694444444444,33.93012152777777,0)" xlink:href="#X"/><use transform="matrix(0.010850694444444444,0,0,0.010850694444444444,47.05946180555556,0)" xlink:href="#D"/><use transform="matrix(0.010850694444444444,0,0,0.010850694444444444,58.789062499999986,0)" xlink:href="#w"/><use transform="matrix(0.010850694444444444,0,0,0.010850694444444444,71.484375,0)" xlink:href="#v"/><use transform="matrix(0.010850694444444444,0,0,0.010850694444444444,84.80902777777777,0)" xlink:href="#Q"/><use transform="matrix(0.010850694444444444,0,0,0.010850694444444444,98.41579861111111,0)" xlink:href="#y"/><use transform="matrix(0.010850694444444444,0,0,0.010850694444444444,111.37152777777777,0)" xlink:href="#z"/></g><path d="M784 20c-382 0-662-292-662-764 0-473 280-766 662-766s660 293 660 766c0 282-99 499-260 629l192 255h-198L1049-33C969 2 880 20 784 20zm-62-486h198l156 205c112-98 183-261 183-483 0-383-209-590-475-590-268 0-477 208-477 590 0 380 209 588 477 588 54 0 106-9 154-25" id="Y"/><g id="n"><use transform="matrix(0.010850694444444444,0,0,0.010850694444444444,0,0)" xlink:href="#F"/><use transform="matrix(0.010850694444444444,0,0,0.010850694444444444,14.073350694444445,0)" xlink:href="#v"/><use transform="matrix(0.010850694444444444,0,0,0.010850694444444444,27.39800347222222,0)" xlink:href="#D"/><use transform="matrix(0.010850694444444444,0,0,0.010850694444444444,39.127604166666664,0)" xlink:href="#S"/><use transform="matrix(0.010850694444444444,0,0,0.010850694444444444,46.18055555555556,0)" xlink:href="#M"/><use transform="matrix(0.010850694444444444,0,0,0.010850694444444444,59.80902777777778,0)" xlink:href="#z"/><use transform="matrix(0.010850694444444444,0,0,0.010850694444444444,67.80598958333333,0)" xlink:href="#y"/><use transform="matrix(0.010850694444444444,0,0,0.010850694444444444,80.76171875,0)" xlink:href="#R"/><use transform="matrix(0.010850694444444444,0,0,0.010850694444444444,95.01953125,0)" xlink:href="#Y"/><use transform="matrix(0.010850694444444444,0,0,0.010850694444444444,112.01171875,0)" xlink:href="#V"/></g><g id="o"><use transform="matrix(0.010850694444444444,0,0,0.010850694444444444,0,0)" xlink:href="#U"/><use transform="matrix(0.010850694444444444,0,0,0.010850694444444444,5.381944444444445,0)" xlink:href="#X"/><use transform="matrix(0.010850694444444444,0,0,0.010850694444444444,18.51128472222222,0)" xlink:href="#D"/><use transform="matrix(0.010850694444444444,0,0,0.010850694444444444,30.240885416666664,0)" xlink:href="#S"/><use transform="matrix(0.010850694444444444,0,0,0.010850694444444444,37.619357638888886,0)" xlink:href="#N"/><use transform="matrix(0.010850694444444444,0,0,0.010850694444444444,50.09765625,0)" xlink:href="#X"/><use transform="matrix(0.010850694444444444,0,0,0.010850694444444444,63.22699652777778,0)" xlink:href="#w"/><use transform="matrix(0.010850694444444444,0,0,0.010850694444444444,75.92230902777777,0)" xlink:href="#y"/></g><path d="M180 0v-1490h901v168H370v510h643v168H370V0H180" id="Z"/><path d="M798-719v166H144v-166h654" id="aa"/><g id="q"><use transform="matrix(0.010850694444444444,0,0,0.010850694444444444,0,0)" xlink:href="#Z"/><use transform="matrix(0.010850694444444444,0,0,0.010850694444444444,12.467447916666666,0)" xlink:href="#z"/><use transform="matrix(0.010850694444444444,0,0,0.010850694444444444,20.46440972222222,0)" xlink:href="#v"/><use transform="matrix(0.010850694444444444,0,0,0.010850694444444444,33.7890625,0)" xlink:href="#X"/><use transform="matrix(0.010850694444444444,0,0,0.010850694444444444,46.91840277777778,0)" xlink:href="#S"/><use transform="matrix(0.010850694444444444,0,0,0.010850694444444444,53.75434027777778,0)" xlink:href="#aa"/><use transform="matrix(0.010850694444444444,0,0,0.010850694444444444,63.97569444444444,0)" xlink:href="#A"/><use transform="matrix(0.010850694444444444,0,0,0.010850694444444444,77.33289930555556,0)" xlink:href="#X"/><use transform="matrix(0.010850694444444444,0,0,0.010850694444444444,90.46223958333333,0)" xlink:href="#Q"/></g><path d="M677 24c-213 0-288-135-325-197h-20V0H158v-1490h180v551h14c37-59 106-193 324-193 279 0 474 222 474 576 0 356-194 580-473 580zm-27-161c209 0 317-186 317-421 0-232-105-413-317-413-206 0-314 166-314 413 0 249 111 421 314 421" id="ab"/><g id="r"><use transform="matrix(0.010850694444444444,0,0,0.010850694444444444,0,0)" xlink:href="#J"/><use transform="matrix(0.010850694444444444,0,0,0.010850694444444444,20.768229166666668,0)" xlink:href="#y"/><use transform="matrix(0.010850694444444444,0,0,0.010850694444444444,33.723958333333336,0)" xlink:href="#ab"/></g><path d="M580 20c-295 0-476-179-476-409 0-189 123-290 294-416-104-125-173-226-173-362 0-197 144-337 365-337 224 0 362 144 362 321 0 185-174 312-306 405l319 387c38-75 61-165 61-267h173c0 208-62 332-120 406L1287 0h-217L967-124C868-27 716 20 580 20zm279-273L507-675l-51 38c-123 91-167 162-167 254 0 147 113 246 278 246 107 0 210-41 292-116zM538-908l97-72c54-40 136-101 136-206 0-95-68-163-176-163-113 0-189 74-189 181 0 90 53 164 132 260" id="ac"/><use transform="matrix(0.010850694444444444,0,0,0.010850694444444444,0,0)" xlink:href="#ac" id="s"/><g id="t"><use transform="matrix(0.010850694444444444,0,0,0.010850694444444444,0,0)" xlink:href="#W"/><use transform="matrix(0.010850694444444444,0,0,0.010850694444444444,20.07378472222222,0)" xlink:href="#v"/><use transform="matrix(0.010850694444444444,0,0,0.010850694444444444,33.3984375,0)" xlink:href="#ab"/><use transform="matrix(0.010850694444444444,0,0,0.010850694444444444,47.00520833333333,0)" xlink:href="#U"/><use transform="matrix(0.010850694444444444,0,0,0.010850694444444444,52.38715277777778,0)" xlink:href="#L"/><use transform="matrix(0.010850694444444444,0,0,0.010850694444444444,57.76909722222221,0)" xlink:href="#y"/></g></defs></g></svg>